<mxfile host="app.diagrams.net" agent="Mozilla/5.0 (Windows NT 10.0; Win64; x64) AppleWebKit/537.36 (KHTML, like Gecko) Chrome/131.0.0.0 Safari/537.36" version="24.9.0">
  <diagram name="第 1 页" id="s4gygwtwzx2K5lGUEMB5">
    <mxGraphModel dx="1860" dy="620" grid="0" gridSize="10" guides="1" tooltips="1" connect="1" arrows="1" fold="1" page="0" pageScale="1" pageWidth="827" pageHeight="1169" math="0" shadow="0">
      <root>
        <mxCell id="0" />
        <mxCell id="1" parent="0" />
        <mxCell id="M4vZDQExEsMoId1NsZRh-16" value="" style="rounded=1;whiteSpace=wrap;html=1;" parent="1" vertex="1">
          <mxGeometry x="-405" y="1001" width="513" height="339" as="geometry" />
        </mxCell>
        <mxCell id="M4vZDQExEsMoId1NsZRh-7" value="" style="rounded=1;whiteSpace=wrap;html=1;" parent="1" vertex="1">
          <mxGeometry x="-310" y="60" width="320" height="780" as="geometry" />
        </mxCell>
        <mxCell id="M4vZDQExEsMoId1NsZRh-12" value="" style="rounded=1;whiteSpace=wrap;html=1;" parent="1" vertex="1">
          <mxGeometry x="-292.5" y="680" width="282.5" height="130" as="geometry" />
        </mxCell>
        <mxCell id="M4vZDQExEsMoId1NsZRh-11" value="" style="rounded=1;whiteSpace=wrap;html=1;" parent="1" vertex="1">
          <mxGeometry x="-295" y="560" width="285" height="100" as="geometry" />
        </mxCell>
        <mxCell id="M4vZDQExEsMoId1NsZRh-10" value="" style="rounded=1;whiteSpace=wrap;html=1;" parent="1" vertex="1">
          <mxGeometry x="-292.5" y="390" width="282.5" height="160" as="geometry" />
        </mxCell>
        <mxCell id="M4vZDQExEsMoId1NsZRh-9" value="" style="rounded=1;whiteSpace=wrap;html=1;" parent="1" vertex="1">
          <mxGeometry x="-285" y="221" width="275" height="160" as="geometry" />
        </mxCell>
        <mxCell id="fhf2vWcNJBLH6D_uzpyj-1" value="" style="shape=image;verticalLabelPosition=bottom;labelBackgroundColor=default;verticalAlign=top;aspect=fixed;imageAspect=0;image=data:image/png,iVBORw0KGgoAAAANSUhEUgAAAgAAAAIACAYAAAD0eNT6AAAAAXNSR0IArs4c6QAAIABJREFUeAHtnQncfuW473+lNCmUVIYtUyUbmROSLcMxHJVd6tgb7Uypc4RwInMyhi2xM+TItGWMNhEpYzJHhFLIkFOkOQ3nPN9/z/P3/p/3ed5nWmtd173W7/p83s/7DOtZ931/72tYw72uS7KYgAmUQGBDSbeVtIOkh0naS9L+kg6V9BZJx0o6XtKJkk6W9HVJp0v6kaSfSTpH0m8l/UnSxZKu6P322v4fr/mM79iGbfkNv2Uf7It9sm/aoC3apG36QF/oE32jj/TVYgImYAImYAImsAKBdSXdXtIukp4q6eWSjpH0pX4APl/Slb3P/19hf/SZvnMQwVgYE2NjjIyVMTN2iwmYgAmYgAm0ksBakraW9AhJT+8FvddI+mDvjPlr/bPt6woL7FUeiDB2rjjAAiawgRGsYAY7iwmYgAmYgAmkJ7Bl73L5rr3L6QdJeo+k0yRd2uEAv+jBAuxgCEuYwhbGFhMwARMwARMIIXBTSQ/u3/8+qndJ+xRJFzrQN3abAtYwhz1rEJgL5sRiAiZgAiZgApUR4DL0tpL2lfRuSWdKut7BvrFgP+1VBOaEuWGOmCvmzLcQKjMD78gETMAE2k9go/4itRdLOkHSRQ726YL9tAcFzB1zyFyy8JC5tZiACZiACZjAKgKbS9pb0pGSvifpGgf8YgP+pAMD5pY5Zq6Zc+beYgImYAIm0BECPHrG2eDh/WDgy/nlPWI4KdBP+z1zzwEBuoBO+LHEjjgBD9METKA7BLbpLdI7UNJnvSq/tWf30wb9lbbjqQN0BF1BZywmYAImYAKFEbiZpD0kHS3pXF/Sd9CfUwfQHXQIXUKnLCZgAiZgAgkJ3KKXee5p/XS1vo/f3cv6K53hL/IdOkUqZHQMXbOYgAmYgAkEEmAR1zMlneTFez7Ln/Msf56DAg4G0Dl0zwsJAx2AmzYBE+gWgS36yV8oTkMxm3kcuH9jblXpADqILpKQCN20mIAJmIAJVEhgq/7CLLK/Xeeg74OepDqAbqKjLCJEZy0mYAImYAJzEOCRrN37iVx8pu8z9qrO2JvaDzpLEiJ02I8XzuEA/BMTMIHuEdhe0hH92vRNOWu34wOMOnXgT32dRrctJmACJmACSwhs0i8DS+W3Oh2x922+0TqAjlPyGJ23mIAJmEBnCews6f2SLnfg94FPx3QAnUf3sQGLCZiACXSCAGc+z5P0y445/OgzT7ef9+oHtoBN+KpAJ1ygB2kC3SOwdc/Bvbnn6C5x4PfZvnVgpA5gG9gItmIxARMwgeIJ7CjpOD+zP9Lh+6w871l55NzwBAE2g+1YTMAETKAoAjeStKekb/pMz4HfOrCQDmBD2BI2ZTEBEzCBtAQ2lvRcF+BZyOFHnnm67bxXJChMhG1hYxYTMAETSEPglpLe0HNQf/XZnoO/daBWHcDGsDVszmICJmACYQQohIIz8mN8ec8cfVbfzrnB5rA9FyMKc39u2AS6SYByqK+XdJnP9mo923PwbmfwrnJesUFs0SWKu+mLPWoTaIzAZpJeK+lSB34HfutAKh3AJrFNbNRiAiZgApUR2FTS4Q78qRx+lWeR3ld7rjRwIICtYrMWEzABE5ibAE7kMCfvceD32X5xOkBSIWzXBwJzuz//0AS6SeDGvbP950u62I4/leNn4ddvJH1f0kmSPtK75HtkT0Vf0a9Bv4+kR0l6qKSdeuVo7yPp7pK2k3QHSbfuLxq7ae++8Qb9Z8t5vpzXfMaCMrZhW37Db9kH+2Kf7Js2qHdPm7RNH+gLfaJvXhCa62oCNowtY9MWEzABE1iRwG7O0x8S9K+UdFYv+9uJkt4p6UWS9pJ0P0m36QfpFScu0ZccUNBn+s4YGAtjYmyMkbH6tkOzDKg3gG1bTMAETGAZgR16lclOtmOuNTBdIek7ko6R9JLegdaT+mfXW0laa9mMtPcDxsqYubIAA1jABDYw8sFBfQywcWzdYgImYALasne29h5J19nxVhp4yNx2fO8y+6v7qVy3dTrXqayNWxKwIv0t7GAISx8UVMcAW8fmsX2LCZhABwmsL+kQL/BbOLBcL+nHvTPaoyXt37sf/kCXda3FmiiVC1sYwxrmsPeBwfwMWCiID8AXWEzABDpC4ImSzrPznCt4cIn6VEmvkfRoSTfriM5kHCbsmQPmgjnx7YP5DgbwBfgEiwmYQIsJsLIbR+mzpukZXNBbDf/J/krq+/eCzbot1o/Sh8bcMEesemfOmDvr+vQM8A34CIsJmECLCPAI0EslXWWHODEgsEL9C71HIA/q34tukRp0ciisJ2AumVM/fTD5YAAfga/wY4OdNBcPum0EWGl9pgP/ioH/nF4u9bf3VqE/pldgZcO2KYDHs5oAc8scM9fMua8OjGeAz8B3WEzABAokwKKpo7xQaqSTX3qWv02Bc+suV0OAuX+Orw6MtBEOjlhkiQ/Bl1hMwAQKIfB4Sef7DGcNx0bVNLLWkQzFZ/mFKHKD3UQn0A10xFUu17wygC/Bp1hMwAQSEyC5yscd+FcHflaFw4Nnyh30Eytusq6hK+jMx/xkwWpb4ooAtoSPsZiACSQiQGa1Zzp3/ypnxSKmT/dz1t8k0Ry5K2USQIeof4BOeRHtDfVB8DVdylxZpua6150gcKv+PcwuL2i6tpd3/nOSnuz7lZ3Q+ahBci8cHUPX0Lku2xxPVeB7LCZgAkEEntCrzHZhhx0RKWIP7VewC5oCN9tRAlRNRPe6nKYY34MPspiACTRIYGNJ7+to4L9a0nGSHuHLkA1qnJsaR4BL4egiOoludvGqAL4In2QxAROomQD50H/VQUdDGdmD+zXra0bs3ZvAXAQ27+soutq1AwF8Er7JYgImUAMB0pwe1rF7jyy6OlbSg2vg6V2aQJ0E0Fl0t0sLB1kXgY9yuuw6Ncv77hwB0plSK70rZxUX9UvBbtG5mfaA20YAHaasMTrdFfvFV+GzLCZgAgsSoPzp5R1xHmdLOsDP7C+oMf55RgLkFkC30fEuHAjgs/BdFhMwgTkI8MgRFc264Cy+KWkPSWvPwck/MYGSCKDj6Do63wXbxoc5lXBJGuq+hhPYXlLbFxJdJ+kTvRwGDwin7Q6YQAwBdB8bwBbafDCAL8OnWUzABCYQ2KtXz/zSFjsEFgodI+mOEzj4axPoCgFsAZtoc3IhfBq+zWICJjCCwDq9Z2mPaHHg5yznQ72/O48Yuz8yARO4wTawkTZfEcDH4essJmACfQKsFD61pcGfkqJc5ryrZ9sETGAqAtgKNoPttPHWAL7OT/hMpQreqO0EdpL0u5Ya+gmS7tn2CfT4TKAmAtgONtTGgwB8Hr7PYgKdJXCgpL+10MBPkrRjZ2fVAzeBaglgS9hU2w4E8H08GmkxgU4R2KC3CO4DLTTo70vapVMz6cGaQHMEsC1srG0HAvhCfKLFBFpPgHtfp7fMiP8oaT8/x9963fUA4wmQRwBbw+badCCAT/S6gHj9cg9qJMDinvNaZLhUP3u9K4HVqDHetQmMJkByHWyvTRUI8Y1eLDx6vv1p4QR2lXRxi4L/p/wsf+Ea6e63gQA5BLDFtlwNwEfiKy0m0BoCXLK7piVGeoakf2rNzHggJtAOAtgkttmGAwF8JT7TYgJFE1hL0uEtMcoLe/cdn9WrbHajomfEnTeB9hLANrFRbLUNBwL4TnyoxQSKI7C+pI+2xBA/IumWxc2AO2wC3SSArWKzbTgIwIfiSy0mUAyBzVtS7es3kh5bDHV31ARMYCkBbBcbLv1AgMqJ+FSLCaQnsK2kcwo3OlKQHuXV/el1zR00gUkENu7bculphfGp+FaLCaQlcD9JFxUe/H/Wyzr2wLSE3TETMIF5CGDT2HbJVwPwrfhYiwmkI7CzpEsKNjDScr5K0nrpyLpDJmACVRDAtrHxktOP42PxtRYTSEPgkZKuKDj4f6dXfexuaWi6IyZgAnUSwNax+VKvBuBr8bkWEwgnsHvB2bioO86jNuuGU3QHTMAEmiSAzWP7+IASDwTIgIjvtZhAGIEnFZzgh9XBDwkj54ZNwAQyEMAHlPqkAAmD8MEWE2icwDMKPno+TtLNGyfmBk3ABDISwBfgE0q8EsAVDHyxxQQaI/DcQo3lUkn7NkbJDZmACZREAN+AjyjxQACfbDGB2gm8tFADodzmnWqn4wZMwARKJoCPKLVcOb7ZYgK1EaD8ZmlHx1wie42kdWqj4h2bgAm0iQC+Ap9R4gJBfLTFBConUGLwpyjIwysn4R2agAl0gQC+o8TCQj4I6IJ2NjjGEi/785zvPzTIyE2ZgAm0jwA+pMScAb4d0D5dDBlRiQv+3uWMfiG64kZNoI0EyCCITynt9qcXBrZRGxscE4+XlKT0V/ae6f23Bvm4KRMwge4QwLfgY0ryiX5EsDv6WelISTBR0iKYcyXdq1IC3pkJmIAJrEkAH4OvKeUgAB/uZEFrzqHfTSBAikmyTJWi5CdK2nTCmPy1CZiACVRBAF+DzynFP+LLnTa4ipnvwD4oMkGe6VKU+9W9Cl9rd2BePEQTMIE8BPA5+J5S/CQ+3QWE8uhPyp5QZrKUqn6U9PzXlBTdKRMwga4QwAeVUl4Y3+5Swl3RzBnHeT9J1Jou4Yj2L5IeOuP4vLkJmIAJ1EEAX4RPKsF34uPx9RYTWE1gW0kXFaLA5/UKd2y/uud+YQI3ENhE0n0l/UvvKtYL+5dn3yrpvf1CL5/vJYX6hqQz+ou4SPDCZVH+eM3CLr5jG+7vUhyG37IPLvWyT/ZNG7RlMYGlBPBJ+KYSDgLw9fh8iwlo896l9HMKUdzvStrSc9ZZAqRovbOkx/auVj1P0tGSTpH0hwD9pU3apg/0hT7RN6ec7qx6rvJN+KgSDgLw+fh+S4cJrC/pm4Uo7GclbdThueri0LeQtHc/CcuZhdxr5X4wfSVxDH1nDJbuEMBH4atKOAjA9xMDLB0ksJakjxaiqEf1LsPeqINz1LUhU5d9t94jnW+T9JNCdHMaR89YGBNjY4yWdhPAV+GzptGN6G2IAcQCS8cIHF6Agl4v6eCOzUuXhsvZx6MkvaF3CZ1LpyUlnprXcTNGxsqYGbvPwNqr8fgufNi8utLU74gFlg4R2K8ApcRROq1v+5SSs40HS3q3pIsL0MO6nTAMYAETn4m1T9/xYSUc2BITLB0gsGsBWf7IXMX9U0t7CLBA7lWSfuWgP/aMEDYwgpWlPQTwZdkzq9I/YoOlxQTuWsBZ11WSHt/iOejS0EiZun8vA9m3HPTHBv1xVxhgBjunuG6HxeDT8G3j5jvD51yNIkZYWkiA1cjZn1O9vPdUwiNayL5rQyLb2CcKSymdwQGP6gN5CmDpDG7lWxG+DR83ap6zfEaM8JMr5evaGiPYQNLpyRWPDFV2cmtMW3FvHi7pq8n1LIujnacfsIWxpVwC+LjsGVeJFcQMS0sIfCC5U/6z01MWrWmPk/Tt5Do2T8DN+htYw9xSJgFS8eLzsuoX/SJmWFpA4MDkinaBpHu0gHPXhkA1tD17z7b/MLl+ZXayi/YN9syBq2GWZ334PHzfojpQ5+8PKA+re7yUwE7Js6dhAHdZ2mG/Tk+AJCfkxP9pcudVp2PMtm/mgjlxsqz05rNGB/F9mQ8CyGpJDLEUSICFHL9L7KS5BOYz/7IUa5d+mttsAdD9ueFMkhTEzJGlHAL4wMy3A4ghXhRYjj6t6ikFSU5NHPxdkrIshaIA0wcT65MPANa8lMxcuWhWOTaWvRQ7scRFrsrRJx2R2FnzGIxX+5ehTFxS/p8F5I7wAcCaBwDw4Jlu5s63BcqwNXxi5kcEiSmWAgjslTj4kwjDz/kXoESSdpT0/cS65KC/POiPYsIcMpeW/ATwjZmTBRFbLIkJbC/p0qROm1STzvCXWHn6Xdusn5u+hCImowKeP1t+YMBcUm+AubXkJoCPzJo2mNhCjLEkJLBJL3/+WUmD/3XO7Z9QY5Z3aR9JFybVIQf25YF9VibMLXNsyU2A2gH4zFnnt4ntiTHEGksyAp9MqjCcfbiqXzJlGeoOWb/elVR/mnBqXWuDuXamtyEjSPYWn5n1KhyxxpKIAEVDsjoxamJb8hLYTtIZifUnq16X3i/mnLm35CWA78yqZ8QcSwIC2yZePXpUAj7uwngC/yrpssROJqvza0u/mHt0wJKXAD40o77xxAKxxxJIYF1J30mqIJ/1I0iBmrFy0xtKem9Svcno7NreJ3QBnbDkI8BjnPjSjDpI7CEGWYIIHJZUMb4raaMgJm52ZQKs4v1JUr3J6OS60id0wiu8V7adqG/xpfjUjLpIDLIEEHigpGsTKgX1pJ2FLEAhpmjySYlvF2V0bl3rE5d10RFLPgL4VHxrNp0kBhGLLA0S2FjSrxIqw198FtGgFszW1AsT6ks2Z+b+3BBg0BVLPgJcocHHZtNTYhExydIQgfclVAIqRz20ofG7mekJrNUzzsypobM5M/fnhgCDzqA7llwE8LH42mx6SkyyNEDgCQknH2X0auIGJn/GJlig84Gk+pLNgbk/y4MKuuNFXjMaXQOb42sz6iuxyVIjgVslzdT26hrH7F3PR4BV3Z9L6igyOi/3aXRQQYf8hMB8Nljnr/C52XSWTJPEKEsNBLgc94WEk36ipLVrGK93OT8Bcr5/K6GuZHNY7s90QQRdch2B+e2xjl/ic/G92XSYGOVbRzXM+DMTTva5kjatYaze5fwEbivppwl1pSlHRcESHpn6UC+V6sv6aaj3lPQoSTtJupukrfsB7caS+CO48RnfsQ3b8hvSsbIP9sU+sxbaaoItOoVuWfIQwPfig5uY/1naIFZZKiSwVcKa7FdKuleFY/SuFiewjaTfJnQIsziPabclT/oPesH7SEnPlvSwXsW7Wy+OcOIeaIO2aJO26UPWnO3Tspx2O3QLHbPkIYAPxhdPO4dNbHexJGKWpSICH082wSiRC/xUNLkV7YZ7bxmfE67S4Zwp6e292gV7JLvyxJkYfaJv9LHKMWfbFzrm+7wVGW1Fu8EXZ9MTYpalAgLUh842uVQTs+QhcDNJP06oJ4vq7RW9M84P90vYlpRcir5Sdpe+M4ZFOWT7PbqGzlnyEMhYzZPYZVmAAHWXz0/mQMj/vN4CY/JPqyVAWdevJdORRQIWl9O/ImnfliQXIUEKY2FMbbpVgM65pHC1trzI3vDJ2erCELuIYZY5CWSrBMVjHv8w51j8s+oJUCjkMy0J/j+X9BJJt6seU5o9MjbGyFgXOUjK8lt0Dx205CCAb8ZHZ9EP+uGKsHPqBquRM50xXCfp4XOOxT+rh8AxyYx9Hsfzxd7Z8UPqwZN6r4yZsc/DLNNv0EFLHgL4aHx1Fh0hhhHLLDMQ4NGkbIuJXjND/71p/QRel8jI53E2nD3er35M6VuAQelXcdBFSx4C+Op5bLKu3xDLiGmWKQm8NNkEni5pnSn77s3qJ/DcZPoxrePgzOQ4SfeoH1FxLcAENpnO3qadV7ZDJy05COCr8dmzzF/d2xLTLFMQ2E7SVYkmj+Qnd5qi396kGQKsrM10a2hax3G8JHTbsjIBGMFqWq5ZtkMnvep75blt8lt8dqbEVcQ02/8UGnBqMuNnBbMlBwEWkf05mX5MCkBkKntcDnxF9QJmGbO8rTTf6GabF3EWpUD9p09Wmq+mvyO2WVYg8MRkzp1LkpYcBKjKVlJ+/6t7leS4F+lHxebXH9jBEJZNO+t520NHXUFw/jmv+pf48Hnnso7fEeMsIwisnyyT228k3XxEP/1RDIE3JjPklZzDlyVtG4Opla3CEqYrMc/0HbpqyUEAH44vz6IfZJIk1lmGCBySaJJYiNTFR7OGpiTN28cUct+fe45PSUOtfR2Bbab7uuOCCusB0FlLDgL48kyLS4l1liUESB16SaIDgMOX9M0vYwncJmFyj1GO/4cuFNOIolCMB9aj5iDTZySkQXctOQjg07PoB7GupNTetc/gexJNDukkfQ+v9imfqgGyrJWQ5vedvqw31XxWtRGXUGGexaGP6we660yBVc36YvvBp2dKFUzMs0jaIdHlmb/1a6J7YnIQyJbQY9jR/1XSXjlQdbIXsGcOhucl03t02JKDwN0k4eMz6Ae3JIh9nZeTk0wISvGqzs9GHgD/lPy+//cl3TEPrs72hDlgLjI49VF9YD0AumzJQQAfP2qeIj4j9nVadks0GT9zlb80ukhlr18k0o1h5/AFSTdJQ8sdYS6Yk+F5yvIeXXYF0Rx6yjzg67PoBjGwk0Ju5F8mmQiO0h/YyVnIOeiXJdGLUU6CGvdeI5JPb5gT5mbUnGX4DJ225CCAr8fnZ9ALYmAn6wQ8P8kEoAQu2ZjDMOnFHSRdmUg3ljqJf5e0Vh5U7skQAeaGOVo6Z1leo9PotiUHgUyl5omFnZJNJV2cxFBJErFxp+jnHux/JdGL4cDhZ3dz683S3mXKKbJUj9BtSw4C+PwsCYKIhcTEzshhiZz8YztDPf9Ad0+kFwPHzWrd/fKjcw+HCDBnmZK/DPQJHbfkIIDvH8xL9H9iYieEI50sSX8+0gniZQxyo0RH5EudwbPKwOdejiDA3C2dywyvOetE1y05CBADMugFMbETVwGyZGQiU9ctc+ige9ErmvP6JIa41Bm83DNTPAHmcOmcZniNrltyECAGEAsy6EXrM9BuliiXt8/schggvdg+UYKOgSN4Rx487smCBJjLwbxm+E8yGnTekoNAlitF1LkgRrZWXpvEEM9wis5UOvalJHoxCA4f6yWFWjsVIXdmEQLMJXM6mN8M/9F5Sw4CpGsmJmTQC2JkK+UWic7+nZkrj4rxTG4Gwxv0gbKzTtqSRz+q6glzmq2ksHOPVDW7i++HmDDwAZH/uQpArGydZLnH+6nWkS17QCcmMTyMngxhm5SN071fgQBzmykLHLpvyUOA2BAZ/Adtt26NyOaSLksA92rnb89jbZLuk0AnBkZ3hQtBpdKNujpDQRjmejDv0f+xAUsOAtSVIEZE6wSxkpjZGnlDAqhMauuOrArXkE8n0Qt042mFs3T3pyfAXEc7+UH72IAlD4EsV6qJma0QHrO4PIHB/dGXd1PpE2diWfJxfyAVGXemCQLM+SAIR/7HBrAFSw4CZAgkVkTqBG0TM1vxmHqWs39nc8thYINe/GcCI8PQuCfsyn6DWenOf+Y8y3oAbMGShwCxIvoAgPaLvwrA0dRfE8CkXrgf68pjYNsmSdPq+/55dCKiJ1nWA5CyGJuw5CBArCBmRB8EEDuLrlPz3AQQmcRdcuiVe9En8P4kenGgZ6TzBNCBaEdP+9iEJQ8BYkYGvSCGFikkVzg3AcSTiqTX3k7fXtI1CfTie74q1F4lm2FknO2hC9HOHpvANix5CBA7ovWCGEosLU72TACPyduxOHLt7vBrEugFC6/u327MHt0MBNCFDAtSsQ1LHgLEjugDANonlhYn30wA74TiqLW7w2tJ+nUCvXhXuzF7dHMQQCeinT22gY1Y8hAghkTrBbG0KMlw5MQR/T2Lotb+zma4r0blr1YX3Gi/GtUyQnQiQ1U4r1eqZXrn3ikxJMPVoaKuZB+X4KjpE3NPuX9YF4FjEuiFE/7UNbvl7zdDgiBsxJKLALEk+ioAMbUI2VrStcHAeKzmrkXQ6k4nN5B0SbBefNuXWLujcHOMlMvv6Eiks8dGsBVLHgLEEmJKpF4QU4mt6eXNwaCYpA+lp9S9Du6TQC8e2T3sHvGMBNCRSEdP29iKJRcBYkq0XhBbUwvVtqLP8jhSunNqSt3s3OeDDeg73cTuUc9BAF2JdPbYiiUXAWJK9JVtYmvqaqXPCzYcjNb30HIZDr3ZMoHx7J4Pi3uUlAC6EnkAQKDBZiy5CGRYw0SMTSu/DDYc7tNQ0tGSi0D0geFPfO8/l0Ik7w1rAdCZyIOA1I4++fzV1T1iS/RaAGJsStk52GAwVq/8T6ka+kGwbvyPnFjcq8QE0JnIAwBsxpKPQIYnAoi16SRDfvcHpKPiDm0V7Eg5Yi4ylaZVJ5QAOhN9RRPbseQiQIyJPDCk7XR1I1iYQP3iSDDFZUvKpde19eZJwXrxzNpG5h23nQC6E+nTsB1LPgLRWW6JtakWAz492FAw0j3y6Yl7JOm9gbpBud9UhmKNKIoAuoMORR0EYDuWfASINVE6MWiXmJtGTgsGcrYru6XRheGORFaE/PBwZ/zeBGYkgA4NnG7T/7EdSz4CVJAk5jStD0vbI+amkO2DQQDlgBQk3IlhApQ3Xaq0Tb9+1HCH/N4EZiQQnRjIJYJnnLCGNifmNO3Phtsj9obLEcEgLpK0YTgFd2AUgf0CdeP3Xvw3akr82YwEWAyILg0736beY0OWfASIOcSepvRgVDvE3lBZV9KfgiG8OpSAG1+JQGT6zDeu1DF/ZwIzEECXRjngJj5zWvMZJqrhTYk9TejAuDaIvcTgMInOmHWVpC3CRu+GJxGIPHO626TO+XsTmJIAujTOCdf9OTZkyUmA2EMMqlsHVtp/aIbTE4IHf2xOvXCvJG0XqBs/9AyYQMUE0KmVHHGd32FLlpwEiEF1zv2kfRODQ4QkFdHFER4cMnI3Og2BZwcaxuum6aC3MYEZCKBTk5xxXd9jS5acBIhBdc37NPslBockjDoweOBn5dQH96pP4P8E6ofL/loNqyYQ+TQAtmTJS4BYNE2wrmsbYnHjckrwoA9ufMRucBYC3wrSj79J2miWjnpbE5iCADqFbtXlxFfaL7ZkyUuAWLTS/NX9HbG4UWHxQ2RVpKslbd7oiN3YrAT+HGQUX5u1o97eBKYkgG7V7cxH7R9bsuQlQCwiJo2auyY+IxY3uhh+/8DBAvS4vLrgnvUPzppQ/FFtvMozYAI1EUC3RulcE5/5hKemSa1ot8SkJvRgXBvE5Mbk5ODBPqKxkbqheQg8KFA/dpmnw/6NCUxBAN0a54Dr/hybsuQlQEyqWwdW2j8xuRHqe0kkAAAgAElEQVThSDRy9T/5sddqZKRuZF4CURkAr5S03ryd9u9MYAIBdAsdW8kR1/WdMwJOmJzgr4lJkXVPiMmNXCWKLpF5aPBEu/nJBN4Q5CTTFMiYjMhbFEogqvAZNmXJTYDYVNcB4DT7baT0+UmBg+Qo59a5dcC9k3R8kI74cSmrX90Eoh5vxaYsuQkQmyKvjhOba5VbSLomyLlzBPS5WkfnnVdFIOq52EOqGoD3YwJjCKBj05yNVb2N856MmZBkHxOjqp77afdHbCZG1yZPCxwcEJ5c28i846oIrBP4vHRoXuyqAHo/qQlE1T8hBwG2ZclNgBg1bcCuYztidG1yYuDgKLqwSW0j846rInDnQB1JUR+7KpDeT0oC6FgdjnuafWJbltwEiFGRBYKI0bXIzYIv/3+6llF5p1UTeECQg+Te242rHoz3ZwJDBNCxqPu82JYlPwFi1TQHdHVsw20AYnXlskfgoAC1T+Uj8g7rIBD1POwv6xiM92kCIwiga3U470n7dP6TEZOR8CNi1aS5rPN7YnXlcnTgoK6QdJPKR+Qd1kHgn4P0JKwsZh0Qvc/UBKLKoD8hNRV3bkCAWEXMqjPIr7RvYnXlEpnk4GOVj8Y7rIvAvkGKf0xdA/J+TWCIALq2kgOu6ztsy1IGgY8H6Qi6R6yuVLYJHAwD2rPS0XhndRL4X0G68u91Dsr7NoElBNC1uoL8SvvFtixlECBmrTSXdX9HzK5MqDdcd4fH7f8ySRtWNhLvqG4CLwnSlcPqHpj3bwJ9AujaOH9V5+fYlqUMAsQsYled+rDSvonZlclnAwfykcpG4R01QeB1QbryoiYG5zZMoFcPAF1byfnW9R22ZSmHALGrLl2YtF9idiWyrqRLAweyWyWj8E6aInBUkK48u6kBup3OE0DXJjngOr7HtizlECB21aEH0+yTmE3sXlgiS2BSecuX/xeewkZ3cGyQ0v9ro6N0Y10mgK5N44Sr3gbbspRDgNgVVT0S3aukNPrhQcrOAL5Qzly7p30CnwrSF18psgo2RSDqzA7bspRFgBhW9YHgtPsjdi8s3wscwEEL9947aJpAVLXIXZseqNvrLAF0bVonXOV2tVd76+yM1jfw5wTpCnpH7F5INpd0feAAKn2UYSES/vG0BKIWjP63aTvo7UxgQQLoWpWBfdp9Vbawa8Hx++fTE4h8hJ7YTQyfW/YOUnQM4py5e+0fRhL4QJDO7BU5aLfdKQLo2rRBu8rtsC1LeQSIZVXqwSz7IobPLUcGdvztc/faP4wk8LYgnam1DGYkULedjkBUWXRsy1IeAWLZLEG7ym2J4XNL5P3/x8zda/8wksCrgpT9uZGDdtudIoCuVemkp90XtmUpjwCxbNo5rnq7udcBbBRY/teP/5Wn5IMePy9I2V826ID/m0DNBNC1qh31NPvDtizlEYh8HJDywMTymSXy+X8//jfzdKX5QVQxoDemIeCOtJ0AujZNwK56GxcDKlezIh8HnCsfwIuDlByj8eN/5Sr67kF68x/lInPPCyOArlUd3KfZH7ZlKZNA5OOAxPKZJarmNYaw7cy99Q+yEHhokHP8cBYA7kfrCaBr0wTsqrfBtixlEiCmVa0P0+6PWD6TrCXpoqAOXzBTT71xNgI7BOnNadlAuD+tJYCuTet8q9wO27KUS4DYVqU+TLsvYjkxfWqJPFr55NS99IYZCWwdpOR/yQjDfWolAXRtWudb5XbYlqVcAsS2KvVhln3NdFU9aiEXA3p+ufPrnku6WaCS39IzYAI1E0DHZnG8VW6LbVnKJUBsq1IfZtnXTAtI3x3Y0fuXO7/uef9S03VB+rOzZ8AEaiaAjs3ieKvaFpua6TJuzRy8+9kJENuq0odZ90NMn1rODOroFVXVMJ56pN6wDgJRl0ifXsdgvE8TWEIAHZvV+VaxvW9xLZmEQl+uK4kYV4U+zLoPYvpUctPAAkCnTtVDb5SdwM+DlPxN2cG4f8UTQMdmdb5VbI9NWconQIyrQh9m3QeFgYjtE+XBQR1kQK+Z2DtvUAKBjwfp0MyPu5QA031MRSDq8WhsylI+AWLcrMG7qu2J7RNl/8AOPnpi77xBCQReEqRD55UAx30smgA6VpVDnmU/2JSlfALEuFnmvcptie0T5aigDnKJwqtcJ05PERtEFr+4XRGE3MkSCaBbVTrkWfbl4mglaszyPhPjiHWzzH1V2xLbJ8opQZ378cSeeYNSCNwqSIcwlJkedykFqPuZgkDk49HYlKUdBIh1VQX1WfZDbJ8oFwZ17uiJPfMGJRH4U5AeHVsSJPe1KALo1iwOt6ptsSVLewgQ66rSjVn2Q2xfUbYM6hiDmOr+xIq995eZCERVvzo/EwT3pVUE0K1ZHG5V27o6aqvUaFWsq0o3Zt0PMX6s7Bqk4AzigWN75S9KJPD6QF3apkRg7nNqAujUrM62qu2xJUt7CBDrqtKNWfdDjB8rlOGddYdVbb/J2F75ixIJ7B2oS88sEZj7nJoAOlWVr5t1P9iSpT0EiHWz6kBV2xPjx8p7gjp27tge+YtSCWwXpEsYykdLheZ+pyWATlXlhGfdD7ZkaRcBYt6selDF9sT4sRJV5vL4sT3yF6USWFvS5UFKfqmkDUsF536nI4AuoVNVOOBZ94ENYUuWdhEg5s2qC1VsP7ZsOoUmopT81e2aW4+mT+BbQUqOoTzJs2ACFRFAl6pwvvPsAxuytI8AMW8efVj0N8T4kUWlouq4M6A92ze/HpGkdwQpOTrlldNWwaoIRD3Rgh5jQ5b2ESDmLRrM5/09sX6ZPCKwQ9su640/aAOB/QJ1ivKpTp7SBi2KHQM6FFXeGgePDVnaR4CYN28AX/R3xPplElXmkvKIN1rWG3/QBgJbBTvPF7QBoscQSgAdWtThzvt7DjxWfG47lIwbX4QAMS+qNPDIsulRVYq+swhF/zY9ga8FOlCnl06vHuk7GJW2lYMGbMfSXgLEvnkPDhf53ciqux8M6swx7Z1fj0xSZG4JjOSengUTmJMAurOIo130t8+Zs9/+WRkEiH2L6sg8vyfWL5OoMzWXuVw2Fa364LaB1a8wjve2iqYH0yQBdGceB1vFb6gYh+1Y2ksgqmz6yCtLvw1Sdj+u1V4FH4zs20G6hSP+mySXCB7MhP9PSwCdQXeqCObz7GPs89rTDsDbpScQ9XgpsX4NWTdwsdZOa/TEb9pIIHIhFc53qjrYbQTvMc1NAJ2ZJ3BX9ZuD5+65f1gKAWJfVfoyy35YXErMXy23D+oInWaluKXdBO4QqF/o2FXWs3YrWMWjwyehM7M41aq3xSdb2k0APatab6bd3xr6tUtQR64cl5Wo3fPeydH9IEjHBgZxRCepe9DzEEBXBnoT8f9783TavymOABn5iIEROkbMXy1PDerEWat74BdtJxC14GVgXJdJukXbIXt8CxNAR9CVgd5E/D9k4VF4B6UQIAZG6Bgxf7W8PKgTJ67ugV+0nUBkdcCBgY18/rXt4D2+mQhE5UMZ6Cj/t5mpx964ZALEwKVz39RrYv5qiXoe8Z2re+AXXSDwkyBlHxgVmbdG5sHuAnyPcSIBdCMqO9tAR8+Y2Etv0CYCxMDB3Df5f438O18K6sSL2jSTHstEAq8M0rOlhvWZib30Bl0lgG4s1ZWI1y/rKvyOjpsYGKFnxPzV8qOgTuy1ugd+0QUCdwp83HSpkT22C7A9xpkIoBNLdSTi9bWS1lidPdMIvHGJBIiBEbpGzF8t5wd14n6re+AXXSHwsSBdW2pkv5K0QVeAe5wTCaAL6MRSHYl4/ZGJPfUGbSNADIzQNWL+aol6FOE2q3vgF10hcO8ghR82sld1BbjHOZEAujCsHxHvd5jYU2/QNgLEwAhdI+avkg2DOsCgfRY2mIVu/T8pUOcGxkaiF25JWLpNAB2ITvqDTvqJqG7qITFw4JOa/k/sX1VwoumGae/ybs63Ry1p10ClX6rrp0qiLrelmwSYe3RgqU5EvV4jMUs3p6OzoyYWRujdqmJTXHaKaPw3nZ1uDxwC3w3Su2FdP8zT0VkCzP2wPkS8p1iWpbsEiIURerfqltPDghr/fnfn2yOXtGeQ3g0bGoUxHuEZ6RwB5py5H9aHiPe7d46+B7yUALEwQu+I/Yp6DIH7wJbuElhb0i+DFH/Y2C6QdKvuTkXnRs5cM+fDehDxnlSw5IS3dJdA1JqoVY/h7x9kCH7kpbsKPxj5M4J0b5SjP8XrAQbT0ur/3PdnrkfpQMRn/9Zq2h7cNASIhRG6R+zXoUGNHzkNGW/TagLrSfpDkP6NMjivB2i1uq0aXJb7/ugfz2LfuP3IPcIJBIiFo/xR3Z8R+/WWoMZfMQGKv+4GgahUmKOMi3vCT+gG9k6OkrnNct8f/Xt+J2fBgx4mQCwc5Y/q/ozYr2ODGj9wmILfd5LAJpIuDtLBUQbGM+EP6eRMtHvQzGmG5/0HOvdnSTdpN3KPbkoCxMKBXjT5n9iv44Ma32dKON6s/QQODtLBccbGAcnd24+9MyNkLjMdZKJ3B3WGvgc6iQCxcJwvqvNzYv+qDFR1NjJu34+aRMXfd4bAOpJ+GGQE4/Tz9y4d3Ar9o8QvczluniM+/54XnLZCt6oaBLEwQg9XZZ88Oajxh1ZFz/tpBYH7J7s/i0H+XNItWkG3m4Ng7pjDCOc6rk3WINynm9PhUY8hQCwcpy91fk7s19eDGt9pDAx/3F0CRwXp4kpGRpa2jbs7JcWOnDlj7laa24jv3lYsUXe8LgLEwghdJPbr9KDGfRRclzqVu18WBGa7XIthcsl2i3Kxdq7nzBVzFuFUV2rzd5LQcYsJLCVALFxJb+r6jtivHwU17kVWS1XArwcEsqQIHja6syXdcdBJ/09LgDlirobnL8P7f05LzR2LJEAsjNBPYr9+FtT4dpHE3XZqAicE6eQkIyR97L1Sk+t255ibLCl+h3UJnbaYwCgCxMJhfWniPbFf5wQ1fodRJPyZCUi6Xb9cdBNGMGsbl/TLGXuichGgxDRzM+t8NrE95V55GsFiAqMIEAub0MPhNoj9+m1Q47ceRcKfmUCfwAuC9HLYSEa9v1rS//BMpSHAXDAno+Yqw2cvTEPKHclIgFgYoafEfv0pqPHNM86E+5SGQMbcAMNG+nZJ1DOwxBCAPXMwPC+Z3p8hCV22mMA4AsTCCJ0l9odlyLrpOBr+3AT6BDLmBhg21O96cWCIvrLYD/bD85Hp/fWSHhBCx42WRIBYGKG3ZMfUFUGNb1DSDLmvYQReHqSfsxgkhuQV3s2pCKyzpfYdpS+vbA6JWyqYALFwlP7U/RmxX9cGNU5dbosJTCKwlqRPB+norAboWwKTZnOx70u45D/Qmc9IQnctJjCJALFwoDdN/if2hx0ArDuJir83gT4Bsrr9NMhIZjVIahrs6JmrnABMs9WLGKcbZznhT+Xz3+YdEgvH6VKdn686AIi6BXDzNs+ox1Y5gTtL+kuQocxqhNz7fbekzSqn0L0dwhCWMJ11HiK2/6sk5zjpnp4uMmJiYYSurroFEHUv7baLEPNvO0ng0QkLBq1kuBf1Uhs/w5eC59JVLp/DDoYrMc70HQcpj5trtP5RlwkQCyP0eNUiwKjHAO/S5Rn32OcmcEiQsSxioBSluffcI+7eD2GVsZDPJB14WfemyiOugACxcJJu1fH9qscAoxIB3bcCcN5FNwl8LMhgFjFCysB+WNJduzllU40aNjCC1SKsI37LQlUv+ptqmr3REAFiYYTOrkoEFJUKmBrIFhOYh8BGkkiwEmE0i7bJZeJP+orAGtPOGT9MSrnPP6wDLFB1yeg1ptRvZiBALBzWqSber0oFHFUM6LEzAPKmJjBMgPzZJd0fHmXQn5NELfCuCmOHwSg2pXzGfdRtujqBHnclBIiFEfq+qhhQVDngvStB5510mcDDAx9jrdJgvyJpH0ldSI7FGBkrY66SYcS+uFXxmC4boMdeCQFiYYT+rioHfHpQ40+rBJ130nUCTyn0nvEog+cRsvf2guNDWnY/mXvjjImxMcZRYy/tM25X8JSCxQQWJUAsjNB/Yr++HtT4QYtS8+9NoE+AanBRGS3rMtzzekVkDiv88jKXxhkDY6mLU8R+OfPf19ZnAhURIBZG6DGxXycHNX5oRfC8GxOAwJ6SrgnS5bqNl8xyR0l6gqRNE083faOP9JU+180lYv8caP5L4jlw18ojQCyM0GViv04Mavx15c2Te5ycwG7J68JXYeScfX5P0hskPUrSTQLnhLbpA32hTyU+vjfLnHCA+cRA3m66nQSIhbPoYVXbEvt1fFDjR7ZzLj2qYAKsqL0qSKerMsxZ9sO9aJ7n/bKkd/Sq5HE5kYyJlMutouAW+2Bf7JN90wZt0Wapj+3Nwnew7d96j57uEazbbr6dBIiFAz1r8j+xX8cGNf6+ds6lR5WAwCMlXRmk100a8KS2rpb0m97tkTN7Z+qn9R45/KKkT0j6P706BTidw/t/vOYzvmMbtuU3/JZ9TGqn7d9zQOkUvwkMu6VdIBZG2BCxX28JapxsbhYTqIvAP0m6PEi3I4zZbdbjRDmQ5DaHxQTqIhCV2ZTYr6gFCJ+vi6b3awJ9AjtLutQHASFnF204IOEAcldbkwnUTIBYGGEvqxbi7x/U+NdqhurdmwAEyDbXlmfPI5xEV9u8rJ+7wFZkAnUTIBZG2BmxX3sFNf79uql6/ybQJ3D33qNbZwfpeYRhu83FHOq5rtVg39EgAWJhhM0S+/WwoMZ/0SBgN2UCN5VExbYIQ3Ob5XA/QdLNbS4m0CABYmGEjyD2a4egxn/fIGA3ZQIDAi9sYdbACOfRtjZJ8PPilqVgHui8/+cmQCyMsCdiv24b1PgluefEvWsxAfLS/zFI7yMM3W2u7GAvkMRTIxYTiCBALIywUWK/NgxqnAFT191iAhEEtuo5/a8G6n6EwbvN5Y6WBVi3ilBAt2kC/RgYZZfE/lUSlTSFxVkWE4gisE4vle6bfBAQcvYR5fSWtntEr1gROmAxgSgCxMClOtnUa2L+ajk/qBO7r+6BX5hAHAFSvPpRwRhH1JTDW9oOc+20vnH25pb/TgA9XKqbTb0m5q+WHwV14uDVPfALE4glcOdeUDgjyA6aMnq3I+HrmGuLCWQg8IIgn4MdrJYvBXXinat74BcmEEeAMrYcjP4qyA4cmJs7C2LxJ9XXfBAQZ29u+e8Ejg7yOcT81XJMUCdOWt0DvzCB5gncU9J7JF0RpP8O/M0F/lGsvyLpSb0DgvWbVz23aAKrCFBZc5Ru1v0ZMX+1vDyoE5xxWUygSQLrStpH0jeCdL5uw/b+Z3eof5b0NklelNykJbotCPw6yA8R81fLU4M6QfINHLLFBOomwKNer5T0hyBdd2CePTBHMPu2pKfYL9Vtjt6/pPUkXRfkj4j5q2WXoE5g4L4Xt3oa/KIGAg+W9FFJ1wTqeEQgc5uLHXCwSvr5kjauQSe9SxOAwHaBPomYv1puH9gR19pePQ1+UREBElw8Qzes+HYgXCwQdp3fxf1FgySOsphAlQQeGxh3ifmrhcvwUZciDljdC78wgcUIoNRvlvSXQMPqesBs6/iv7i8Y5azNYgJVEHhOkJ8i1i+79f7boM7gsC0msAiBzSUd2Svm8rcgHW5r0PO4ll89ub5fVfIeiyisf2sCfZ8VYWPE+mVCTuyIznxmWU/8gQlMR4BL/YdKiiqmEWEvbjPGTw1z50Dgw5LuOJ2qeisTWEbg80Exl1i/TD4Y1Jkzl/XEH5jAygRuJOnpvfv8UWU0h4OB3+cIyhHzwFWnoyRtubLK+lsTWEbgF0Exl1i/TF4T1BmKEqy1rDf+wARGE/jvkn4apKsRAcZtlnFwcXnvvio+9Kaj1dafmsAaBDiJibpliZ4uE86oopzNrZf1xh+YwJoEdnT53jD7jPILJbZ7kSTyuzu74Jr263drErhDYLwl1i+TRwR26CHLeuMPTOAGAuSJ+HigbpYYhNznuJOZAXuynD7ORmwCYwg8PNCnEeuXydaBHfq3Zb3xB10ncMv+vVUn8IkPZoOg5v+zz8VnJXG2ZzGBpQT2D4y3xPplwn34S4M6NfKexLIe+oMuENhI0ssCddFBbvYgZ2YrM2OdE7nXfVugCx5sujEeERRrifFj19ydFtQpUrVaTIBLpl7Zv3IwcbAtl885kh5jMzeBfi6JCFsmxo8VSqNGdOpHY3vkL7pAYBNJ7w3SvQh9d5sxfiYL9+MljbwM2wVj9xhXEfh5kL8jxo+Vg4I6RWpCgoClewQeKum8IL3LEhDcj+4dEHAp9lndM3ePuJcBcLPebU4SSUXYPTF+rOwa1ClAjFyZOLan/qJ0AhtIemugIUQYn9uMcXqZuZ8k6R9KN2b3fyYC5DKJ0kli/Fghm1VUx141tlf+om0E7ifprEBdi9LxutvlrOKy3pnlHyWdLemHkkj7ScrRj0l6n6S3STq8l4TkxZL+V//vJb3a5K+V9HZJ75f0CUlflPQtST/uX6Hh+XYK4tQ9hi7u/6+S9mubkXs8Ywm8PtCOJmasvDCocyePxeUv2kKAClSv7uXvvzZIx0oPLgT430jCVo7uJ5zZrZcn4R/7t9DWbkBRbty/hEkOfJ5lpprnv/cPMjjo8NzOf5D0OUlOitaAEgc38fUg/0dsnyinBHWOVJrrTOydNyiVAEHq+0G6VVLgHwT5L/eD/MG9M3mC/F0lcdsku3CAQMlcLnPSdw5UvtKr3fA7z/1UV08oZf3k7JPs/s1NYD1JVwXZArF9olDYIsphcmnY0i4CnJWSGjVK6aN0edp2yQfOpfY39DPHbdqu6V9jNOR4uFf/qgG3JP4U6GumnZ+o7ch+6YXRa6hPK948MFDnie0TJTJD0XMn9s4blESAy8RRl7uiHPekdln9zcIvkh3xBEQJZ/V16tz2vQOBZ0s6TtIFgc5x0rxFfM8tlR3qhO99N07ghYE6TmyfKA8O7CCLjyztIMAjTixIi3CcmdrkLPeTkji4va9vc01U7rv0DgRwVCQHYzFjprmM6AtZBJ8xkZo3KIXAZwJ1mtg+UShnGfWMIgZvKZvAhv2AF+Ess7RJXgMu6d+77KlM0XvWE3AwyS2DKwKdZ7RuUcOdWyiWcgmQgjdqkT0xfepS1WcGGhrV3yxlEmAF8/cCdSfSSf+2d8/2zb3V8Pcvc+qK6PXGkp7Sv4VC8rDI+Y5o+6e9WyXcMrGUSYCD2Qi9oU1i+tTy7sCOPnXqXnrDTAQ42+3aSu8/9B6JO1LSg1YqsJFpklrUl60kPa+DT5ZwW+1fWzSPXRrK0wLjKjF9atk3sKMr5iqeegTesEkCe/RW+vMYZ9TRbZPtck//nZJ2kdTEc/dNzmOpbXFWTEXRLqWUppqc9a8sjSURV5O+amlbxPSpZdvAjpIhzlIOgUMC14wsVfA6X3P/jLruj+wlMrpROVPTuZ5yj5WFTuQe+HOgD6tTF5fumwVlN+ncLJc74F8G6iQxfWrBkEj9uVTZmnx9i6l76g2jCJDwhbSxTepF021xVeMdkraJgux25yaAfpJAiSRETetNk+39QNJt5qbkHzZF4JaBekgsJ6bPJCcEdvjxM/XUGzdNgAO0rwbqR90O9vf9XPltTsrTtM5Etrdjv/561NNNTejrfSIBu+2JBHYP9JfE8pmFYiF1K+64/b9x5t76B00R4DntcwJ1Y5zOVPE5Z1MssKJmgaV9BEinfKyka1qov1ytYi2OJScB1mxU4aPm2QexfGZhkdM8jVXxG1KjWvIRoPjLxYF6UYVuDe+Ds0LupZKVz9INArfrVz5sW14BdPl/d2MKixvlaYF+k1g+s5B0IupImfzoXU+ROvOE1fwD0rVG6cNw0K7iPTrGan7f369ZcRLvnvuyPD3QtoPa//ATAqm0jliGv6nCb826D3z23AmkIpO67JxqCrvbGVa9U0N+VsXLvD0pp51wqrs6PTxyiu68qGWph8kc6OqqwzMd8/4hgf6TGD63kOQkypG/au5e+4dVESCtLzXKo3Sg6na5DEfSHosJjCKwfr8w0f9tic5/ShJPQ1hiCRDLqvZl0+6PGD637B3Y8Z/N3Wv/sAoCBP+TA+d/WgWfZrtfSXpiFVC8j04QuHn/8c82pBs+sVeXAlu2xBEglk3jp+rYhhg+t2wenOSFVbuW5gngMNrw/PRfJD1f0nrNI3SLLSBAeuvIxVtVBQQe2aWOgqV5AsSwquZx1v2wKJQYvpBErgN4xUI994/nIdCG4H91r/LVW3prF/wc/zwa4N8sJUACFXK4l35b4HTbw9Jpbew1MWzWwF3V9gvd/x8QOjxwAD8ZdML/GyHAatFTAue7CsWnbOwdG6HlRrpEgINJVteXfFvgjN6TL1t0adISjJUYVoVfm2cfxO6FJTIfAIMm8YylfgKlB//z+7n66yflFrpMgIx73w506vMEgqW/ISD5ylgzGkzsWsq+6ddzPf8/jIasaJcGDuRlwx3y+8oJEPxPDZzjRQ2D7G43q5yKd2gCowlQhe/pki4s1GY4gHERodFzW+WnxK5Ffdu8vydmV5bRlEpo83Zk0d9x2cpSHwEcQal5/S/oF3ypj473bALjCWzWrzxYYo0BnvDx4tjxc1vFN8SuRePfvL8nZlcmBwYOBAAzlTKsbNTt31HJwZ97/a4a2X4dLWGEjy50keDxThZUm3oRs+YN3lX8jphdmZAutYpOzbuPQysbiXc0IMBq/68Fz+s8+kBpy30Gg/B/E0hC4NaFXkn7wDylYpMwz9wNYtY8/q2q31Se4vzcwAH9MPNMF9g37mGSJawqZWtqP//Vu+S6VYG83eVuECBt9mEFPinw9m5MT6OjJGY15ReH2yFWVy5HBw6IATp3e3VT+ubguRxW2EnvL5G0X3XD955MoFYCVM1kfcokvc70PQculmoIEKsi55ZYXblQazpyUHPVNK6cQvk7PCB4Hv9pYyEAAB96SURBVGfVoe9IonyrxQRKIrBlgam0Dy4JcOK+Eqtm9XNVbk+srlx4zCqyHOz3Kx9R93bIYqVrg5VzFkXn/iQFWiwmUCIBbrW9vLBbAr7StrimEatm8XNVbkuMru2RaApLVNnZWfflDG/zK+cOwfkcZplrsq35bGT+ufYvcxEgIcvvg33ntPZH3XrK11rmI0CMmpZ1HdsRo2sTcmLX0elp90nNbsvsBFihTKa8aTlHbkcBn0fNPkT/wgRSE7ilpC8UYoN/8m23uXWJGBXpP4nRtQnPXUfeBvhubSNr74551j9yReosxkDZTC/2bK8udn1kFBZ6ZXCAmNYef+AywnOpKzFqWsZVb0dsrj03ykmBAwTY7eealm7+iMeSeHSuakWrY38nSNqkm9PkUXeMAGmES1iL858dm5dFh0tsqsM3TrtPYnPt8szgQb6g9hG2p4GjgudqWsWlahULpiwm0BUCj5d0ZQH2eUhXJqSCcRKbpvV5dWxHbK5dNg8+ev1R7SNsRwPR6ZunUfArJO3dDtwehQnMTOBBkljzMo2tRG3DgtzHzDyybv6A2BQ1T1xRIjY3IhSSiBoo7XqV6srTfG9JVwfP0ST9YFX0PVcehr81gdYT+McCFuhe7HosE/WQmDTJ59X5PTG5Mdk/eLCfbGyk5TXEffSzg+dnkqLzRELluarLmyr32ARWEfgHSSyAnWQ3kd+fJemmnq+xBIhJkfNDTG5MtghObsHljq0bG21ZDR0XrIiTjODXku5QFlL31gRqJ0Bp4W8lt10WFHutznJVIBZFLurkNg0xuVE5JVhZ39ToaMtoLPrKzKTg/ys/X1yGIrmXIQSo0MnTMJPsKPJ7p2RfrhrEosg5IRY3LtGLzFg8s1Hjo87b4D2Sryr+haTb5MXnnplACgLr9A6S3xccUFYKZmQKvG8KUjk6QQyKXshJLG5cKMsaedkDJX1246PO2SDJfn6e2Glwf9NlfHPqjnuVk8DrEtszB/M++bpBb4hBKx0w1f0dMTjMt0ZfriKwkF2r6/KhYCVcScl/EnF/qusK4fG3gsArEtv1u1pBeLFBEHuiF28Sg8Nk9wQK+siw0edoOLo+w0rBnxTEtaemzDEN7oUJ1ELg7Ql87Dgb362WEZezU2LPODZNfU4MDpN1e5fhKRzR1GBHtfO5sNHHN8wzxCTTGcUl+jNyYm8aj8g9MIGiCbDqnpS80fY8qv3/G3n5OcGsEntGcWnqM2IvMThUjgiGcH1Hk1SsL+mnwezHKfp36qxJHartbtwEmieAk89aSZB+dfE27LaSiD3jfGATnxN7w2X7YAiA5jJZ14T8+U0o2axtnCuJ0qcWEzCB6giw6O60pDZ/UHXDLGZPGW7NEHtTSLRiXtqxLFV3Dy7LPO6ggJShaZQyhWW4EyZQHQGSBWW86neVpLtVN8z0eyIjIjFnnB9s4nNibhqhvGUTg16pjeeloVFvR7gn+O0EvIfnglrUu9Y7dO/dBDpPgFwav0lo/2dIWq8js0OsGfZ/Tb8n5qYR8s9fHgyFLHNdSFP5nGDO4xR9vzTa6I6YQLsJbCeJBXjjbDHq80PbjX3V6IgxxJooxrRLrCXmppL3B0MBTNsfS6FoSPSlp1GKT9ISiwmYQHMEyMaXzRfwRNLtm0MQ0hIxZpQPbPIzYm062TkBmK+ko1JthyjG0aSiTdMWxYe6uAq42pn13kxgdgKPTbASfdhHhCammR3hzL8gxgyPuen3xNqU8ssEcFgg10bZJwHbYUWnehmPI1pMwARiCLw6oV9o65VYYsuwD2z6PTE2rWRYHEEhjbYJCXUuSKB8S5Wd+2B+3K9tmubxlEaAe9JfTOYbKPndxloBGYo0pV7szsKES4KVkeIIdynNiif0N4PiLQ3+VL9qG+MJU+CvTSAtAdJtZ3syoG3rgvB30cXviK3pFv8NW8Wbgw8ACFTHD3eq4PcPS8BzafC/zo/7FaxN7npbCdxf0tWJfAVlg9uUE+TTCdgSW9PL1gmOlAhYD05PanIHqQ2ercwv9xwtJmAC+QgckCBILT1ZOCUforl69KAEXLn6QGwtQlgZvlQRIl6zQK10eVYCjkvnDqYclFhMwARyEvhgMp/xLzkxzdSrbyZgSkwtRnZMAIzA9YRiiC3vKIto/pCEIyy5/3SH5d30JyZgAokIbNjzez9O5Df+WHia9j2SsCSmFiUZjpq4fF7qGetLkyje4ApAG47kizIgd9YE5iSwjaS/JvIfFC4rUYgdZyXgSCwtTvZMAI7gtX9x5CRW9UY/TTEI/PznsqLFBEygHAJc/Vxqw5GvL5O0RTnoVvc0yy1YYmlxciNJlIaNVDza5hLUTQqj9+8JuA3mjef90z96Utj8ursm0ASBTI8Pv7WJAVfYRpZbsMRQYmmR8twkgewVBdEjl3aWx3mo8PeAgti5qyZgAn8ncPNE64goGXzbv3ct/auXJYldxNBiZeMk96IomlHKJagPJVE8rgCwDsFiAiZQLoEsi9jwJ+8qBCMZTjPcgmUdBzG0aHlDkoD2jgIo3jNRcY+vlnzpqYC5dhdNoCkCH0/ig7mieKemBr1AO29PwovYWbxwNEX94sE95aj/KB+rYzPLFxJwYn5I9UvpYYsJmED5BLj6+eckviX7gmIOUMhiGBWnBu0SM1tTayXLVYBPJLblTCl/903MyV0zAROYncBTEgQ1ghupxO86e/cb+0WGJHZwasXZ/2DWNpfEoyCDo5vI/1kXtZ2WhA/9WGswcf5vAibQGgInJvExn0xK9H5J+BAriZmtktcngfu1hFSpWxB5UDRom6Pz+yTk4y6ZgAksTuB2klgQPbD3yP8Z/Qy1CyKZDNomVrZOSG6TRfken4xuhkpTKN+7k3Fxd0zABKolcGCSIHdCtcNaeG+PScKFGEmsbKW8NgnknyZa4c7CxOsTcGHhX+suO7XSijwoE5ifALf3uAo6ONuM+o/P227+YVT6y7UT1U8gRrZWNkt0FeDgJJTfmcAYcQL/MwkPd8METKBeAnfvL8aLCv6DdrM8mv2cJD6Ys39iZKuFwhADBYj8f2WCxwK51HNFAh5nJLoi0mrl9+BMIAmBYxP4HR51I1thpNwxyWPqxMJSiybNNH+bJsmyBPCvS+LyT5RkSTf5kCgAbtcETCCEwNZJUo6/MGT0NzTK7ZAsC//IPEhs7IQcluDoc3D1gcs/EbJ+r1LhBQk4/GfE4N2mCZhAOIG3JPA/vwks2Z5lQSSxiJjYGeFI5+IEygd4LkNxGahpeXqC8fO86W2aHrjbMwETSEGAW5Dkmx+cDEX9jyh3S9G1LLlpiIWdOfsfaP7zEyjeQOG5DNRk8hva+lmC8b94MBn+bwIm0EkCFPwa+MGo/99omDz+98sJxj3gTSzsnNxY0i8TTcKzG5yBxyYY93mS1mtwzG7KBEwgHwHq3v8xgT+6b4NonpVgvIPgTwwkFnZSdks0ETyCwcKYJiTDwpMDmhio2zABE0hPgJOfQUCK+k8Z9CaEbIgZSv0OOBMDOy0nJ1C+wWR8qYGZuHOC8bL4cIMGxuomTMAE8hNYV9LZwX6JCny3agDVF4PHOYg1/Cf2dV52SJKUYjAxLM6rU16dQAF977/OGfa+TaA8Ak9M4JdeUTO2DAuvB3GGuivEPktvJfp7EijfYGJYFXvbmmaFxSfnBo+V8d20pvF5tyZgAmUSwDd9L9g3cRWiLsGnZ3jiYRBniHmWPoEtk92X+XxNM7NzsIGhfK2sNFXTfHm3JtAlAnsn8E91lWvHpw+Cb/R/1iAQ8yxLCBySaIJQkH2X9K2ql9FXOq6y4lU1ld6PCbSOwDqSzg/2w3XUB8CXRwf9pe0T6yxDBMiMx6NpS0FFvqY6XpWLUhhfdPIjCg9ZTMAETGAcAdYHRfrdCyWxKLEquXUCv7uUJzGOWGAZQSDDQpSlk/XZEX2c96PosV0r6Q7zdt6/MwET6AQBsgNSKG2pH2z69X+vkPQJwWMZZkccsKxA4NRkE/YvK/R1lq+iFfHDs3TW25qACXSWwHuDffBxFZF/cvA4hoM/sc0ygcB2krhXPQwv6v1FFeTLv6Wka4LHRA1wiwmYgAlMInCPYF/FFYhFn1Ri1f+fg8exNGYR04htlikIZMhPvXTyTl8wbe5BwYr4X1Mw9yYmYAImMCDwlWCftd+gI3P8J8X5d4L7vzR+8JqYZpmSALmRz0w2gYs8txn9fO1Dp+TuzUzABEwAArsH+18OQOaVY4L7Phz8iWWdzfc/7yTuJOn6ZBP5zDkGs33wGFh1SpIPiwmYgAlMS+BGwUnL8P3zJGTbP9jfDgd/xkEss8xB4Khkk3m1pFkTVUTnNyD1sMUETMAEZiUQXbL9BTN2mEBLTYHhIBz5nhhmmZPAJgkSUwwrz+9mTKbz1WCF3GZO9v6ZCZhAtwncTNJlgf6LqqnTylaSfh/Y1+E4wXuSKhHDLAsQeHyySWVivzZlsgoMKHL1/2kLcPdPTcAETOCDgf4X3zlNACVx0DcC+zkq+PMZsctSAYGPJ5zct08xrj2D+02db4sJmIAJzEvgccE+bI8pOp7tVjHBn5hlqYgAl3ei0+iOOsp7yoTxvS/QeFivsNmE/vlrEzABE1iJAKvXSYs+yv818dm7Vupcv2ZLE/2YpQ1iFTHLUiEBVuDPMglNbEvCinuPGSMr7/8Q2OdPjemXPzYBEzCBWQhEnsj8doWO3idB2uJRcWaep8VWGKa/ggAB9QuBAXXURPPZryWRP3tY7hXcV57jtZiACZjAogQeFezL/nHEADaX9Jvgfo2KCcQoP3Y9YsKq+IjqfFSLGgU+8rMvS+K52aVyaGA/SV/sxBNLZ8OvTcAE5iVAmeBIvzv8OCC+9uRA/zou1sCoygqy885Xq3/3hIQTj0K8aYh65KrUOmpqDw3Pb03ABDpEgHvx4wJf3Z9zgrVUjgjsy0pjJTZZGiAQeU9qJQUYlHrcVBLld1fats7vdmxgDtyECZhAdwg8LNCfsaD5Jn3U+wT2YyWfTUyyNERgY0m/SqgIJM24m6S9A/v2i4bmwM2YgAl0hwCX3S8I9Gs8U09F08sD+zDuAIBYREyyNEjggcFn2eOU4WxJxwcq6ZsbnAM3ZQIm0B0Ckc/bf1TSOYF+dZy/50ovscgSQOCwhAoxTlGa+vzRAfPgJk3ABNpPYGf722W3dYlBliACpIDMVve5qUA/qh1SZw7ulQVNiZs1ARNoKYG1g28DjPJ5kZ8Re4hBlkAC2ya9LxShmF8PnAc3bQIm0H4CH/NVgFVXAViLQOyxJCCQrQZ0RPCnzVcmmAt3wQRMoL0EDvQBwKoDAGKOJRGBT1oxxT06iwmYgAnURYCnnKJOcLK0S6yxJCNA2cizOqycXJJy9r9kSunumEDLCJDmNjIrYPRBADFmmhLFLZv2MoazvaRLO3oQcGIZU+RemoAJFE6AQmPRgTiifWILMcaSmMBeHVXO4XzZiafIXTMBEyiYwEEd9bHEFksBBLLmiq7zqJXqgxYTMAETqJvAPTt4AEBMsRRCgOpVp3ZISan+xzO6FhMwAROomwC+5i8d8q/EEmKKpSACW0j6XUeU9OMFzYu7agImUD6Bz3bEtxJDiCWWAgnsJOlvHVBUP5NaoHK6yyZQMIGDO+BXiR3EEEvBBLqQuOK+Bc+Pu24CJlAeAXxOnWuaMuz7gPKmxT0eReADLVbW653/f9SU+zMTMIEaCXBP/KoW+1VihqUlBDaQdHpLlfXXLZkjD8METKAsAj9uqU8lVhAzLC0iwEKO81qosJ9r0Rx5KCZgAuUQOK6F/pQY4UV/5ejgTD29q6SLW6a0b5qJgDc2ARMwgWoIUHwsw736qvpAbCBGWFpMYFdJ17RIcf+txXPloZmACeQl8MQW+VFiArHB0gEC+7VIce/fgfnyEE3ABPIRuHuL/CgxwdIhAoe3RHldmapDSuuhmkAiAutLuq4FfpRYYOkYAcpafrRw5f1tx+bMwzUBE8hF4OzCfSgxgFhg6SABjmC/WbACf6GDc+Yhm4AJ5CFQckpgfD8xwNJhAptLOqfQg4A3d3jePHQTMIF4Am8o1Hfi8/H9FhPQtpKoqFfV4yRN7edpnjsTMAETCCSwb4F+E1+Pz7eYwGoC95N0SWHK7EIVq6fPL0zABAII7FiYz8TH4+stJrCMwM6SrihIoV0FcNkU+gMTMIEGCTynIH+Jb8fHW0xgLIFHSrq6IKV+jxeyjJ1Lf2ECJlAPgQ0llVRkDZ+Ob7eYwEQCuxeWLfAHPWO848RReQMTMAETWJwA989LKgRElj98usUEpibwpMKSXJDHerepR+cNTcAETGB2AnsWtlaKREX4cosJzEzgGQXdChg8efBGSdTqtpiACZhAVQTWlfTWAv0hPtxiAnMTeG6BSv9VSbeae8T+oQmYgAn8ncBtCk2Yhu+2mMDCBF5a4EHAHyU9dOGRewcmYAJdJkCFvD8V6P/w2RYTqIzA6ws0gmslvdi5rivTAe/IBLpCgPz4BNESi/3gqy0mUDmBEg8CWBtwgqRNK6fhHZqACbSRwGa9ZDmfK/CEB1/n4N9GjUw0phJvB2AY5/UOBO6TiKO7YgImkI8AWfJ+XWjw92X/fPrUyh6VuDCQgwCSYTh7YCtV0oMygYUJPLuwJGj4tMGfF/wtPP3ewSwEeLykxPtjGMyHJG00y2C9rQmYQGsJ4AvwCYNgWtJ/fLAf9WutauYeGAkmyDJVksEM+nq2pH/Kjde9MwETqJkAPgBfMPALJf3H9zrJT80K4t2vTIAUkyXVDhg28PdKuvnKQ/S3JmACLSOAzWP7w/6glPf4XKf3bZlSljocikyUVEVw2MjJGUCKT4sJmED7CWDr2PywHyjlPb7WhX3ar6dFjZAyk9SaLsWIRvXzeEm3Loq6O2sCJjAtAWwbGx9l+6V8ho91Sd9pZ9zbNUqAR2guKtzA/to7O3iWkwc1qjduzATqJEBSH2wa2y4l0I/qJ74VH2sxgbQEKJV5TuGGhvFRT4CxWEzABMolgA1jy6MCakmf4VPtj8rVw071fPNCi2cMO4Srek85vEQSlcAsJmAC5RDAZrFdbHjYrkt7/01J+FSLCRRDYH1JH22B8eEszvClt2L0zh01AS6TY7OlBfpR/cWH4kstJlAcAe69Hd4SQyThxlucQKg4HXSHu0OAhD7YaKkJyoYPAPCd+FCLCRRNYL+CEwYNG+W5vdsbjyh6Ntx5E2gfAWwS2xy21xLfk+AHn2kxgdYQoK72xS0xUJwKqUO3bs3seCAmUCYBbLDUNL6jDk7wkfhKiwm0jsBd+1X5Ril+iZ+RjetISVu0bqY8IBPITQCbw/ZKzkI67POoWIqPtJhAawlguKe36EoARnxZf63DzVo7ax6YCeQggI1xbxybGw6gJb/HJ/pEIoeOuRc1E9hA0gdaZsA4n7/0zkgOkbRhzfy8exPoGgFsCtvCxkoO9KP6ji/EJ1pMoFMEDpT0txYa9B8kMbYbd2o2PVgTqJ4ANoQtYVOjgmfJn+H7DqgemfdoAuUQ2EnS71po3DgmViU/RdLa5UyHe2oCKQhgM9hOW1b2Dx+o4PPwfRYT6DwB7n2d2tKDAAz/TJfu7LyOG8D0BChzi80MB822vMfX+X7/9PrgLTtAYB1JR7TY6HFeLPTxIz4dUGYPcS4C2EbbFggPH7Tg4/B1FhMwgREE9pJ0acsPBE6WtOOIsfsjE+giAWwBmxgOlm16j0/Dt1lMwAQmENhe0lktdwg4t89I2mUCC39tAm0lgO5jA20K9KPGgi/Dp1lMwASmJLCJpE92wDngMH7cr1dOLnOLCbSZADr+rL7OjwqWbfsMH4Yvs5iACcxBYH9Jl3fkQIA0oG+VtM0cnPwTE8hMAJ1Gt9uUDnylgxV8Fr7LYgImsCCBbSV9pyMHATiV63trBE6U9Fg/Qrig5vjnkQR4lA8dRpfR6ZUCZpu+w1fhsywmYAIVEVi3t3r2MEnXdsiR4BR/1Ut7erCkTSvi6N2YQN0E0FV0Ft1tU2CfNBZ8Ez4KX2UxAROogcADO+hYcDxXSHqvpHvWwNS7NIEqCKCb6Ci6OilYtu17DnbwTRYTMIGaCWws6X0ddDIDp/kNSfv4TKNmLfPupyHA2S66iE4O9LNr//FF+CSLCZhAgwSe0MsTfmGHHQ/50V8p6VYNMndTJgABdA7da2OO/mkPYPA9+CCLCZhAEAEc0Rc6fBCAs+Le41f6RVNuHTQPbrb9BNAtCvOga11bizN8UIDP8YF3+3XeIyyAwFq9M5FndugRo2FntPQ9q62/1V+EdYcC5s5dzE0AHWJBHzrVpZX8S21q6WseY8TX4HMsJmACiQhsJenjHb8asNRZ8foHvbO1QyXdJdE8uSu5CaAr6Ay6M6xPXX6Pb8HHWEzABBITeLyk8+28ljnvn0p6tZ8kSKy5cV1jBT+6gY50OciPGju+BJ9iMQETKIQA6TeP8mXLsc6cx5be2C9K5MuZhSh1hd1kzinCgw507Xn9UUF+1Gfc8sCHOJVvhYrnXZlAkwR2anlt8VGOa9bPOMM5sl+Y6EZNTo7bapQAc0sBHubaV8hWvtJxpiR8h8UETKBwAjeW9FJJV/ny5tgrAoODhr/2n6p4ee/Z7of77KdozefMlTlkLlm1ztwO5tn/R7PAR+Ar8BkWEzCBFhHYTtKpdoIzBYHrJP1I0jt7l4qfLOlOLdKHtg2FuWGOmCvmjLlzoJ+eAb4BH2ExARNoMYEnSjrPznHu4HCBpE/3Ur6+UNKDJK3fYl3JOjSYw545YC6YEwf7+RjgC/AJFhMwgY4QwIEeIukSO86FA8ffJJ3Wu13wZkn/LMnJiKo3IpjCFsawhrkD/mIMsH18gA9gq9dX79EEiiCwpaT3+HJp5cHk173Lqf/ZTxfLZWkKpcDasjIBGMEKZqTahSEsHeyrY8CtEWze+riyLvpbE+gMgR0knWxHW3uguVzSGZI+1SugcoSkZ/eyzD2yv7agC2VUGSP36hkzY4cBLGACGwf6ehlg49i6xQRMwASWEdhN0i/tiEMCEfnleSb9pN7Z2X/0AuILeoFxj77DLqnaGn0lyNB3xsBYGBNj63oO/agDHGwa27aYgAmYwIoEeATo+a4tEHIQsFKAoPraOf2z5W/2gypnzx/spWg9un82/SpJL5J0QG+h51N7OSD2lPTfeld3dpZ0b0nb9i7/3kbSzfvllDkj5zWf8R3bsC2/4bfsg32xT/bNGTtt0SZtE9jpC2fw9K3L1SlXmruo78jdjy37sb4VXZ6/NAETGCawqaTDvFAw3YFAVDBxu/Venq+SLwv8sF1s2GICJmACcxPAiRzeO5O41LcGfDBgHUitA9goturAP7e78w9NwARGEdhM0mt9IJA6AFR5Ful9lXPGT+DHNrFRiwmYgAnURuAWkl7fq5N+mc8GfTBgHQjVAWwQW8QmLSZgAibQGIHNJb3Bj2+FBgCfpZdzll7lXPHIJLaHDVpMwARMIIzALfvOyMVWuhmMqgxs3tfKOoSNEfixOYsJmIAJpCHA89/PlXSuLwv7qoB1oFIdwKawrZLyQaRxTO6ICZhAcwSou84z5Dwf7jM6M7AOzK8D2BC2hE1ZTMAETKAoAjtKOs4Z4Hwg5IPBqXWAbInYDLZjMQETMIHiCWzdr+Tm6oPznw36TLrd7LANqh1iKxYTMAETaB2BTXqZBZ/negNTnw066Lc76DO/5OnHJrANiwmYgAl0ggA559/vxwh9MNDB2wM8xofuYwMWEzABE+gsAc58ni7ptA4GAp/ht/8Mf+kco+Pous/2O+vuPHATMIFxBLbvV5z7kw8GfGWgJTqALlNFEd22mIAJmIAJTCBAmdrdJZ3gJwh8IFDggQAr+dFddBhdtpiACZiACcxBYKtenfkDJZ0i6boCg8HSS8B+3d5L/ugmOoquorMWEzABEzCBCglsIWn/3uKpk31lwFcGEhwMcqaPLqKT6KbFBEzABEygAQIUQnmmpJMkXZMgGPjsvr1n90vnFl1D59A9F+NpwNDdhAmYgAmsRIByqE/rZU870QcDvjJQw8EgQR/dQsdcenclS/R3JmACJhBI4GaS9ujdhz3ahYl8MLDAwQAFeNAhdAmdspiACZiACRRGYJv+wqzPSrp0gYCw9DKwX7fvcj+6gY6wiA+dsZiACZiACbSIAI9k7SLpcEnfk3S9Dwg6e5WAuUcH0AV0wo/rtcjQPRQTMAETmESARVx7SzqyHwy8mLB9Z/aDqzXMLQGfuWbOvYBvknX4exMwARPoEIGN+meDL+4ncrnIVwiKvULA3JGMh7nkDJ+5tZiACZiACZjAVATWkrStpH0lvVvSmb5tkPKAgMv5zA1zxFwxZ8ydxQRMwARMwAQqI3BTSQ/uJ385qnd2Sfa3C32loLEDA1jDHPYk4GEumBOLCZiACZiACYQQ2FLSrpIOkvSefnVDP3Uw/5oC2FE9D5YwhS2MLSZgAiZgAiaQngCXobeW9Ih+GdjXSPqgpK9J+m3Haxtc12cAC5jAhlK5sIKZL+GnV2930ARMwARMYF4CPHp2+/4itaf2biO8XNIxkr7UqyT3o17mufMlXVng7QX6TN8ZA2NhTIyNMbIgjzH7sbt5tca/MwETMAET6AyBDSXdVtIOvasHD5O0V//+96G9+99vkXSspOP76WopTvN1Saf3A/DPJJ3TP9umNv3Fkq7oF1OimA2v+YzvuCrBtvyG4M0+2Bf7JBUubdAWbdI29+DpC32ib/SRvlpMwASSE/j/ZPmO4Mv8IJQAAAAASUVORK5CYII=;" parent="1" vertex="1">
          <mxGeometry x="297" y="160" width="80" height="80" as="geometry" />
        </mxCell>
        <mxCell id="fhf2vWcNJBLH6D_uzpyj-2" value="" style="endArrow=classic;html=1;rounded=0;startArrow=classic;startFill=1;" parent="1" edge="1">
          <mxGeometry width="50" height="50" relative="1" as="geometry">
            <mxPoint x="387" y="200" as="sourcePoint" />
            <mxPoint x="447" y="200" as="targetPoint" />
          </mxGeometry>
        </mxCell>
        <mxCell id="_bwXxpPGAjzVuI4yMEBe-6" style="edgeStyle=orthogonalEdgeStyle;rounded=0;orthogonalLoop=1;jettySize=auto;html=1;entryX=0;entryY=0.5;entryDx=0;entryDy=0;" parent="1" source="fhf2vWcNJBLH6D_uzpyj-3" target="fhf2vWcNJBLH6D_uzpyj-5" edge="1">
          <mxGeometry relative="1" as="geometry" />
        </mxCell>
        <mxCell id="_bwXxpPGAjzVuI4yMEBe-7" style="edgeStyle=orthogonalEdgeStyle;rounded=0;orthogonalLoop=1;jettySize=auto;html=1;entryX=0;entryY=0.5;entryDx=0;entryDy=0;startArrow=classic;startFill=1;" parent="1" source="fhf2vWcNJBLH6D_uzpyj-3" target="_bwXxpPGAjzVuI4yMEBe-2" edge="1">
          <mxGeometry relative="1" as="geometry" />
        </mxCell>
        <mxCell id="fhf2vWcNJBLH6D_uzpyj-3" value="" style="shape=image;verticalLabelPosition=bottom;labelBackgroundColor=default;verticalAlign=top;aspect=fixed;imageAspect=0;image=https://fastapi.tiangolo.com/img/logo-margin/logo-teal.png;" parent="1" vertex="1">
          <mxGeometry x="437" y="160" width="222.01" height="80" as="geometry" />
        </mxCell>
        <mxCell id="fhf2vWcNJBLH6D_uzpyj-5" value="" style="shape=image;verticalLabelPosition=bottom;labelBackgroundColor=default;verticalAlign=top;aspect=fixed;imageAspect=0;image=data:image/png,iVBORw0KGgoAAAANSUhEUgAAAlAAAAI6CAYAAADojXZ5AAAAAXNSR0IArs4c6QAAAARnQU1BAACxjwv8YQUAAAAJcEhZcwAADsMAAA7DAcdvqGQAALKISURBVHhe7f13kOTbleeH3arKyvK+qr13z+IBD3jwwAyG2J0RB7MQl4vgxO6GSCwZFEVSolYuRP1BaSMYYigYG5RIiaLoAyK5uxoJ6yYGO34GA4/3YJ537X1Xl/dZrnU+5/5+WdXd1f0qK3+/rMyq76fffWmrKvN33feec+65TQ+M0GCsrKyEUqkUlpdXwurqij1eDWtra2F9fT004NcRQggh9iRNTU2hpaXFS6FQCK2traFYbA1tbW3+uJFpCAGFMFpYWLCyGJaWllwsCSGEEKJxQUB1dLRb6QidnZ0uthqJuhZQ8/PzYW5u3sWTEEIIIfYmiKeurs7Q3d3tgqoRqDsBxceZmZmxMhtWV1eTZ4UQQgixHygWi6G3tyf09PQkz9QndSWgpqenw9TUtLvshBBCCLF/aW0thL6+vroVUnUhoHDVTU5OeXB4pcwvLMb4qMVSKC0vu9Vqff1BaCxPqhBCCLF3QFi0tDSF1kIhtBXbPNaps7MjdNptpRBwPjg4ENrbK//ZPNlVAYWlaXx8IszNzSXPfDTvvn8xvP7Wu+Gtd94P77z3QSiVlpNXhBBCCFHP9HR3heefuxA+9vyz4aUXnw1nT59MXvlo+vp6TUgNJo92n10TUOyoGx8f31ac0wcXr4S/+MFPwp/9xQ/D1PRM8qwQQgghGpnDhw6Er3z5C+FXvviZcOLYkeTZJ0N81PDwkFuldptdEVDEOk1MTCaPnswPfvKz8Lvf+aPw5tvvJc8IIYQQYi/y+c98MvzWP/+Xwic+9nzyzJMZGRn2HXu7Sc0FFFYndtg9jVd//kb4+//ffxLe//BS8owQQggh9gOf/uTHw2//tb8SnnvmXPLM1gwM9If+/v7kUe2pqYAaHb3vAeNP4t7oWPh///1vhz//3o+SZ4QQQgixH/n6b/56+Ju//S+E7q7O5JnH2c24qJoJqI8ST3/y3R+G//j/+V8ry7gQQgghnOGhwfC/+J/9rfDKyx9Lnnmc3t7eMGTvqzU1EVD37489dafd/+u/+R881kkIIYQQ4lH+5b/+jfDbf+23kkePQ74oUh3UktwFFMHiBI1vxfTMbPi7/8l/EX7+yzeTZ4QQQgghHucv/dqXw9/+t/7VJ56ZhysPl16tyFVAzc7OhrGx8eTRw4zeHw///n/4H4fLV64nzwghhBBCPJlPf+oT4f/wv/m3QluxmDzzMAcPHvSEnbWgObnNnFKp9ETxNDY+Ef5P/8F/JPEkhBBCiG3z6s9+Gf7P/+H/PaysbJ1DcmxsrGax1LkJKDKMb8XC4mL4D/7ufxqu37iVPCOEEEIIsT1+9ss3w9/9T/7z5NHDIJ5Il1QLchFQk5OTboHaiv/bf/rfKL+TEEIIIXbM93/0avgvv/UPkkcPMz+/4CFEeZO5gOJsuqmprYPG/4ff+SfhBz9+NXkkhBBCCLEz/vHv/n74wz/9XvLoYdjAlrcrL3MBNTW19REtmNz+3u/8o+SREEIIIUR1kD/y2vXHQ4LW19dNj0wlj/IhUwG1sLDghwQ/yvLySvjP/qv/LnkkhBBCCJEN/+W3/n5y72E4Nm55eTl5lD2ZCqjp6Znk3sP8f/7h74Y7d0eTR0IIIYQQ2fCL198Kf/Anf5E8epgn6ZIsyExALS4uhqWlpeTRBjdu3Qn/4P/3T5NHQgghhBDZ8t/+979jOuRxDcIpKCsrK8mjbMlMQD0p4v0f/e7vJ/eEEEIIIbJndnYu/NN/9sfJo4fhtTzIRECtrq76tsFHuXnrTviDP/5u8kgIIYQQIh9+5x/+bljaIoXS087irYZMBNT8/Hxy72GetL1QCCGEECJLlpZK4U+/+8Pk0QakM3iSTqmGjATU49anldXV8Hu//yfJIyGEEEKIfPn9J3i9yBKQNVULKNx3W2Ud/8lrv9zSlCaEEEIIkQeXLl8NH1p5lK1SLFVL1QJqq6h3+PFPf57cE0IIIYSoDT997fXk3gYk1twqU0A1VC2gtvpADx48CD/88WvJIyGEEEKI2vCT136R3HuYuhNQW7nv3v/wcijlmP1TCCGEEGIrcONNbnEm71Z6pRqqElCYxLZKUPXBpSvJPSGEEEKI2nLx8rXk3galUraGnaoE1JOye6L+hBBCCCF2g8tXryf3NiCdASUrqhRQq8m9h7l67WZyTwghhBCitly/cSu59zBkDsiKqgTU2trWH+Tm7bvJPSGEEEKI2nL7zr3k3sOsrtaJBepJprCsI92FEEIIIbbL/bHx5N7D1I0LjyByIYQQQoh6YnpmNrn3MFnqlqoEFPmeHqcpuRVCCCGEqD0Ipaamx/XI1rplZ1QpoJI7D5HdhxNCCCGEqEeqElBCCCGEEPsRCSghhBBCiAqRgBJCCCGEqBAJKCGEEEKICpGAEkIIIYSoEAkoIYQQQogKkYASQgghhKgQCSghhBBCiAqRgBJCCCGEqBAJKCGEEEKICpGAEkIIIYSoEAkoIYQQQogKkYASQgghhKgQCSghhBBCiAqRgBJCCCGEqBAJKCGEEEKICpGAEkIIIYSoEAkoIYQQQogKkYASQgghhKgQCSghhBBCiAqRgBJCCCGEqBAJKCGEEEKICpGAEkIIIYSoEAkoIYQQQogKkYASQgghhKgQCSghhBBCiAqRgBJCCCGEqBAJKCGEEEKICpGAEkIIIYSoEAkoIYQQQogKkYASQgghhKgQCSghhBBCiAqRgBJCCCGEqBAJKCGEEEKICpGAEkIIIYSoEAkoIYQQQogKkYASQgghhKgQCSghhBBCiAqRgBJCCCGEqBAJKCGEEEKICpGAEkIIIYSoEAkoIYQQQogKkYASQgghhKgQCSghhBBCiAqRgBJCCCGEqBAJKCGEEEKICpGAEkIIIYSoEAkoIYQQQogKkYASQgghhKgQCSghhBBCiAqRgBJCCCGEqBAJKCGEEEKICpGAEkIIIYSoEAkoIYQQQogKkYASQgghhKgQCSghhBBCiAqRgBJCCCGEqBAJKCGEEEKICpGAEkIIIYSoEAkoIYQQQogKkYASQgghhKgQCSghhBBCiAqRgBJCCCGEqBAJKCGEEEKICpGAEkIIIYSoEAkoIYQQQogKkYASQgghhKgQCSghhBBCiAqRgBJCCCGEqBAJKCGEEEKICpGAEkIIIYSoEAkoIYQQQogKkYASQgghhKgQCSghhBBCiAqRgBJCCCGEqBAJKCGEEEKICpGAEkIIIYSoEAkoIYQQQogKkYASQgghhKgQCSghhBBCiAqRgBJCCCGEqBAJKCGEEEKICpGAEkIIIYSoEAkoIYQQQogKkYASQgghhKgQCSghhBBCiAqRgBJCCCGEqBAJKCGEEEKICpGAqgVNTfYfpbmuiv2PDxc/oxBCCCG2jQRUzkSx0hKaWlpDc0sxNBfaQ0trx64XPkdzc2sUUi6iJKSEEEKI7SIBlTdNTSZUWlysNBeKoaXQZsVE1K6XNhd1oWyJEkIIIcR2aXpgJPcrZnT0fpifn08ebfC1b3wzubdPcXcdosmKiZVCsTO0WHFLlD0XrT45Y9X64MF6eLC+lpTVsM7tg43Ha2vLYX112Z/j/fa/+LNCCCFEg/Odb3/LpraH57X+/v4wMNCfPKoOCagcQCS1FHCVtYfWjr7Q1jkUil1DUTzhKquBxQeRhDhaXyuF1ZXFsLa8YMVuV5e8+GvrK+HB2qoLreSnklshhBCisZGAakCaW1pDa1tvKLT3hvaeg6Gz/6iVY26BqhXra8th1UTT6spCWFmctjIVlq2sLs2GldJsWDNR5RaqsvVJCCGE2DvkLaAUA5UHTc0e71QodnmJQdtt/lwepam5OTywf4gmxFFpfiwszd6LZeauP3bxVJpz69MDLE9Ynbwkn1kIIYQQ20YCKgd8511LMbQUoxuvqbmQvJIP62urYX1lKawszZpoGg3zE1fD7NilMDd+2e8vTt0MpblRe306rC7P2/tXXDxFZS4FJYQQQlSKBFQesPOupTVankxANbfkIKBM/KRB4h7nZMIINx1Wp/nJG2F+/KqJp2t2/1pYnLkTSvPjJqBm3HWHgIpxTxJPQgghxE6QgGooEtH0YM1jm0pzYyaQrptQophgmrpuz90Pq6VZF1XstJNGEkIIIbJHAqqRcI+biaj1dQ8QJ7ZpAWsTliYrCyamSvMIKGKdEgElBSWEEEJkjgRUA0CsEpYn0g6QkoBA8eWFSbdALc7cjcHic6MbbjoPFN+cnkAIIYQQWSIBVe+4xWnV8zatLM25WJobu+zWpqW5ex4Yvra6mFibhBBCCFELJKDqHJNPJo7WPGs4licPEmd33eS1UJodDaulJDBcAkoIIYSoGRJQdYq77NZWwvpKyd1yBIeXTDxxi/uOhJi483xHnQksLFVCCCGEqA0SUHUKR6ysr5p4IjHm3Ki77Bambph4mohHsWBxUoyTEEIIsStIQNUpxDStrZR8R93S3H0TUOyyQ0CNK0hcCCGE2GUkoOqI6LYz4bRaCstL0x7vtDB9KyzPT3jaAj/8V+46IYQQYteRgKonTEA98LinpbCyMBUWZ++UrU648xBY0k5CCCHE7iMBVTc8COvstls18bQ8H5YXJ2N+p9nbbo1aW11OLE+1U1BNHEnTTGn20tJCafFSKMTbjRLfQ+HnKEIIIcReRQJqt/E8T5xnt7oR7zRx1W/XTEj5gb+7YHZCABWLraGrqyv09/WGgf6+MDDQH4aHBsKBA8Ph0MED4eCBkTAyPBSGBgfCYH+/v6enpzt0dLS7qErFlBBCCLHXkIDaZTzPE645E1EcCMyOO8/xZLfEPUW3Xe0tT5S2YjF0d3WGvr4eE0e9YdAF1GA4ODIcDh86aCJqOBwYGQrDCKjB/tBv7+lFQLW3uYUK65UElBBCiL1Ik03OO56ZR0fvh/n5+eTRBl/7xjeTe/uTlmJn6Og9Ejr6joS27pHQ1jkQip2DJiYe16ukIyAR5trKUlicuePWJw4G5nlElQeN5wDCxt1yVgqFQmhtpbT6fcQP93u6u6JFqR2LUnTfpe8rmrhaXV0NqytWuF0j2edaKJWWw9z8grcL7i+vrIQVe8+K31qx9/I+yvp67S1rQggh9gff+fa3EgPEBv14Swb6k0fVIQGVA5UIKIQTZ9iVFqzMjvrxLMQ+xd12qfUpexBE7SaM2tvaQm9vTxgc6HMLU3d3d+ju6rLbztDZ0eHuOCxRTcRC2effHAe1vr4e1qysr3FOXyyIqaVSycpyWDAhhZiaszYyOTkdJqamwtTUdJhfWLR2s+CCSgghhMgDCagGpBIBRaJMdtrNJ7vtyDq+agXXntV88q7swZLU29Nj4qnb45lOHD8aTloZGR4Ow8ODYWjAPnMRS1O0SoE74xL3HsWbjv+3cRtFVLQwTc/MhonJqTAxMRmu37wVrt+4FW7dvhvG7TFlcXHJf68QQgiRNRJQDchHCii75LjoOIZlZXEqzE9cMwF13e+zCw+XXtakoqezs8MtS8QqEQA+YmIJAXX48MFwxMqgCSesUX19vaHQEt15uPq2C80J1xxCCivT1PSMCamZcPvuvXDnjpW7o2H0/li4PzYeJk1cuYVqbt5dgPxMFc1xR7gbM7Gq+TXi3y6FbfHN3ZKXWvTsWmwndQXfoexadfdqdLEWsBTikrVb3hNL/HKpAPa/YyVaEhG+JoATFyuu1+XlZS+I4vT5/UCzXZ9mrh/XluuZXNfU+urXlkL/sH6dxvs1cY25Ta5v2h88xxv37fqurcfr7Neba+/XeiUsJ65urLhc+1r3hZS90Cc2w/dhHGM8ow7b2opWn0Wvu7Qem/m+3j/ixhdu+XsPGMuoO/623aeu0hLDE6zelmNoQqy7/dE/GgUJqAbkowQUAwA77jxofH48LEzdDItWeBzPtsv2YGAfBK0wUBw+ZGLJCmLp2NEj4diRw2FoaCD0dneXd9BR2tvafVJIB5RKoElRGFiWlpbcpTc7Ox9m5+ZcUN2zdjM6OhZu37kbrt+87ZaphUUTjkksVS1BeODGbLPiA6gNpJV+3yzhmiFYmEC5FkymH9VF03i1bit9vT2xmAD2umzv8Bi21qJNHvY+nyx8omhKJu44WZdcKJU8bm1xqeT1hrClvigLi4thaRHXbCn5q3sbJlxEKO5r+gXXlEUHbm82Sbj7O7n12EEm4k0TMgIEkZROti4+bXJdXll293bJriP1XEr6SNo/5uaIH7SyMO8/X8XwvGP2Qp/YDPVIH6A/sKO4v98WiFafG2Ndm78HcdXqMaBx0eFCljGJW/qJ3dI/Nsa0uTDjZdbrj/6yaK/BbtSbeBwJqAbkIwWUrUA95ml+wg8HJnh8aea2H90S11zZwuDHpMnA+OyFc1bOhgvnz4Szp0+Fs2dOeQxUuspMB8osBkz/JknzoplRGAjv3rvvIuripavh9TffCb988+0wPT3rr7GqqyVMgh7zZYVJM538dgOuD25NxOSSiRgmWyYPVr9Pg8kBEYzrldQShygHR2yS6PWSbgRo77CJIhFRfEeuNRM5f4u4tIWFOHkzMVDGJibDHSyHd0ddRPnzNknsB5hMuzo63GI7MjLs15T0HQhVhBTX1IstPFIRFTdXRGsVbYkNFtEysep1iYViwa4zMYFRJNk1N2GKcBq7PxHuj0+E8fHJ6Pa2wvuhiiF6R+yFPrEZt7i7AO6xhWNcPNJP6Bs8z8KjEzFldd3uQioK57ioQPDSR+ItfYR+MGd1hhX93v0xG8vGw5jVHYXX0rFO7D4SUA3IkwSUXW4rD8L6qq3yTTQtmmhCQHFA8PLCpFufsgQRRGHFNTI0aBPBUDhz6kQ4c/pkOHH8iE0KMZcTq7BagYl7OnXr3bkXLl2+Gi5evubWqDv3Rk1cjZZX7pUMkjuFtAwnjh0Jx+16YK1h8mAC3A1w54zexzoXB2RiyCjpRAqpqw43RH9fnxdcrp6Lywq5uEgnwUq7q9PaYbIRIHVB4cZILYus5vndFFbWpeUoptwCZRMWq+vJqWkP/E8tUdQbYpdbrCX8LEKsFnWVB/QPLC3UO5MogogJFXHUy609xprH9ezt6wmdiSUjCtJ46xaoQqFsgfL7dn2j9Sl1iUZLBpNyietrk3G85lj87FrPRNGa1vmMlWiRipaNOcStXW/em/cEXU99gnY1NhGFJXGTE2xGMXGJsHkU6tL7h11/2n1qiU2tTp7LzgqbZXgOwYS48u+XiKb056nDDcsTfQQRHPsJFqhFE770D68v6xcT1kfYKON9xfvIjIvk1JqbZ32JJyMB1YA8WUCZfCL+YWXJUxXMT1wJS3MmGJI0BlmmLEjFE+W0iaZnL5wLz1w4G44ePhSOHjlog+SQTbBxhZ0GidcCBkQGPwYiTN/3x2zlfX88vH/xUnjr7ffD2++97yvMZXud1XvenDp5PLz80gvh41YYcFl1d3bWTlBuBnH54aUrJiivhqvXboR79+67tS51CwD1hTDis1KvlKNHDpUnB15HEKSTgbsjrKTxHdElG9tHGquWxuGU3U123fksqYWKMmWiiZg1Jq9r1296QfC6JcVKLeoqD7gOPrnahDpkwoFriYUCEeETrwlUJlgEK9c0Xs8okqLbLl7bNPbJry8CNbm+DK/E0KSxNH6N7dpGURUfr5q4im6qFa/reRNLC/OLYXRs3BcUd+9asbGW+9RBWm95Tcr11SfWw/UbN8ubUK7fiC5/rtGjsDDo7Oj0PoBF9uTxY+HkiWPhwMiwLTD6fZFBXUb3ZFqX1KPVYQuuSqtP7yOxHrnGaf/w+y6GqbMohqkvF8Q+lkUBPG5i79r1W94/7tliyHcfe53p4PfdQAKqAXmSgEIgYWUi1mlu7GKYu/+hZxz3oEjvYNkNiJjdWUmxOn7xhWfDZ195OXzq5Zd8YGEgwRWx27CqY8LARP/m2++GH//0Z+Enr/3C3URzNhjF1Xby5px4/tkL4Ve//LnwK1/8rF8XJkwsELsB1hxcmm+89U545/0Pw7VrN8NVG4hx+/gAb4O6W5xsMmBSePG5Z8ILzz/jkwQTHe4I6jwPELtMBlgB3n3/YnjPypVr1xNRNe11lQqwegbBBPQPBBAiEyvsASuIp7OnT4Qzp076xoqBgShKue61AmHlblWblNl0Qf1fu37DJ2RENYI6dS0hcl2gZTw511OfQKh8cPFy+ODDy+H9Dy+F9z6IbQ/LTwr1g/ApWF2mCwnq8lnCFZ4570l/+R6IqLT+s4Q6wMW4aP0UyzGf8V0rCKm77gK/Z3W20hD9Y6+Rt4Bq+TtGcr9ifOVpg/6j/L3f+cfJvf1Jc0traG2zyay9JxSKXdaxO0KLFT8kuDQTlpPYJ1x3vuPOKzhbpcAqjImB9ATEPJ0/d8ZXlggnVmGsvHafBx57xQCImOIKsMrnMTEHDEpxwMtPRbET8dTJuFKN5vx2N+fvBlgWiKsgFgZhwiSB24zJgUnh4MiITfAnw3M2Kbz4/LPh7JmTblHkNf/cJpZZPecBgxB1gUDj75D+AlcIrq7OJLYKcE1VsSbLFa5NFE2tbm3CjX3B+gWW2dhHTofjx476deb74QbC7ZnHpPtR8Fn5u/x9LEAI5KHBQY9z43QABCBWLsAikuUlr7c+gVsMAT81bQJ+fNKt1rSzFMQdC0P6AvX5gi0snn/ugltnEU/9uF47Yz67PPD2kfQPAu4ZW/lMuIDdjW5jMf0DobvZmizy52/+9l9N7m1Ae84qbEUCKgeeJKDYeYdoKs2PhZXFSc/5tLZqA0EO8w0D7gmbDAgWP3f2tMc+HTt6yBtPayG/ibYSfMDxSY24nGY3q/fYxFUy8eSxNzZgMjHkOR/X1WTxYD2M2eQwbgIKs//U1IwLKSZ8ApiPHT1sK+pz4aUXnw8f/9gL4YhNGMQ/ddogXbTVN1aqvCZ7fi8rfMQ3li5PgTEy5OKpYO2JRowrA9FXr+6K5uYonorWzo4ePuh946UXn3Px9OyFc76pAssecTMsQJj0ECq1JlpUWnzCRzx5jJsJvoMHR1xAUc8em2MF9x+LjSxFa331iQceDxYF1KwtLgjcHvdYvRSuDzuLT544Hl549kL4+MdfCM/ZLc+xuEDEIES5rnlB/3CrfyJ4EXQeZ+Vxcm3eJ4hjY0EkaocEVAPykIBqtdWiiadCa7sJpmm3PFFIluln3WUYOO6TXCFOEgdsEEQ4YY4/ZQMhLgnM2KzA60E8QRRQMecMtwzSxGURS8CqE1ce78HszUo0D+ppssCNOz4Rs7UzaaS7tJjQsR6et/qMBWviMV/lEu9EnXP9uFZ5we+n7SAquE5x95K1bZvo+fuAuwXLwIZlZPfdFXFii3mAmEgJtGeHIrtPU+FEOo8jRw553JPHkFn9Y0XIc8J9EnzetF/gXkSwMiGncW/cZ0XBP7/M1i0QUmndZyFe66pP2Hf1XW8219AnRk08ERtIW6Ou2BFJ/bFAPH/2lFvaz5057QK5q6uzHOuUd12W68z+FhsL4u7MNnsc02HgmvUNGotLbqXie9XrQmMvIQHVgDxsgbJJptAWmq1gffKjWggcN/G0voa7I7tOxESB24HOS34nrBUvPHfBV65s4SV4sl5BHqWTNNu8MXUzSCIqWGHnFaRcV6ttE4nsbpuZm/XvzwDLwIwbgrok5ol6JQaKzwrpxLkrUGn295mkuGapeGclzriAANxtaFN8PiY1rHi4eD7+sefDMyac0oUFbkherw+39pMwwWQLHxY/TNK44rE88pm9Guwfwc7ET1VLfQkom2cW4m62GVtQkf6E2DDa2GGrOxYWz5w/6/XJ4oJ0E1h+duvzbgaRRPsjp17ExLw9ph7ZJIPFVuRL3gJqd5J77CN8rUiQ+AN2Ny2FlaVZT1mwurLgQeVZQkZkJgJWqrhXCKT0OAAbaIibqGeYFBisCVgldotjZU7b4IgpHPP7fgAtlK5gEbzU4XFbXRPr9ByuO5v4T9rERv0inHZVPBlYSAjMpY3x+QhoR5wwqWE1qwe4Rm416+pwy9Nzz54PX/rCZ8Irn3zJrRUxX5Ytdupgwn0aCAayZ/d29/jusk+89GL41MsfC8/b96GfHLC2gvV2r0ETRyT6pIeQs7pEgLBQZLck3/9Fa3cfe+FZj33CrU3MUT2AcMfqjxDFG0AfITaLz431TDQ+ElA542kLTDgR/+RWJ7uP247nsw62ZUs1Pn8CxykjnqoA/3/RB+B6hokOCxqT8kB/r5vlmZiJSeE78Dyrt71NU2hrb/MJne9NDNv582fKu8JwV9STpYQ6w+Lkot2EL5YycoydPnXc8wgxUURrQO0FMJZMJjCuGQuJ5y6ctwksBhZzLTmyCBdotJwVym7HeoVr7fGChRYTE23+vbAUMTmzqYAJGrHNc1jUqJe9gscWWf/HapDG35GKhe+OCD5ubW14cLDssquXccJdelYP1BcbLohhxErGRoU01o6+w/tEY6KayxmOZUE4udXJRBRJNB+E9WibduN7dmC9II7j3JlTPpGx+ql34bQVWF8YbFw4HMDF0uVxKSQq3G2rS57w1RhQB/r7PQCW709QLBYoBuB6/u6+2rbPiOg7ffKExxjxuZkosB7UGiZcEmNy3di5iMXp5Y+/6JZN4ogQdcRvNSJpO2BhcfTI4fDiC+w6Ox/Onj3lOwupB+pjr+Buy5ZomeW7HTNBfOrEcRfDjHNYrLEw1jPprmg+M30ESxlCEBHfiGO0iEhA5cwDkq6ZgOKg4NVlE1Bry7mIJ2CXFLt0WI2etcmXWBmsOo0EkwOrTCxQ7IoifouYLrcU2CC6l+G7s8omsSPWHAZbNgEgALCY1PNKFYFLgDaWTwJ6EVAIeVxL7EKqNQXcdh0ddt36whkTcq988uObBBS7FonVatzhj7bCpIx1jZQWtBOuN9YY+v3eElBxE0BHR5t/t6O2uMJNnLYzLIqIyXqGz4eA4jPTBqk3Nvog5rGWisZEAipn1rFArSz6DrwYOJ7drrsUJi/M9kwWuPBIAEgeG4LG69lq8ST4zL7qLEaX5LFjh8ORIwf9O+11c3fqesLsn26j5zs3UjWyqmYXFO6VY7hXhoZcBLNjMM/6o93gvsESSzAxW9k/+YmPubUCqyZWKbJN70Xo/4hX4oBOnTzhkzOB5rSlRu4z1Cniie8Rz7I75EHjLC6wLta76/VRyFjPAgkBiIWWBS/tUjQmElA54y68lYWwvDgd0xbY46whrw2DJQMKKzRuGWyIp2lEAWXDjH9u4gcQg1ijSJKHZWovx0G5AGgpuCBm5467mWzyiAKqceqRVbVPdCagiIUasUnCE7j6ZJ7f9+AaIZCIaWK1j1Xmk594yV2KtB3fIdhg13K7EBOFawhrVAwqH3YhyyIqz2teC7A8Y4FGJDIOPHv+nFtyyCbdaOKQjT6MaewAPXvmtPeNvRSvtt+QgMqNeA5WFFAEkc+6JQqLVNYwSBKsS/wTFhvEE+Z937HSgJMFH5nPjSWB74W5+/Dhg/69yKGSJWvrHJ2x7FvuY4mn5JNGgOc5D44UCjEXVX7nj6XEQPrk4F/7/umE30j1iBuStkiwLBOe5yCzxwT55hl3xPUi7ongXFyg586e8izjxJOxQw3rXiNbY55GdBENJzE2R/w7c4C4X/MKrW6P9glyMHkqgUX6RMnPgItJPGvVJzaSig4PD7mljQ0KiMZGG98Qs6klzePVBgd9R6FvZNijbXMvozxQOdDcXChnIGfHHakLEFDEP7kFKsPcTwwgbHfHxcWuFFY2dM56jwnYDuRFIhcU25aXbPDmnKnbd+75c1lBnAyTLq4ATr1PDwWdm5vzJJZkRV/xc8dWPVM4+XYU9PnR0C6ZWDmOx/NZ2XPLpRXPc8UEnAeIbfJkkVCRvFmIiYMjw54dmgmq0SbbHWFaBvHPtW8yMb5i15rs8Jyft13oE8Stcb3oC/SJmRnrF9YnFq1PkBByeSXpE0musrz6RKyzNAdWjIVChJNVHjHSiHVKahs+e8n6w+j9MR/X0nk0y7FNKJFmQ9LcUggtSQZyRBPiiWNbEE9ZJs4EBhDiTRBOp0+d9JUZ6Qt2Y+dTHjTZogzzPavfO3dH/VBVVr9ZgZWLa8ikPjs/7xMGGdCZKOKBrfHkdcQc78OKIZP700knNW6ZYLGE4rpgIr83OuZ1mQeIJcQTcUBnTp9wyyVuHtJ7IJDTz7UX4bvFErNce4Z6a6tccw4gZjGwXcp9orRcXlAgnhYWllyIra5ilU1OB7D34WamjvOCz+Liyb5PakWkpN+5kUi/C21y1cYxzr7k2CYse4wzLBTzteftLySgGpAmWx21FNpNSBWjgFomB9R85uIJ6JCcAeU7786cdJ86LgxEx16AoEvO7iM7+a3bd8ONW3f8/C+8BkzO1cJgxoSDWHL3nbVpJgusURQmD6wmTESswn1Csddp9/xsrcUUn5XvjUsRSwCfOX7GWT8/cHJ6xo+CmZye9lvKtD2HKFyw9/Iz6Sn+fhEZ0HOYhOLEFn8v1wjrHWf8IaDiQbBRXFWL14FNRsQB4rp69sI539Yfcz31e7buLMWTXzcjvf64t7j+nHE2MTHpt2kdlK+/1Q3voW3x3df8+pcvf2afjd/jv8v+S/v/uH2m0U3XfDtjEGKX74kbb8FdeLEfeJ+w+/QD+sSU94n43fLsE3wn6pDfnX7H8nc1EHK0Jdo1Gcvn+bz2efiM3ieoB6+Xh/tE7MvWL7A0uzCMLkl+LX8rL/jcuOYJD6DN8DmxGtKe+DxpGxPVk7eAarLK2nFtjY7e98b6KF/7xjeTe/sThFNre5+VXuuQq74Dj+IjZsbQGX/li5/17Mps04678Po9LqrRoWkyUVE+uHglfPf7Pwrf/d6P/DR22h3xGdVCrBExCLjxmHSItUh3wVF4zIRA4ZrS8chHg4voWZusiceoJaxSiclC8E1OMjlM+QTNRD43t2Cvr5QnlBQmA2Li+I7EX9A+0kOI/bvm1FaoPybukk0MN038/uBHPw0/+PFr4eat2/55ERTVThbUC3E+3V0dHkD92VdeDp955ROhu7vbY2ayGihTuK4UJrvxyak4AdpkHAX2rB9+a9/8oa4ek19au7HrzOKGdA9kcPfn2G2Z4WKH64kYQPzcvTcafmjX+4c/eS1cv3kruuFmOez56dfc+4R/NusT1j42+kT7433CHvt77To/Z/2BflHrPkF/QLzxnVPBNGOihP6A4KPPcF02f29caHyPotUJ8XF9vb1WNz0eV8WOUQLW84bP+fa773v54OLlcOnyNS+MdyIbvvPtbz02xvT39/sYmAUSUDnQlMRAtVjxTOTL1omtMLBmDQLqN/7SV8Jf/uqvhE9/8uM+oDHQYereC6TN8/KVaz75MgnfvjMaJiYnfQCqFq5fjKVoLlsqiLfw5+05f+wlTtZx0C2Gf+5Xvxi++pUvuWitJT45sspeWDAhcsfFyB2bKMfHJ/0gYiZ2goA3D8K0BbZOEyNEoDHB3aQXGOjr891x7NbKCwQF5xliefrhj1/1yfzKtRsuPLCOfNRk/lEwcae7T19+6cXwhc++Ej73mU+5aIwlWimyguuKpQKrC6Lk+o1b1h7vupsMwYK4oskS55KCIOEIFiZlXOwnjh/zXEDsDOS5rI9gcbFghdian772Cy+XrP9QB4zZa2tPt0LFtk8/iO1/c7+I93k+vo8+wfdDBH6VPvFrX655n0Ckp9ZA+sMt6xfeJ2hjdg14/dFFBRYghDeF9nP44EEPvGf3IjGl3OYNbYh6uXz1Wnj3/Q/D2++8H96yQvsS2ZC3gJILLwdsiGF0wWBuk8dK+eiWLGFyIDCWlWFqDTl54mg5dxCD217AB24rrCQRCZjil5aW3OTNgJkFPuHY4MphrOkE6ZYea9uY2bH2IFyIk+I+g/UJu9ZkQSZoOW88Pmtu3q1Nt2/fC1eu3wgXL10NF69cDVdNjODW5JBVTqrHPZG6VVI3JNeOz4zFjj5LmZ6edZcewcDA90ZsZB0MTN3RVrESYKWh3rimS4slf1zF+s1hAkSUcHwMiVfJr8Nj/mZWfQAxQvvgc9+3a4xwumTXnjpg8rt+00Ts3Xvhnr2WunjnZpNrb8V3sC0s+XXn++MW47vTjtcTofvAJvhU9FWLX3Mra3bNaTdLpdh2+ftTUzMPCYknkfYJ7xf0Ce8X9InVpE+slPsEt4iUkyYMSVpaiz6BtQkrE9ZoBBOinPrAgnPV+geLCwTt6Nh4mLbvPDP7cJ+YtWtBPbjb3m7pC9Sd1xGB8vZ96P+IRkQiZNWeUghFoF/yd/jbtK3bd6MIF9mgGKhGBP1kNxwgjAvPxVPG8U+peKIhkBflwvkz4fjRwz4BZjl51AsMdlPT0+WYBQZDJqFa4nVq/4jnOXfmtJ/sz5EzecMAP2YTATFgFy9dcZP/62+9G65cve4TBZYFAlEZhLlOaTyFr8yT1TmxITF+ZdZX5qzQ2WnIxJgKbndh5uTO8wBZ+wxMzCWbdPkcBNBWa4Hq7+txIZseqsvhwFjasgRhzecn+P3ylevhrXfeC2/a9U8na6xPE5Oxbfp133zty9cfwU8sUbz+d22iRHgAFkKsPVz7LJMqInwQT7RZrJaIJ9pK5hM0FjerR+IwL5w77Xnb8oZryXW/duNG+PBi7BNvvG194lrsE8R9RVde3E37aL0QtM1j+haCivgoBAwLNMYWj0WyHo97sqsLCy29n8Wc//lMWF+Lopw+gBuYTTJY0CSgskMCqkEhWNN33eUgniDG7rR7nAeZeZnM2XW0F8UTMNgx0LFqj9aYaXdZ1RKmegY7XCAXzp4JFy7Eg0zzIrXOMLginrA2vfPeB+GXb7wdfvH6W/ZcFE+TJp4Y9MsThU8QMQ6GwmNW2ggshBbWqhs3b7sgoL3g9mWVnbo0IOs2lFo0+DuICSwHN2/drWqy4DNy3iMZx3Hf4ZbEVcmklyWIJ7cC2qSNi+Wnr/3S6+DajZse24Ugim0zTsybr71ff5+oY7A5Qsuvv02UtKh4SG6bL4a6uzszjUdDOHHdOeKJfoOoQFwgrLIECx0iM/aJs7n3CQrt+Or1myaeLoW3rU+8/uY74Y233vF+ghBifOB608af1CfoLwgx+hfuThYV0yakPJ7QnmeixdVDXClEV392/YLvwViCtRBxS91cu3bTr6XIhrwFlDJ3NShMRIgnJhDO9trrxwFgJWGFToBnR3tMPLeXYdLGSkPeK4TT+x9eCm++/V64dv2Wr5IRHju13ti47SBEcUe9bhPPh5euuCBjYmJVjmUqS0gQSm4yj1fq74+ZyRPhVqnbigmHnyXgNw2I55bfycIia6amZ8Pla9d9kiYWb8w3MSyYqFq2a1nZZBcFQLxFTF2+ej28/c4HLmhxq6bb2Xm9WojzYaLwjSVWiLeKmyUa8xxArjduaixOLCTee//D8N4HlzwGDbcp/SFe351fOyx2bM6g32ENum4iGbGL+xxrUZakVscua7csXIitJFEwIi1DnSZyRAKqQSHWieBfdvRgYmar/16GyYBJk91VTAJpXMJehUkUF+Wdu3fdVff+h5fDm++856tuVswIqGomC36MFfr1G7fDGyYMPrx02VfvWFOwlrDVPksQwJyYT3tFRCGEsbYUTfhXOpkz8fCzBGGnu07T30mQf9awzfzKFQTU2y547o+Pu8jEFbkTEZvWG5ZDdwm++77HUXl8n03gWQURI0zZfTmQBM0iMBFUuGrzzAifF1gB74+N+Y61d979ILz7/kUXUFgB3eXmfWHn4gkQsIgl+gKilrxzN2yRgUVrK29LNVA/bnm08dt3xJqw3fAgSEE1AhJQDQoWGDIG99skgqBgq/RehgmYSZNJkklhr1ugCLpmIEfgMGljhcL6RNwQk3e62q4GXGljJgYIwGU3GStt3BhYvvj7WeKuQq+/Lk+l0NPTZfc7XRRTt5WAKwUhgLsOC2w/uwl7uv25rNoF1xYrHJM2QgdL3fs2WROwjNCp1lLEj8U4npgc9s6de+5GQtTiXsoiDsYnaBNLWKi57vQd7lMPJL9sNBAwY+OTHud08fJVjz9D6ExMTLmrjrqoskvY31h1Fx4LCVytuNUQUrQBsrpnCZZUFoL0gejGjTFwjOVZ7x4V+SAB1aDQwehsHBi8EzdIo8EkywSJ1YHV2l63QDFxR3fFZbdAMYBnnYiVySaWB757j4n8ww8v+8SBQMgDVtccrcJkzrlmiKlKrUa0dVbtB9hufoBDczvdQpklCEjcdKTLuG/ChiM3qI+ZJGFkFiCCKS7S7PrfvH3HC5bHrONgEJZdWABTV2cD9h8ELQKT4HFfSMwvetvNC+r/3v37LtIQzVmegLAZ+sTmBSIxfBygLOofCagGhUmEQTDGkez9gyh9gLGBZUNA7e0BJgqosfC+CSjcPMQm7cRd9FGkq3YmCAQU7hGCjQm0zZoY28FuPxNQPd2eNb+3t9tdSpXgAspEALl6KAiCrNs/1iUmUJJlEvCOeKI+ZmcQUNlMpFx7LE3E1riAunXHJ+tpXLQZx6CRrR1X/wAxk3bts0zeWStwbbIRYkNAVZ+I9WlgiUoD76mfrGOgIHXWIZgQUCwMGOca0UK4H5GAalAQFExEndbZuN3rAorvh6WCpIMMNHslUeiTYKcUKQlwT7DFmjQEeU0W/F5PlcBOpLv33H3hO5iWllwsZP13Eb+IHk6iR0hVGvidJkEcGRr0QnB61u0fAYuo5HqQQoIAb9xEcdt5dtYhri3xZgRB3zeBhjDAtbeWsVh2C5T1nUGCyW2SrvSa1wNYYAkkJ0/T4mIpczfzo2CFpQ1ghUSsZb17cTO483DdUS/RhaepuRFQLTUoTCKsIokH8qDQBtxVUwm4LNmOjXhikKk0bqbReGD/PIGhTRJMsFlO2ltBfAcrbrZTY+0at0kD0bBUirElWRKtIZ1haGgg9HZXLqCYXFwMDA747+i035X1hMPkSbb069dvueWJLe95QV4xxBlWDuLePJ4ncxdeS3kXZKO68GoNi4cFqwuOhKE95NoH3RQVLbRe4rOizpGAalAQEFhkUgHVvMcFBRMkEy8uyyig9njTNc1CHAyrbGI/8hZQWFZYZbPiZiJHRLH7jBw68Xy37CB+zVNwDAxEC1RrZe4kduHhxiWA3HehWh/IOugWFyYikuBxrEJYA/MC1yxWFbbPE4uGgEJUZUmMgYoCCvcncWji6dD3Fq3esQjSHvLOzxQ1lMRTIyEB1aCQL8QtUB0dvv016yDaeqS8Onuk7FlMt2D9ydoCtBX8DUQaFi/fhTQ+6e5DhEP21pBkMh+Mk/l2LVDRbR2z77Nw4GexqiDAsm4HBIqTxTrNaJ1XUD3gmmKCZqLG2hHzS2Vb56QtiBZrDpDe+y7wLPA+YYVklywwSEbKgqKa3ZdibyEB1aCUB0QTUEwg+0FAPcweF0+7BKtsLFHEQxELhYDKOng9xuN0em4iLFHb3VHJpN/eVgxd1ub5eQo7loipylxAISTnTEDdJ/4ppi3ICyZjJmiuNYX7WU/QccEVTy8g99Bed4FnCdbAcv0spvWTvCj2NRJQDQourDgg4sJr3fMuvM0wWeKywa3HfQmp7OB8Lg5WRTzFpJomoDJ2J+GKJW6JBI9kYd6ugGJnEtYTrE+dnVih2t2liyDLsg0gXrBAkZyR0/zZ+UXSzLxAoPL3mJx9gra/lfUETV9hoRXHCwmoSqAu0niodGOFPRtfFPsaCagGhQmDFTmrbwZDdnHsF2I8VKtbI2IKBwmorMCNx0SB24rDm3FbcFBslmANabdJPE3quF13EkIJweRxfyYGmpuyHb4QTp4808QMggkhs7K64kH8WbsxH4W/zbWnuPUpYwXlu7x8E0baZzT0b5ukbtjUQfFzTqWfhKFe1KAQSMuKnNU7Amo/WWFwVzIJeOZeE1JZT6T7GSYKApoJZmZHHivurC1Q1B9uJFxwCKjt5ryJLrxEQGF1zVgEIFyYIBFQxCH57UoSxJ/zjMmvxxLF3+FzZP3X4qIjWvDYgbf/XP7VgYBOBVR0aUtBCQmohgW5hOUFVx6D434SUJ7SoFDwiYBJtUkWqMxALBEoSzbsmdlZv5+5BcraK/WHiEIIscU+tmPcscmbtmDDAtXpbqg8rCguYjgh3343Ao+dfiPDQ56w8+CBkdxKmhSUXXIIxKy/G30kveZugbLrLbYHrR9h+5CFUAhDvUg0HjbLegyUTQJMDPwT2YBYwvpCIDlHZXjAbI6rbYQCQpiUHEzwTU+xJvI6QeOkLeD9eQiouChp8XP2Lpw/Hb70+U+HX/nSZ2tWPvWJj4VjRw+7yMkSrLQuoJLrnMe1E2K/oV4kGg4EExMCbgiP/ZJ+ygxW2sT/kMpgfiGfLfWbwfKEG9q31vvE/uTKxAXV3tHmliHfSZa1lQZhTruyzzSAgDp3JnzpC58Jv/qlz9esfOrll1xAZZ3oMrVAFd0CtfdPLhCiFqgXicaDORbd5OIpeSAyIY0DYlcYuYkQU9yy8wj3RdY0k47D49lsYrcJflsWqC5ceOw8zX74Si1QnR3t7ro7eeJYOH3yeM3KkcOHQl9vj1+XLGGh4WLVruF+23QiRF5IQAkhHgIRhVhaXVv1/Efkv1myWw5zzZpogSrG3Xi+O+zJEzsCioNW83LhIcgpWLZi0skOEzO9ob+vdqWnp8utcU+7DjvCv1eLX0O+39OEqhBie6gXCSEeoiygTDBhfZpfXIoCygRV1sSEsK2hrZ0dlSagnmaBMoFFEDkuvLyCyPmdWGhwofF3EDV9/X01Kz3d3S4Os94U4m5v+25suvBdu1kLNCH2IRJQjcwDJjtu8gzzrT8IdOZ4BdxKMS/Lfvr2tWOzOy8eaJz9dWYixwrFxO6C6Cnzusco2Xtw3XGbpwRIrVH+N2tY0r8phKh/JKAaGBdPUUHxyJ/bD7DVnvOolkly6AIq3ySH+5VUQK2agML6lEcySRco7lqKAupp4oFXXGj4+5InhBBil5CAalDczWLCwXOTICD2j35ySwjJDVeWY5JDWaDywduYx0IlCQRzuM4IIixQuJU8NuepJqiHLUNSUEKI3UQCqkFhYsO1wlEb7mLJwTpQr8T4nNWwvLIcJ/YcXEuiNqQWqBbin1LLkhBCNAASUA1KKqDSwy15vF/AlUSAM2eVcSsLVOOCgCrHQNmtFJQQolGQgGpQsDj5oaelkgupfSWgEtdStD7paIVGJnXHRevTR7jwhBCijpCAalAQDqsr5OlZdnfWfhJQQgghxG4jAdWgsJUf4RQtUBJQQgghRC2RgGpQ2Bm1VFr2M8uwQpEXaS+DQIxB8yV3XeK+E40Pzld3yVrhdn9lNBNCNDISUA3K2uqqB5DPzs2ZkFra84ICAYVQnJufD4uLS259E3uARDit2wJA+byEEI2EBFSD4hYoE1Azs3MmpPI5ZqOewMLmFrc5E1D2vfM4l03UnnRDAAW3NIJKCCEagSYbwHY8Yo2O3g/z8/PJow2+9o1vJvdEXhw4MBxOHDsSThw/Gl7++IvhEy+9EM6ePpW8uvfgQNuJyakwbuXVn/0y/OCHPw0/ee0Xyau15+u/+evh67/16+ELn30leSZbbty8Hf7p7/1h+Ce/9wfh5q07ybO15czpk+ErX/68l0OHDoS+np7Q09OdvJoNP6Uuf/TT8NrPXw/jE5NhfHwyzFtdb8WLzz8TXnzhmfDCsxfC6VMnrJwMA/19yavVgxuRjRmrqyth1oT65NR0mLT2thdyrMXjj2JC1F++8U549ee/DG+89W7yajbk3Sdu37kb/uCPvxv+8E++G65dv+XnMxIDWsUUti0GBvrDr3zxs+FXv/S5cP7c6dDf1+dnJJL8NSveff/D8Bff/3H4rpXx8YkwNT3jbVBUx3e+/a3H2kd/f7/XaRZIQDUow0OD4ciRg+HokUPhlZc/Hl755Evh/Nkzyat7Dyxt96y93b03Gn7x+lsunn7xy7eSV2vPfhBQZ8+cDP/cr34x/NqvfDEcPDBi4qkrdHd1Ja9mw49f/Xn43g9+4qI4FSwLi0vJqw/z/LPnw/PPXQjPPXMunDtzyj7f6TCY0UAIiAvcw4tLi+H23dFw6dLVcPHy1T3hLibZLC5Sbm/cum0C5Ga4dftu8mo2SEDtHAmofJCAElvCyhsr1EErn/vMp8LnPv3J8OyFc8mrew8mVwZ+hAUrZ0TUW2+/l7xae/aDgDp39nT4S7/25fDVr3wpHBgZDl1dHaGzoyN5NRt+9JPXwp9/70fhpyaIp2dmfeJgo8BWPHP+bHj2GSvWzi+cOxMu2OOhwYHk1epBKBFjx8R18dKV8LNfvBFe+/kbYXl5OXlH48Ioz1BP8e9oCxI2oGSJBNTOkYDKh7wFlGKgGhR2os1ZB8PtwS071PYyBBmXbGJl4F9cXHRXi8iHNLElB/y2tRVDV2dHaG9vC4WWQvKO7MA9RhoONgismIB52mSIwMFClO48pU1kCd+7UCiE9rY2nxzpYzOJqNsLZXqGMuvucK61EKI6JKAaFAQTK5Sx8VRA7fEg8nXSNpTsu85pAsiZNDs4ggkx0dXVGToQUCaosgYR5AIqOZbnaecaUucIqHkE1PJy5rFJqYBCNCKgVuwzpVaxRi8unqZno4Cya7jXxwshaoEEVINCvAauDsQTgoKdaUwqe/VsOL6XB5JPTft33gtulXokiohoeWpvL4a2YjEUrSAssEplTbRAxSOJsCo+LZWBCyhr57ig3AJlojpL+O4Ip2Jra2i172tPlC1ky/b36G8NXRKX1347+kmIvJCAalDYMcQE4m4NJhUTFbMzczZQkhNq7w2ODPoEkt8fHfN4KCYCkT3NzU0umnq6Y8B4sa0VHZEbLASWV6I4WVllYn+KC8+EDNaTuTlceKXMLVCASGwx8VQstkbrW0eH3Rbtueytb0KIxkYCqkGJ25Lj6pjJB3fejCfVLGW+Mq8HsD4Q/zR6f9xdEnxnkT0c6Iv1qdsFVKeLKSwzeYElZHl5xdstbflplpHowlv0jSt5xUA1Wym0tITWVhNQ7W2hs7Oj7NITQojNSEDlQlNoam4JzS22em8u+KSUB7jqKMSFYJUZG5twSxRJNvcCfDcsbEyuuO8QUIgnYmAUw5EPWKA6Otp9l1Fff6+JiHYTFdm231Q0LZgYcuFkdeyJND/C9YwV0tsBcXD2szzGgvU0q1WlIKIouC3Je3VgZMh3XWGNEkKIzUhA5YAPwi6gil64nycLS0ueZHJ0bMwtUXslSzcTqk+0yaTJd6PgsmTSFdmDC4tUBeRXGujvt/vt1n6ztUB5/J4JJ8T+0mJp2+0V0YxwwpXLbRrztx3xVSm48PpNQJJnjVQJCEkhhNiMBFQe4ApoLoTmAgKKGBIEVH5uENwaExOTYfS+CSibXPZC4j/AskB8zPzCQiKeEFGkMdBZeHnRYgKqoxMBNeAiqsPEVNYWqHgMUXQ7x2N5tleXZQsUAspu09QHebiscV329/eFI4dNQA0NuFVOCCE2IwGVA032D8tTobUrtLR2hCYTUTnqJ3dpIZ5u3boTJqamPMA2j1V5rcFSMTU9G27fvhvu3L3nE+fTYmRE9RDr09vdHQ4dHInZx7u73CqVJQim+YX5MDE56YIYYbRdaNPE/hFMPjU97QVBnXW7aGtrC8ODg+HUyeN2LTjGpju0thb8+uQZEyaEaBwkoPLAVuwIqJZipwmoTrdC5QUTCtu6OeaEjNUchbFXBBQHJE9Pz/iRE3fu3HPXjQRUvriA6unxs+8OmYDqNjGVtYDCFYfon5iYiikptimgaM80aYQ1VtepqekwbQUrFrtSs4Sdd0NDJqBOHA+H7Vr09vZ4YLkElBAiRQIqBwgab0JAmXhqaW1P3Hh2qXMaeFmBMxkhooiFwjUSt4U/PbNzvRInygc+0WJhcAF1d9QE1KwJqMYWhdvGmgqTteckas0nB9Nm/G8VW91l19fXGw4MD7vriuNbCCzPEixQCKfxiQm3QFWS04t2gQUKAeaHD1vBnfcgY2HdShC5XQfEE5Y4zp7k+CSysueRULRaaB98LtqLRJ4QtUECKg88BqolNBdarbS5NcpLTjvymFBYxePWwAKFtQYxNdegFhs+M+LJheGkCag7JqDuje4rFx6TIOIFEUMsDjE4eU6KCAPOuzt29HAYGRkKvb3doaO9PbRaG87679JWEU6kpCA7dqVJUclKzyLh3uhYuGvtnN+Vde4zT2eAIDEhhXg6e+ZUeOnF5/z6dHV2Ju+qHxC/WA6Hhwfd7Yq1TAiRLxJQubBpFx6B5B5Mzm48shvnIaDW/NgJVuJYoG6bgLp7j4llviEtNi6gVmOCUOJkbt2+E+7e3WcCytoPR6iwA4zdcIiZXAWU/S0E1HETCAeGTUDZZIxow/qV9d8tJ0UdMwE1M+PB4JVAG0A00cYp/K5cjnVJrHIIqHNnTrqAOn7siOeGqjcQeohePmt3DwIq+3MLhRAPIwGVB8w3uPFcRGGFag+Fti6/zSOlgbs1bAJhWzeuvOs3b4ebJjrImYS7JHWJNQJ8Tixp7Cq8e2/UJtkJt0IxYfL9GuV7VAsT99DgYDh96kQ4dfJYOHBgOCa2TA66zQJ23PF3EARMvCeOHwlnTp/wv4Wgyvr4FuoO8YNgigJqwm9JVVEJJNAkGzlpO9g8wfluqcs6K4GNgOK7c617errD4UMH3Qp18sQxF1G49RCZqcDMU9xC+nmoE4RtX29PGDGhi0Xs7OmT4cK50+HC+bPhGStHDx+yz0bQu9x5QuSJBFTO4LYrFDtDa0e/3ZqIyjGgHLE0PjkVrly7Hq5euxHGxyfcPYKFqpGEB8HBV6/fCB9+eDncu3e/vMtq38Q/GWyjP3L4oFs9XnrhuXDGhBTCpq+321/LAiZYjmshXcFRm4gvnDsTnrlwzoPHyb6dJbQ/RD5tFLGDcBqz9hkFVOUWKFJbkDgWNx5WVw6Z5vfy+7OGJJqe0sBE1DlceVYfH3vhmXD0yMHQ0d7hQjRvkUIcGmKI4HavryOHrK7Ohlc++VL4tV/9YvjKl78QvvyFz4bPfeaTLqKwJpLDizqWgBIiHySgcga3HcHkxXYEVL478pg8sNxcvXrDBNRND7BldU98SKMIKD4nO++uXb8VPrx0xWO52HHVSN8hCxAwWBI+xmT94rNuiWJS7OnpcatRFhRaC25pYkI+duRwOHf2dHjWBNTBgyOZZ96m7tZxNVsbxTU7MzNrAn/S3bKVWqAQYgSRj9nPY4GadAslGydIsJpDTqj2Ng8gdyvU6ZPhxReeDS8894zniMIa1FwDKw+5uHApUi+D9lmOIaDOnwmvvPzx8Gsmnr7y5c+bgPpM+OynNwQUGwJoK1lvAhBCRCSgcgYBhXAqdpqAwo2Xo4DCQlOyyWjOVueIpxu37oT3L15ydx4r/XqGSTS6dcbD7bv3wo2bt9wVSVD8dre57yVw1xRNROG2Y0cc7qNPvPRC+PjHnrPJ+0K4YJPnieNHw8EDw37sCm646HJ73J3EYywRZBjnveR4Ir8RE+2Lzz8TPvmJj7llhd+FoMLClaXrDrCCkm6D+sXyNDs7Wz7/bifxS1ihWDAQ98fvvHb9pu/U5G9kDQHlWH+IM8ISdfTwQRObp/zaYQF62erl2Qtnk/oY8Qzm1EcUL0++jtQLpaWl2a85wem45oh74/fgKqRenn/2gtX78+HTn/p4+MynXw6ffPklE9XPW/2dc5cigpeUC329vX6G4aD9PLsHjxw+4L+v0KJ4KCHyQAIqZ5pt8Npw4XWboMp3dwwTFWKE+CcmlTfeejdcunLV3WL1DLmrJqdiADz5rBBPBI97HJdNsvsNJtZ04mZCZiLFuvCZV14On/rkx8MnPvaCWyCOHT3ikycTZ5ruYCsB5RO0iSPey0T/7IVzcVK23/X5z37KBRnZx7FyZC2egCNX2HFHQlSsijMzMYFmte5l4qkQUBcvX7F2c9stW3mBOOUajowMu0XwEy+9GH71S9Hy8/LHX3QX6PFjh8OIXeOeri63FiGOnkbZNdfe7rFWiB8Erouns6fd2kUdffHznw6/9itfCF/9ypfCFz73ioteRFsa78TfYtcgbYbHuH+PHzvqljMsjUKI7Gn5O0Zyv2Lioa6PWwf+3u/84+Te/gQrU2tbT2htt9WfiSdin4odvWG1NBeWF6fCyhJiJh+zurtKfEUfY044M6yt2OZuGiwMKY9OsrtFOnkSCDw6Ouai6f0PL4f3PrgUrt+45RNkVoHBWYL1hhgUJrq8cBFlYsZjcMhJZJMik2x3Z2fo7Gz3XEVM0FzCBw/Wy0IzWqEIgI4FYYXA4neQouCETaxnTp100fTcs+fdokUQORaqNOg46/aBe+3OvXvhhtUp7mXEDjvoqk0/0GKigR2LCDR2KmK9wfoCWX8Hfh95lrAuEUDO3zpy5JBbpXC58jnS68fxMtQLfZA2ntbF5oLFkMLP9nR3e94p+il1QbzbcRPHp08eD+dNPBMg/vwz56Oly+oPgZQKZyxjLp6srfC32ITB9SARLUKVWDHiw3ZC2hYQZk2JOKd98bcofA9StnDLZ6Mg6vMAN+3Vq9fDlWs3fFPJurV5xoby5/PCO7fffnlX/Ln4neJtvJ9+t+6uDrfYUqjzDuuP7e1t/p6swGNAn7hhhTEPqzsWVly3XPfYpze+1+b74sn8zd/+q8m9DVis4HrPgibrcDte/o3aSnJ+C5P5177xzeTe/oQM5B29R0JH35HQ1jVkQqrXSl9YmLwe5sYvhfnJG2F91YTBWik8yOEcL2Ay6evr8UGZyf5jtpJ93ibKIc44G+z34OHdJuZ6WvQg8es3Y8zTRSsMkATBEyBcr3z9N389fP23fj184bOvJM/ki3dS66pY5LDUEffjR5lMzYTp2VnflUZyypXVFZtUHjyUWJIBmPbAoEGOoAGbpLFMDA8N+GRNiRNH9sHQDC8UJojX33w7vPHmu+HDy1dcHF+/fmtH7rvNMJHxXSgvPP9M+PQnPxE+9fLHPP6H75tVwP2jpC5EYrqwrLlr0goLAaxgTPCLJlqeFtjuk2BqgbJJmTqKg3u8jzjCmoS4QjhToshlct867orPRX4tYsOumNj4yas/Dz9+9Rf2+cZiu9jGcB8FRBRkbcVWF2i4I7nWfE5/bEKy1Z7j+vI8u0NffulFt8Th3syDyanp8Nbb74U3rbBDl2tMDN0SgmN52W/T8YQdu4wvLPC3+s5cO0Qn7k2+G22Fa873QNBS+K7UB23rOROvzz17zo/1oW0RoJ+lgML9/MHFS+EDWzyyKYJ+TjvCm8B34/vg8i5Ze+I+Iotb2hZW3KzzoO0VvvPtbz1W//39Nv7ZGJgFElA58LCAGvb4p2LHQFicvh3mJ66Fhembbo1aXZ43IbWzleFHwQDL4MbgQJzE+bOn3SVw9szJJN5lJHnn7hETZU566oX3PrwU3njrHR8cGThYOWM9q1dqLaBSyoOnDaZxYGWAZbW64hMGEyhdOgou/xGbLIJbOmgTxEL5BJFMfOmk6JP5FhNytfB5KEx4P/jRq+EHP37VLVBMhkwUVQw/jrfz5PuwQPjMK59wEYUlh0ESwZgHfG6Oj0GoUgdY2Cg+4dmkzcSNFYjJ7Um7R/1y2/9SVy0FFypWNW6pK6yHMRt9LNQj9YTI2Qo+FzsU5+cXPY7wT7/7g/Bnf/FDd41jFdvOROvtxP4OfxuXJUKO60iMFTFV5Jnq6sAK2uGiLn2ewHUsnFg68wABgTUNoYogp/1QiJ1ETDFmEDNJ22IMWbD6YIyhDh6F64dYou13d3eaSKK99IW+np6yWOV78V14npQRFK6HWw7tGmXZX4jlIycawolFUTzn0RZGNr/O28KI78hJDAh0RCOF59LxYCtPkJCAakgeElDdI6Gtc8BE1GAozd038XQ7LM3cDcsLE6FkZc1EVN7gDmCXFe4mAl9ZqZ88fswH5Hj0A5aHaCbOE5oaxVeGNuGnMTFkTn/n/Q/LAor3bHe1vFvsloBqJKi/uFIu2WR+O/z5X/wofPd7P/JNDekKOss6Pn/utFtACLbH/UVqBuKRXBxiXUvet9dJLRK379wNf/Rn3wt//Kd/4RbeKLw/+ppHi0xH6Gxv90z4WCg9oasJiUGbfLBsd3V1ld3CiA8Ea3R5xZIHfO4oSlddPLDjeNwWYAgNdu4S53nv/piHAiC0SOnCe7bahIJIRPT123dJg/YJxo/fzwShPU9MINZ6hFS6GOXn8gZx5JZMRJLfxu+HMKQgHtPi1k5737wJMPE4eQsoxUDlwMMxUF2h0NoRWqxEd51Vpg3ouPDWVhbC+lplOXB2AgMaVgAGz1UbXDEDL9gqldVyNNcjoOL78rBCQBRE6/432YXF+XaXrlxzs/W7718MV69dD3dt4GMwyHJSzYtaxEA1OtQjFgJincjrhXsC1ywTg0/y1iazhMUALC2W3ErADkYmepRTGiOzf2hy4YqQmLJJFlcPaSRwK35U/0I8kSoBaxLB8rRzXFi0deLwRoaHXVggnnq6TUx1drgVMF2E5X2d+Tv8DQQbf5fdi8SkEYvWm8SSYVnFQjs1M7PlHMXi8dChkXDyxHFPTXHGCrfk1zpg33toYNB/DyIRK1WMtctvfNwM9mNPW2FtmLxfWL2wiPX34XYf9IOtcSHy3RlXcRNjwRKPk3cMlARUDjxJQNH1mpvITt5i4mkxrCzNhnW7jUvj/EQDpvulpWVPNkgOHszdmPibbQDqtMGH1RUBsAwqeQooVsV0diwQl008vf8h4unD8Pa774dbd+65Cb5RDkCWgPpoEEkkQr1285bXN7FtCGfGjazFE9DGiIEhPgzxhAWBlSaTektL/gcy1w/RxefxWSaecIUzTi+asJy1x7genwaiAXccgeq085deeNZjKHnMMT9l8WSTOuKFiRzLDGNHngIj/f3UI38PF5yLp96N4HtED7tWGcuwcHME1FYB9MR2nTLxRB/mO5ImhBCHQ4cOukWK7+fiyYRYodDq42OtrJh8P3ZOItw4D5PrHGMWBz0Gi8d8d9ysuDXd+mZFPE7eAmq/jCh1QUyq2REKJq4Kbd0msrrd3YfgyuOQ4RTM3sRnsPK/f3/cA3gJ2H7v/UvhnXc/cAsQgb1YB4iV8AzRNtDifyeGgJUclqunCRssXPwdLEyItDmbJOnUntfJfqdbIC5eDu+8F/8e4gkLFK4dJln8/kulpYYQT+LpIJyI0aINENBMOg3aFu2KAT/dmZY1uAQRDKRJoF1dvnrNhRubERYWF6IVJgfhVm+gYRAaiAgmXs43JAkoZ+VtR0QiFggU992GvdHFhaByYYGVp6fHN6EQ0I54SuOy8hRPKenfIQCcv+1xWMRnmeBBLA8lQorvzU5VFolbwXjLzxOk765J+zkX3Mn3w+qDeOIaRtek/d3kZ/OGOkIc8fmwBnKtqQe+H9+NMki8ln1nhIDSVOweElA1xFcwJpZaCtYxTUQVPTZqwDpAJy8m78oXxA1iBUsAlp/v//Cn4c+/98Pwwx+9Gl792S/DW++855POnXujbv5ndYN/HRH1pEmP5901aO8hgJWVH8fIuJvu8lX/na++9svw3e//KPzxn30v/PS1X5iQ+tAnOT4LP+uGa2mnPQEimi3n7qq9c9fa0/Vw5eqNMD4xtaXFOiu8HZqIpx0SW8eOLdr0ZWuDWKV4ntf3i0hnEkYckA8K1xQB0giKKEKSNwkhdowEVA1pcvddITlcuNsDy9mdhxUqTwtUChMH5mwsQwSYImy+98OfeHDvD378WvhpIqDY/ozpGxHEzhBcLkyKT1q9Mx2lExfuAn5mbGLSJs874aILqPftd//ChJoJqD//XviJC6gPXEARFBkntfi7ROOD2CaWLRXRtCfcdxPjkyag8kuKGq2gq95Wb1v7dQFlwh1LJ7ualj0GcP8kZcUyRIA3eaM84WZvTxLHw6tSUEJUiwRUzWH11+yuPMRTW9egW6NaWjE35+vKA0TUZncbgopjNXC1kQEcixGWqZ+//mZ49eevhx//9Oe+/fwvvv9j3xL9J3/+/cfKn1rBisV7vm/v5WdY+b/+xjvh3fc+9N950yZSJtTZ2XkPePSA9n3iUtkJuMGw5rGLiN1FuGDr2XJCPXqcjX1O2hKihSz412/cdMFOW/soN3BW8DdwIaZWsMsm4F5/8x0X8resjfM8Yp9rvJehTnDBs6DhO7MbrVauNiH2AxJQu4ENYIWiCajO/nKiTQRVc0sxNDXnv032URhYiR0hmdulK9fDm2+/H35qK3esUn+O2+3Pvxf+2R/+Wfjd7/xR+Ke/9wdblD8Mv/f7fxL+4I/+zLdMY2lCdL1mAuztdz/wyfSeJ76bl2jaJkzuJMYcHRvz7cqIznq20lGn5EPic965dz+898HF8LNfvuk5nzZ2VtbuC7BASK2tuBB/9vM3fFGAJYxt4emO1L0M2/3ZOOLb+sfHPcCesYdFmkSUENUjAbULuAWq0O7ZyYmBau3ojQcNF9o80LzW4FZhksNyQIA5Ad6s2H/2izfCT179hYsh4pewNv3Rn37vsUJc05999wf2nh/7e8l+zM+S04nAcX7n/bGJuPvKJi0m23q2ptQDCAAmelypo/fvm/hk6/9Gosx6gc/CZ0KEYzGL7uF74cOLV8Kbb73nVk2CyXlfLT+2B7IvL/s1JKHk62+941nQYzD7pG+oQGAhovZCe4z1EI9vim5M4hEXPY0E8WBsHmHnLUg7CZENElC7ho1iNpJhdeKg4Y6+o6G956C787BCxRWiRrr9Ci4ohMib77wX3jAhQiwZj3Hn8Vo9QFoKzl2bnJpxofT2O++7gCaOjszjvnvTJvPNx8rUGoQFCwTEEgsEErYS9+cbGd79wMU9Fj4sUo0MLlLEItYmFi3EM7JBBFc6rlTcmHzPmK2+vpPUCtEoSEDtFm5KjwKqaAKqs++ICagDHlwe46AQWPGtYv+B9QTB9Nbb77sl79Lla+5ixcLDmV/1AJYbz7tkou7GTRNQJkh++JPXXEiRPDPuerMJexcna/40We/T2Kz33r9owiIRUL6R4VbgOCHSKzQyiFWsapyB98HFK+G1n70evv8jE1A/fz288bYJqCsmoMYnrT7SzSASUEJUiwTUrmIiqqUQCkV25A15PBRiijxRHhO1C+48UR9gKUAscTo7u9hILXEpOYSXPEeIFlxmBG5H91i+E6K7iKzEZKjkFJv1AO00xxcbBcg0jkDhM/PZEU955XzaLvxtPjPXE4HB7tP3P7DP+cHF8P7FS+5qjAk+7/h1xeVF7Jm79+zz1wtpHbtr0gS0pwuZmXWrEmKVTRrk27poQhsX/NsmDhG0Fy9d9d2uiEfyunEt4u9KfrEQYsdIQO06ze6yay4UXTi19RwIXQMn/BBiduaJ/YtPdOsPXKxcvnojvPrzN8Jrv3gj/PKNt32nJG4zdjW6lSdnoYJ44u9wPAjJMZmYX3/zbd8o8OOf/Cz80u7fNOHErq/oJqrPjQK4r8jMjyv0ql1TruVPX43uLtyPb771rgvC++PEDC3Uzffgc3P9EXaIPNJDfGBC6ee/fNNdkt/7AfGHPw0//unPTMR+6OdLEteIZa1e60KIRkcCapdxN15zIcZCtXWH9u6R0Dlw0q1RLYWO5F1iP4IgQrhgOeGswNd+8Xr4eSKg3uH4G9+SP2cTawyEzhPimFxAlZbD6JgJqMtRQP3MPtOPX/2Z38fyRB6wDTdRfREtL9EihYUMy5MLKI8XejUKqLff852DJJHFypOnKK2E9Qd2/dfWXBBNTpmAsron1ukXr7/l4u97P4gCkA0cZPrH3YuAIl4O8SWEyJ4mGyB23LtGR+/bKm0+ebTB177xzeTe/oTEmB29R0JH35HQZoKozTOOcyr80/VqPGB40cpSWJi+GRamboal2Xv2fCmsWSkfRix2na//5q+Hr//Wr4cvfPaV5Jlswe1Ceoh/8nt/4JamlHhG2YFw5NDBcOrkiXDqxLFw4MCwH6vBsRYc/8AxHBysS9ZpPzesucWPo3j0vDK6PgINcYTgwd22buKCiRpXEe5BrEncIozY1TU/Nx+u3bjlrkQsTmSsZ6cgr9eJ1qgIrgWH4XKmWj9Zu48e8fMNDx0cCSPDQ1440oPrybEeHJtBhm+SVHKcSDxjL4ln9MVQi19zSnKZy6TXm0N9U9dmWrju1AHXHqGKKPbb5DGWJz8iya4/rlMEHvFOuO8oWCmxmCH6qoVjTchcfuTwofDshbPh2WfOW1s7lrxav3D9WGwgHHFnvvqz1z2IHnf3o3AEyovPP+OFA5MPHTgQDlqdF4vxQOp6BrctFkjczu9/cMnd0deu30peFZv5zre/5f1rM/39/X4sThZIQOXATgUUAml9bcVubcCcux9Kc6N2OxZWFibD8uJkWOXgYQTUzqtMZMRuCSgOyeUwUc7w4uwuDnYdSg7NHUoOee210tfbEzgkutUmBCZ/DiZt42wvm/iBCR9LDJm510iqaiKJQGQKE/XSYjzP0CekuTmfhDgOxW+t4AIjBofX5mZjksZGhUmz2Mq5Y2123eK1I2s317mn2651L9eb57r9XDLOSUN0cU5ZR3u7CSssyPG0fhev9vtaCyTFjdcZUqHEAb9c41IJK120HCJW2UXHNSS+DKFKPi0KLlHEKfWASOJaI5J4jZgmcqshqrAMev1lUA9873jm2oBnMT9x/KiLi3oHd/f8Yrw2nH+Yiguuz6Ow0Dh18ng4beXwoQPefxCOCON6h3NKXURbYZyIcZFjyatiMxJQDchOBVQEgRTC8tJMWFmcDssLE2Fh+lZYtLKyNB0bwwPFNOw2uyWgmJBTa0e0ghR8YsdacPTwQT80FuvJIZsUsEqx0uaWk+WZ/Jk40t8RJ/MonBBN7KgjVxCZ6ZmsJyamwr37Y+6yc0uH56Qa80k/xhJtWFEanXhN0tvmUDBBhDBCfA4PD4aDB0bc+jdoogKhyhEpqdBCnFIPiFNEFZZAnkuvM783vVa44JjgEUlriYXJM7ibUOL6zyBWXajO+DmUFNyNWB3GJyZcSPkQkFz3zdc/va0WRGFPT5eLRw4Q5vtzcG29w/fHZcnuT87jJP8Vmxyw3j0K9XVgJFoY+/t7y8IYK229QzvBypZm2md3JYsZ8TgSUA1IdQIqsra8GFZXFsJqac7deBS3Qi3P23Pz1ijWXGgl/xM1ZrcE1GaweOAqQiTF0+TjwMCEwASfuvOwROGG6rBS2GQZcQuUTeKpVSRaRuJ5hm7hsAF6asYmcRucOfQZqxOTOWQ1Wdcr7vpM3J5Yn7DsISI4+R8LDZZAhBLiNJ7Yjzuvxa91ketuz6XXGbheFFyiiCiu85pbnKMFiknfhWxi+cO6tGBiFmuTi1oTVhRezxu3WFpbaTchhfDmO/Nd6x2ub9qeuU6ppZRr/ijUVWrJjYLX+omJXuq93qGdbHbpUsjHJh5HAqoByUJAra+RgBD3ylJYTlx4y/MTYWluNJTm7nu81IOwzqiR/ISoJfUgoFILB7E47W3tyaRnBXedTQjppE7BosL7yhOE/ZzHPln7iW4k4p/WNsXgROsUEzuTPSt78k8xeFcxZDQM6bXF0uci1CfYKEhjPFQhFLgtEANlQpb3NzfF600clImvKJ1QUXaTXDNin3CZIpo8/sxLvP485wLAJnxccdzGx9G95+cJ2uO84fvQVgothbILmO9b73CJ3TpKwL1dO9rtk3YhUrcb7tZCaPHvmyYwrm9iO4l9dSVx/daiXTQiElANSBYCKoW4qNTqVJof88DyRSvEQyGwvGCF8lrccVWKCqkHASWEEOLJ5C2g6t9eud9hFdzS6qKMc/M6+g6HruEzobP/WEx1YM+3tHCGnqpSCCGEqBWadescdyO0FEOh2OFZyjt6D4fuIRNQA8dDsWvYnucQYgKD6z/4UQghhNgrSEDVPcRWEFNRdGsTBw/jFmzvPuBJN8lYjnuwtb03EVNYo0xMuS+//v35QgghRCMiAdVQpGKq1QVTe+8ht0Z1DZwMnf3H/TFWqvQcPbn1hBBCiHzQDNtAxF1BUUAV2ntCe8/B0DV0OnQOnggd/cfs8aHQ2jEQWgrtLrRi0LqsUEIIIUTWSEDlQbI1+UGSiqCKjY6PYyIKYYSFqaXQFgq49dp6facfLr2O3kMmpo6Gjr6jLrDauofc7Ze699wytYPdgEIIIYTYQDNpLpiASo5lWV9FRHGGXX60FIqh0Nbj8VCdJpy6h86GnpFzoWvwlD0+5vFSuPYQW4ioIAElhBBCVIVm0jwgLRMCimSXfrZdvkevIIpa201AdQ+59aln2ATU8PkooNy1d8Bde4XWZMceQeZCCCGE2DESUDnAMStrywuePZzM4Yszt8P8xPWwMHkjLExxrt3tnMod+1uUu34YMWfprdrnIKu5x0+Z0GopdLg7j0KsVNml57v2hBBCCLEdJKByAOvT2koUUKW5eyZsbpmAuhbmJ01ETd30w4HzKi6kTLD52XkL8ew8XIkIJKxP7NCLAqo7NLe2h6aWVt+t16RgcyGEEGLbSEDlgJ9ttboUVkuzobQwYWJm1EVUWdxgIcq5cF6eHz5cmgvr9lkQdViampoLnlMKMbVhfZIFaru4Ja85nnuWt+iMf8vqzG4pQggh6gcJqJyJsVAmppbnwsrSjLvV/HDgXSorS1P+ORBWiLx1P09vDdWXfGLxJBAzHDzKqe0FP0Q2P1GDYOJAVz/dv8hp/+qqQghRT2hUzhmPh1otuWBZKSGgptwytFsFAcfnwLW3trIUg9xJuSAB9ZH4KfWtJqCKbeVT+PMiFVCIpyigGuOkeCGE2C802cS545lzdPR+mJ+fTx5t8LVvfDO5J0R9gyhBCGFNKrQUXLRgXUKwcJ9bXm+xUmwrho729tDe1ha+8LlXrHw6vPDcheQ3Zcvo/bHwo5/8LPzwx6+GW3fuhaWlpbC4VApra2thfX3dbymrq1b8dtXL2loUw7xHCCH2M9/59rceMw709/eHgYH+5FF1SECJfU3BBFJrsTW0traGnq6u0N1jxW67OjtCZ2dn6Oxod5dde3tb6LD7nR083xFOnTgeTp08Hg4dHEl+U7bMzc2Hq9dvhqvXboSJycmwsLAY5q2USqWwVFp2QRWfWwhz81bs/bOzc/768spqWFlZSX6TEELsTySghMgR3GMIIyxLw8OD4cDwUBgeGgyD1sHoZP19vaG7uzv0dEdh1d3dGbrsNrrWiu7KywMsSMvLy1ZWwsLi4oZIsjI3N+diaWJyysvYxGS4PzYe7t8f9/csYq1aXEp+kxBC7E8koITIESxNfX191ql6wvGjR8KJ40fDkcOHQm9Pd+jt7XHRhMUJy1MqtLitJcsrKy6IXBgtLLqgwho1MzMbZmZnXTxdv3E73Lh5K4yNTYSpmZkwPT2ruDYhxL4mbwGlIHKxr3HXXU9XGBkecvF04fzZ8OLzz4Tz586EE8eOuotuaHDABRXCqbU1H4vT02hpbvG4K8TcQH9fODAyHI4dORTOnj4Znn/mQnj+2QvhzKkT9lkP2ODQF9pN5AkhhMgXCSixr3EB1d3tbrtjR4+EC2dPhxeeeyacO3MqHD92JBw8MOLuvB4ElAkTAsxrDSkM2tqKJqA6XSAh9rCSnTbR9Owz58Jzz5wvx2P19fWGDhNbQggh8kUCSgghhBCiQiSghBBCCCEqRAJKCCGEEKJCJKCEEEIIISpEAkoIIYQQokIkoIQQQgghKkQCSgghhBCiQiSghBBCCCEqRAJKCCGEEKJCJKCEEEIIISpEAkrsax7w78GDsL6+HtbW1sKqlZWV1YYqq6ur/tnX7Ds8eGDF/gkhhMiXJps8djzajo7eD/Pz88mjDb72jW8m94Sob3p7e8KB4aEwMjIUTp44Fk6fPB6OHDqYvNoYzMzOhavXboQrVu7cGw3374+H+2Pjj51CLoQQ+4nvfPtbj42D/f39YWCgP3lUHRJQYl/T3t4Wuru6Qnd3VxiyTjU4OBD6TFQ1EkulUhifmAwTE1MmpmbD3Nx8mLUihBD7GQkoIXKk0NISWoutodjaGtrb2kJ7R1toKxaTVxuD1dW1sLRUCotLS2F5eSWsrKyEZStCCLGfkYASIkeam5tDi4molpbm0FpoDa2thVAotCSvNgbEb3k81CrxUGsxHsqKEELsZySghMiRpqam8m1zc5Pfps81DNaD160bewC53adLV9GthRBiTyABJYQQQghRIXkLKKUxEEIIIYSoEAkoIYQQQogKkYASQgghhKgQCSghhBBCiAqRgBJCCCGEqBAJKCGEEEKICpGAEkIIIYSoEAkoIYQQQogKkYASQgghhKgQCSghhBBCiAqRgBJCCCGEqBAJKCGEEEKICpGAEkIIIYSoEAkoIYQQQogKkYASQgghhKgQCSghhBBCiAqRgBJCCCGEqBAJKCGEEEKICml6YCT3K2Z09H6Yn59PHm3wtW98M7knakFzS2tostLcXLAabbL/stfF3kysPFhfDetry1ZWklcaG65VU3NLcltISuOuKx6sr3ndUEdeX969d9zFdwnacFNsy1YftG/KvsGrK9ZZ+f9p//P78bnYJ9ftdj15bLfl9/ibdg/qjn/Wt5pbirH+qNO9SlInG/83vA6SekqfpX7SeqrHettjfOfb37JL+vA17e/vDwMD/cmj6pCA2gMUOwZCa0d/KLR3m4iKk02WIooOvm7C6cHaalgtzYXlxUkve6GzM7i3tHZ4KbR1x2L3G5XVZaufBasfK15nXtaSVxuDDTHbElrbe2L77hzwCXnvwuTJf/wPUUTfioW7sR5jXfIafdIXM6txMYNgfrBut+X3xEl5d4jCiVIodoZi56AXX+DtOagcLrXVh99BFEUePLB6oC6ok7ROywucpFidMa6W681uRXZIQImPoCl09B8NnX1HQ1vPgdBSaDcx0O6DV1bQsddXS2HNBuvS3P2wMHUjLE7d9EGh0WGAb23vNwHaF9q6hkNb95CL0UalNDfmdUMdra2UbJCmNJa1MLVatBTarD4OhM6BY6Gz/zjKKnnHHoRhmJHYJ9oogMoiyMoaVl8XSyaUeC3tkysLJpoX7dbK6pIXn7BtUt61/mn1lFoNEU5dAyetDk+E5kIxecMewWfOWD9pncRr7i+4KCrXmYujKJC8rrzE+uI2WvVjHYvskIAST8BWeUwotlrvHjodugZPhfa+I6EFc7kNVNkKqPWkc6+Epdm7YW78cpgfv+KDQVx17bgJ7TpYnHyF3DEQ2nsOeil2DSSvNh5Ls6NeN5R0gKbuGgnaLguBZhNQHdamadu08b0toJL/pZOxiSjvVzy2f6nFIhVGvO7PUcc+AbPASQRzapXilj7KRM7Pcmul/LfywgVUHIfau0ZC9/AZK2e9PvcU5Tqz/xBOLnx50kdFu972mHrAypSIK27XXTSl9cW4mt4m972+qDfqPN76z8c/xB8V20QCSmyJuzkSV0f3yLnQM3zOLVG+endTeZaTjXVdXz2thcWZO2F27KKXB9bh04GhUUFAtXUOmWgacvHU0WsCyh43Ki5wx65YuWQDdFzlNqaA6nALVEff0WQCPsMr8Q17mUQwxYkyGZp5Lpl840TNO3hMSd0/FPooFo4oqrByrC7PW1mw+1iqYrE3xd+b/v6MYWGXCigsiD02PnXb+IQo3pvE+krFU4rXGdeaeim/J62zWFfpuBoFbxRSXl9eV9RdLLzm9e11l0+97UUkoMSWpEKpqbk19B581soz0c2RM4vTt8PM6Pth5v77vvqNK6TG9dsX2npCm4kn3HftvYdMQB3y+40KAnfu/iUXuKmbAKtEI8GiIHVFd/YdswXCWV8g7GkL1I54fOhmOI+Tr5Wl2bC8OJXELHI7FVYWp+09iXUrp4mYhR3iCRHFoqRn5LyVC16fAh6/7oyjqfVw2epoZSGpt4XJUFqYsPqci2KrXHdiO+QtoJTGoEFBPLW0doYiwePFThdStcAnt9aO0NreF1qKXR7n0Phsnpj3xiQtqbEfoJYfLlh/2JGLWCkQgN81aIuCw6Fr4HjoHjrjYoaYJISN92Hry1m6+8V22KreTHSyAajQFloJK7B6Y0HXafXWwwLC6+1E6Og5FIqdAz72W8Vt+h1iN5CAalAQTAUTMAQ/05lqtcPFBRQ7a9pNuLV2+WMhRL3QFBdXhXabiKN1NU7EJzyOrOfAhdA1+KiAUh/ebdJwDKx2MS5zwMUSognrK8WFr9Ul8ZpebwgoWWV3FQmoBqW5JQoZdpBx22SPawF/t9DK38UCZcJtT1ighNg7uHu/ULT+iaW4N4qongMxIH/guN+2dx+w5we9H9Of48YTG0M0Ie8OWA6pN7cexnpzKxRxmf3H3BJFvSGqqM9isnAmTpAxWWJqd5CAalBSS1BrJwNgRw0tUC3ecT3v1J5x4Qmx14kTtFuu2TjRPRI6k4kZ61RH71GflHEj2Zv8/aI+sJrzenHLlFsUD3udEZyPqGIRjevPY2K97kSt0NVuUIhzKNgK01cidlsrM3wUbvHvxtgrmf+FqHc8NqoJC0fBY2zauofdstFFcevGYZ+Im1qKPmHLmlEnUA/UHZb/ti63PsWYNlx7Z+2+CSiEb0tbHItVbzVFAqqhYBDEV75h6mVV0lzINnHm03ALlK126Mz8fVY+dNy48lHnFaI+YeyI44fH2bj7v9djbRBT7tKzWyZod8+nY4pPyOrXu01ab9G917Op3ka8cJ/6jPUmS1St0FVuIHwAdPEUszT7Vm8riKladZjYkQlS5e9vFFwDfD4hRGNgo4lbnNhNy25eApQJMO/oP2ITdH8cV2y8Ub+uM2wMRiT5jj2rt5hslo0Bh6L4NZGFh8IqLvkBkRcSUI2EC6i4UwOrkwsorED2uFYH4LqAMrHkPvfWVMDFQEY6thCiQbDxhJMLfDcvu75wDQ2esgn5qE/McVGUWqFEvRDHYOaBNhe6nmx26JQJYHZWRisUYzQCWeSLZrwGgo5D5yD5IyZ43znDasQHuBp2FoQcnwU3on0OPk8t3YiZ8uCBJwItnzVGNmDPsL76WAK2+sM+n39+jtpZiUkz/fw7jo9o5KzFfObke5G12eqDpKCxXvJNArnvSPpyDAmIqQ/cPdQ1bIIq2TJvfTuOL9sbY8i6Td8pZ922vuVJXf1YoZX4fN33rTrH6y0uqPEAIIL9OCqrs5iiotcXudENq2k+L3RlGwg6gw9ybD0udrvlaTfB/B87rq16MBuzWm0wGMxdcCTHX6xymwz0Nvon76pPmIN8ojJRwblafuzDyoKJQY594Mwz+/yNOFH592KS5YiLOPmSidnrhXPB/A3JG0UmYK2IbqGiiyjSHrDTi9gaT5PCIs310zYXat72NoT9SmnO6tBEsNUnwph2KRFVPbFeqLtW39hDUDkuPc73jItaxUPlia5sA4FAiUGEvTF4fJcFFKtWN/97Lhl2AjaugPLDPf3ok3gMxlrZChUtObEkg35aajKBJ38n+ZvxM2z+TCYyTFS4+CvFc8/civYgOWerIUVG/I7xUNVlE4WLPgFTNw98AqZeONYivRbxutj/YmnI77zL2CQcE3C2WX82AUWaAwRU14jnibLVkkmnSqYL6oRz3mibJoBLsy7w/QBd6tXap71o70nLo/WnOtweWKJiXCrjMLspcenFbOWEd9QuPnY/orPwGgiEE+fdsf3YD8C1FQdbWHeLlaWZsLI4E5YXJsLC1A0vnLfVSDDAeAyXTxy9fj1ZgfvznOfFCs4DacmhQ4mPeT+TTYw/S17LcKByAYFL0QSDW8isxJPd49mD8ZYJyiYfTm3HzYXYsDrh/CzO0XKh4edn1bcl7TFYUSfXO3UpUfya2/Uux/zZe7x+bPKIsYFWmnmdOo31x/OiMrx90dasTS3M3A6LU7f8kGq3cJpIp00+HSwihBY0u/UK19LGhE5fi32mOe031J33q1iHWFNa6HtJ/xLbIxWijAELM3f83NLlhXEfD1YabFzOCh0mLMowEHEqfdfQWRdPrAzJybRbYPVgdYmQ4vT/ufFLoTQ/nrzaGDDIM4gzGfug7RN0TCbIJBCDNZPnGdDtPR5zYBP7Zktg3ImYnQUOgeQWJSwvHAybWMbWV6OLkZX8g+Qg51gYPKPLy8WUvW5PJoNHo63mEVDRNRGFULLT00UVE7Pd8nxaN628zoaKTo8NpLCzDOuoDrCtHBfctB1rU6X5sbA0dz+UKPPcjrmQ+kgQwfwzQdSSLFDi4iOtP0RTrEevO+rYBFZa6FeIZ27FdsHqx7i86AtZytLMXRNSt1xMNd44UD0SUKI8GJGFtmfkmdB74EIycceV9m7hVhBbqTKgzo5+EGaslOZG6caMwsm7GhtEkVuayoN8u9/34xQoJmp9wk7M5VmBCPJBkNUjlr6kuIuROCcTUS6gsEw1moWpWhBW7ARlEt408SJqi+19iSWx3+qm357rSn4oG6K4SF2Ha3SC2N5zwXo9QtLvIjy4H2/d2pm+liPRyjxtbREr8y0rN/3xgxCvw06J1qYkJUtaf4heG9eI7+QYE7eydw4kP5EV1F0cn6J1NmsLLSM1N/x/o54eus0ZxuUYjrDk9TU/fiXMTVy175y02T0yNm8HCaj9jnW6aN5u9Z0xnMpNCn8mhtTNsVvEGId176yz9z+0ctEFlJv/1wnCbvyOGi1UDPaxDvzWhFJMPMh5YiQetAkbt18hO3cDg1+6+o8m+GmbzKZcWK2vR7deanXaTwNixCaizZYMX0hwCKsJKFyw7f1WP8NJcsEMXdx2nbHseRyPCViPlbPCRJwH5e9ofbxs/UysOV7o+zmLqLKVuTQbFiavh3kry/MT3r/dlbfDthf7FQVXXrT6ugURAWWFnWRsy6efZQl1hcCg/+DqWlmatbosJa9mACLJvpN/r6RdbrgjY71tCKx8QBCmrv/FmbthfuJaWLDimzBoux/pgt07SEDtcxho4oDZ7oGd3ZzMPXLWV2zWVXPtiB9NXM3RKXHhzY5dDkuz93xyYdDdG5YRVo3xOm+2AHAelZeeA26FwtqRpbuI67c4fccGwDvuFiWmacXjmpIVs113t3zsvPs2NtRH0v7T1T0ittXrYiAG07INv3Mw+YHq4brjUiWgHcsMQgJxu76W4QS8iWhls1JgswbCArdkFBgxdUiRK+DfPS82L5LmJ66GufGr7s7jsQf177iPU3f8x//oU83ef+L36wmd/UdivGffkeT92ZDGCiJ8cW8xXiEOs8LHa9zKVmdlqxpuZftOqXXNv7LXGSUP4rhM3SzNjprwJT71pn3PGRONs15v+4W8BVTL3zGS+xUzP78QVlZWkkcb/L3f+cfJPVEtrNKieyLm+cAKhXnb3UU5DpzbIxEV1kB9mzkxOjY4pUGodid5X6MThQoDUpxQ1jz+LA6OMc6mgGuPOskIrt/K0nRYtuI7mErzdn3n/W/zWfwz7Xs21YtdF7cUstq3lX4rYoNJyyav7HjgwgHLkwuoBRNQ82N+n7afddmId4tpNWLBApnEvdljt0Aa6UgQJ+bsiJaiFv+9WKPS/s3fTePsqoM6jP2KTx7jpDj3rTtu6GjvjW/LiNT6lFp4F2fvugje6vrvqKySryytMyyVSZ1Rd2md+fXb6L/Zi6k4LlN38e/yNxm37LvzubK0uNU5f/O3/2pyb4P29vbQ0ZHNYjd/h6yokiabFJgQ4sozmoCzHSSrxjqru1CSGAb/jBkP5ELUAxsimomYYP0NkZN1Qai5xctEtE/2M3d8pysxLbNjF90ihIXBNxqYIOAz5QYWIhOjviOyayjmhrLFXcORLD6oRxdTJia2uvY7LghsNn+4wJ4MS3P3wsL0rTA/eS3MjV32euMxFmUsQQicKpxAHwmLulZiyjoH3frlR7yIzJCAqnMQIvjQWU3jouA+gqWe4DMimqJrIQqoevuMQmSDTb6+mo+WhThxkmU7h8KGgdKsx7+lAmp+6nqYmzABdf9DvyXm0N0yJgTcOpkTWDMKxQ4XT20+GZNcs0Gnj9RqiXVmDQG1xbXfaXELZeLiXZhwgcsuOOKQ2KU8Y/XGY15LE4taxSUfLHsQUIzJxGrixcAtLLJDAqresUHqUXFSf9adVOR1uaXMt5yraYk9B+6mjbtuzcixRGtXUlIXDJM+VhMTV0zSbDLAolGyiRqh5QHubtXIflJ2K3MS6E3AtwdF43JrSCFl15d/W1z3asoT6wyxTdyYiSsXVqQXMEEchRTuWlyj2Qtg3K+Mx2moAYIqumSpMy1yq0WzXJ2Du46dN6mAojMgquoKLFDuwktFXv1ZyYTYEzBP20S7vrZqk/G8W6bYHeeT8eKUPYdVI/v4Q4+paY7n5cW0HeTdag8c58SELJ5OKqhiepLpsjvW82rhgnULIi5Yq+AM8d2ANh6TL9DTsXh9JQe/a4iuGgmouoZBCwtUGl/UFTtAnbV8Po9/RgJ3TUS5BcoHVfVQIbIlsXLYZIsLaHl+3C1Qi7P3POaGnGxYqLK3ZrBIKiTCKUl4WSAnmo1HTRJQHwnWKRe+bA6ZCUsz9zy5JTtsSaUQA/Q53iZ5f0ZgaXI3XpLHjt2BMS1Os4/bojokoOoUVglxsML0ymAVVw4euFlFu2fwTXei+K0VOjbP7xj7PN5R7fMxoDYXOmKWdFao8rkLkRPuhLIb0gwsxDip6ZvuFvKgcvo0rqWM8Z3BuIWwitvYpMDkCkFM8c/F1HTgmByyvCN+vT7zgDHaLYg2l9hiHPerPZG8KHaKrmCdEsWICSh816z0kniD2Oh3rqDKpmSEkx8FkoinqgZaeifJ40hqSOK4zZ9bZ5EJkRvoJ+u7bKF3d97UzVBCQK0ulSdqf1OG+GIJAYW12RZK6uOV4pWWWKOiO883AyzPeV3mtSsPS1QLi1tcsHgyJKCqRlewTmFVx+qOLajNySpvI/hvp1jnRDyRTM5WqPjdHw463XnHjTESMfuu561KBlf3twshciIKJPoxriFEFMHkHpi8FgOTM5+PbbHEgg6XPX1dVuadwFiMG3beLYbEr1Fn6dFMcTzOFsZnLIeIKJ9PFKdaNRJQdYr7rYtdobWj1wYpXGEZVJUNpAyqcZstR4PMJDlk0sDT5H1VgMDj88aDdrvcpSeEyBm3LJPXKO72ivmjSG+AJSrbydj7uPVrckHR12WB2hluH2RB6zv0bEFL3i+PYSOnVw478qze0qOPPEZVAqpqJKDqFHeFkRbAhAirvOYMAjXRRwywPriySk0EVMxHYiufDBSUr3IQUCb8fEeefQ97Nr4ohMgF3D4xtpHJOOaPom+vr5Qyt2YwEdOv4248LFASUDsirTNEb5qEM7dNAAYCyuoq9WZoXK4eCag6JZ5/1RUK7T0uSGzESl6pBvzuWKBsgDXxxAoVKxTboXk+C9iRQ+wTST8ZYF1AqZ8KkTO2+CF+xibeNRZJ1qc5s8+3x2ftDsJd75aMeAiwduFVAXWG9ZC0FIRU2Ni8hujNXEBZnSUCyg9Ep85kgaoaCah6xBp2XOGlFihceNkMUlia6KSpeHI3nq96dn6y+kOQdqG1zYRft39+hKAQonaUF0lYoFgYZS2gjHQytoHK7msirhZ35ZmAYiyOojf7Y3lincXNPkpjkA0SUPVGMhh5DFRbZ3J8iwkoa/xZQJAig2tZQOHKSwfaLFx49jlTCxQuyLILT4OsELmDG55Fkguo1B2UgwXKZuA4EbslQ9NItVBH0XJIVvK8XHi2ME8FlNeZxuRqUcuvIzx+iN0tvoOtw8VH2tirWi2kZuJ1zMRJjMQysU9WiIGyxwioLLbPxt149nlbCr5VFuuZ79YpJ9cUQuRJas3wk/etz9P/s4SxiIk4uvDSyVhUQzo+I349xUzGdRZhDkH8prf+pKgCtfw6ArHkAdgc2VIWUFZFDFBVWHBYldJB1xlYTSilwYounkqz7tJbX2UXHu+rtuPyOU1A2crUrWitnaG1mFjR7PsJIXLEum+ciJejJSOjzSEP4YskG6tImutjlBZG1ZMscqkvrE92X9Q/ElB1BKu66P7qdeERAzQRI1UuFRBGLp6Sg0h9x8eCW55WV+ZdUHEqOQKLjlutiHIrlH1uBleEYHknoQSUELnz4EGyUMKq7H06WwEVrcxxgeTHgsgCVT3UEfXm9UXuroxFr5P+zjx+9/5ELb+O8FVdsTO0dvT7bXNGCerW19O4pxkTTItxUHWixQmTMXlI3Brlr68kr1dHtKjxffr8VhYoIfKGxdKGOwgxlf2EiRMPF1BakqdFleR/Id0a6c2BWwmpapGAqiM2Cyh2sBFHlAW+RdaEkacs4NBKG1zjC7ETYTaOr8+a0MIalc0OED4/qQzKgtBWrEKIfHF3Pcc0YXG2xVIu1gy3MsciBZU1eV9Pl1EiAySg6gUbiMoxQxm7vNzClFigooUptUABK9Y1F1arJV5f8NVrFvD5UxceQsoFoQ+4Qoj8sD7NwsjjaPKcKtWXM4NxkbAHxvwswja2gjaBoGb8V4xVJkhA1QExzomYodbQ7LvWujMNuk4tUCTPjALqYYHkAmp1KVqg7HVM/1nggeT+fUgGSlB8GtNFs9PgK0Qe+FjCTlgbP7y/Jc9nSyLSchVo+4c4/nM8TocH52cfmE99mXgqby7Ia6ff/kICarfxlQemcDoQFpsooBAeWXUiLFBpDNT6yuPnLK0/2OTis/dlZYHi88egeHYVcmZWFFDxOydvEkJkjI0n1ve8pP0tY+Lca/9Lb0VV+GKzEA9ibyblC/m1MoZxP91IFMM4ZIWqFgmoXYZgTISFC4wCq4+2KDQQTwx+VZCa8ek0WJhWS0mW20cElHcse568UAgpt0BlsTpBFNr3cMsa38vEFMLQv5+anhA5kIon63PlFAPZCqg4rrBjbNUXW7JkVEusM8Z+Yl/zypmXjvPMBZ4uQfVWNZrFdploeYrJM+PZcbHzxADN5E07wDsHKQl81bGR+4l0BXFnzibsfVFgRQFVzh1TZQfzz2/fL+aEKnp8lx/v4t9RTU+IPIjWjGIyEecRd2ijg0/Gy77YenRBJirAx3kreB9sgckRWCyms9pAtBmPhUVAsZHIF8myQFWLZrHdxsQS1pkWzz5uAorkdC46qJpqBj5WiaQoSCxQBIkvLyQWqIc7zkMWqNXFaN61n3UR5WWnJIODiaWYEwoB1e3fEWElhMgYGzJYgLFIiQuVAr0weTEjfGG2Gl1BPhFLQO0MX2Haf4yRBbfOE+7Q3Nrhj7OGOmP89zjXdVmgskCz2C6DUPI4ofYeP/IEoZHFeBddd6w2SJSZrDjweXunebjjuFRKrVV+1IuJLY53sfuPiq2dgtuOs/0K9j09QD4HH78Q+x3Ekvc1rBnFeJpB1osVH0EYLwhK9ltNxDuBhWXcpdxvpS+xztsCOvFAZEE5hGMF150JXuYCF74skmWBqhYJqF3GBVRrmwsLt87Y4JcJJnx8tUHcE265xKq0JfZ0WUB5Z1uMx7uQyTijTobViQGimKRokAtPiHzw9CHs5ip2+nmUmW+JZxyxEhN2rj15XBFPhUVkAQHV0W/jogmo1uT0CQRURlMzdcSYjtXJx/XVKKBIlhw9DKIaNIvtMm5ud9NtT2jBAoV7KwMTlAd5+uneiYByCxQdZqtOkwyI5dXK4hMDzneKr4pNQMWUBtntMBRCbMLEUnSXd0SLRk7u8rjYIog8r2NH9jDuskviQtu6Q7FzsJxsOKaeYANRVhYoUtQQnrGwIaByOuJnPyIBtUvEIHF2qRVCoWCrEBMW6QokC+ggdJg0NQE+7+2A0MJ9V066mVF8A8fSeJb1REDxvT3OK+vVsRD7kWQ8YWKmf5G8NibkxV2e7TDPQotz9tZYnK1i3d7e2CIMq6cYstEbil1Doa17JHT0HAxtXYMmeDvcBZslWJsYy0tzo3Y7a49VV1kiAbVrsAqxAW9T7iffhZfR+XdRQC2FlcWZZPfd9joOQmsja/njOaN2CsLQg8gRUMRAmYDyQT/jAUOI/Yj3JDZrWL/y5LXtPR5XE+MNMx7msVRj3S7HV2aTN24/QD25gGrrNdE0FNpNQLX3HnQrFOMjY2KWYG0igXJpdtRveSyyQwJqN0A4MNC1tLl48kKepMT/nQVuunVX3GxMjrldAWWDIefhrfixLknsVAZEkzUiyr5n8p09YRzfN+NBQ4j9RlyIsUmjN1qzi10eB9WURxC5Lap8124puoWyGiP2DIzvTeTiYownnQQB/V3RKki8U9egW57auodNOA3Y89RXht4Hj09jlyQhHCyGp8PywoQvpGUtzBYJqF2AVYgHVbd1+0okZp7NqioIDSR9QTLIbU5NsA3oYJyHt+rm3uwsUJC6LVtMOBaKSdA8393+CSF2Tkuhw60YHb1H/JbgZBYnbuXOuHvFWMnEhWcCarvW7X2BXWy3AiZZxRFHiKT2noOhs/946B46E7oGToaO/qOhvfuAW+QzT1ngi+clXwTjSfBSXhBnN54LCajdwTqZZ51lpegurTZ7LsOq8BUIwYMPJ8fcDligEFCxw5mAyigGqox9T0STuyzJeWJiKvMRXoh9BhZdF1B9R/3Wc8phBfG+lbWCwoXH4izZoCILVBkWg57IlABxAvltgUx9bAiosy6gOvuO2XMH3FpIPWVJOvZH8TSd3M56XW13IS22hwTUrsBOmVREWAfyOIXqBzlPnGlCCeHjnWU1ZgrGGrXtnTK+uly1YitMGyTT/CFPTYNQAXzPsoAieSgWqIxdDELsbZik4247JuC2ruGkDIVix4C7i9wdlLF48p29jC82rjBBs9BCSDXSpMxYE92dHaHNhE2nCc6uwVMZFhNHgydcLHX0HzNBe9iE0qHosvP66UuyjcccXdmFMKRuuyhslxcmw9LsaFieT113HLmT5gEUWaGZaxeIIoLBLxVQGVmg0uBO6zC+Olwr+XOx02yv4+D+42c8zgERZYOkizEbOP21qiFxaJsP/Ji3/btnOMgLsddh/HBXeGubu4c6baJu7z1s94e8T2GNyiqWsoyNIeUxwcVTXKSVF1cNAteFEIJWE5ntvYdCz4Hzof/wi5mVvkNWDj5nv/eZ0DOcWJv6j3iwuO+KTJKbZp0HL108k+8Ja1NpfiwsTt/yW2JgRT5IQO0KG1YYH/AyssIgcNheTNwTAorVSHTBVSB8GChTAcVqhkGSNAj2exFW1cLgv+G+TI91kYASYntYX0kFVGHDbddhYgALR14CirElxlWyqIriic0mPsbY840C1yWNP+0w0dkzciH0IXwyKy+EXhNQvQcuhG4E1OBJrx8sUK0dfYnlqTWT8f4hEgHlsU9L06E0h4C67bekpRH5IAFVS6zTeAdmN5qJCOIUfDda2dxeJW6BYnfMfFizwmDH0LcTyu5AE09uzbLftW034NNg8Of720qMnSdMAj6gMOBLSIl9TxRHcZxIEmLaYqPY0e9uOoRS18CJ0MXkPHTaRUCxs9/7UnMOB9CWsb7PWLC8OOnuIXZ3ZbGgEtXBwpY41+iyuxcWpm6YcLoTlk1E4Vp1r0EWjgOxJRJQNcRN780FFxDEPZE4rbwiycCN5aIHF551KKxQdK6di57EJIyASsSY+9CrhO+ZBli6gDQhGZNqEvCq5ij2N6wh6AdxJ9fGAdytHQMmoMgZdCR09p8MPcPnfEcXbijEFUlqfSGWE548c2XRJ2q2xHM/i/FAVEc63pesTlxATd4ICzO3wsritOnbNG5VCiovNGPVEN+dQUZuE09ugUpu06SSVZNaoDwGKnW7Ja9Viv2cxzskFih+byYrTvuerJRxYbr1jYKIQkRKQIm6BnWzyYpsbRfLjx9RlFmJu1OxOnm26o4+j3PCPYcbiN1cBCYToOxxT/Y872csyXw7PNgEHF365IfDAjVlZVoCajco10Uanxp3WXudzI+Fpbn7LqKW58Z9zI6uVYmnPNGMVUMYdAttJFSLvnB3W2WCdZKkc5WPWHABReqCnSuouLoxMWad1GMdMhwwPZDeBnwG/hhcme8KWojqabJ+2+btta3ngMe3EO+ydSzMTssLoe/Q8/Z7nw29I2kczam4oyuJc/KNJy3ETaZW2/xc37iB1kisuzQbt8NzsgHJeVeXbIiQgKoV7l2wumBMXrHrvzR7PyxMXg/zUzfCwtTNsDhzx+pmyoVVdNtJONWCJquYHV/p0dH7YX5+Pnm0wde+8c3kntiMZ6HtHExiGTDFH/HBuGoQT/YPsTN7/wMrH/ruCzqTi6idVLEJnGgha/dVbs/IOXcbsNrNCgZk7/xTt0JpYdxXUgwCjQD119F3JLpQqNPOARfFWcFqn100Cx4Iet9dJyuLk5mK2L2GxwpZPRQ7Br1vefCutd0s8a3itrJndU9uNT9jMuvJKrFGp+LIb7F8ufWLWxJkEjPIfX8n/8sFd+Fb8b46eS3MT1xzFx6bUzjp3758fGMGbGwu6fGdhZ4SwG4FTYwAfmtvNqbjnmN8L82PR1FrhZCNB6SfsfaYdb00Mt/59rfs2j18Lfr7+8PAQH/yqDpkgaohboEqxpT+vlMmowRqbtZlMF8r+QqF1aHHLGHC3engbj/GZBG3LMfdNogxnzgymsSZBDxI1q4H10UWKFHv4Cbzib7Y6buqPP+SH8uRYUnyOiHM/agP+zvsrsN67TGThZg/CCtuPuJpw1VE3/ddXTZhM3F77iesHIwtmqRzh8mfa414wi2H+5R4J8STL6xcRE25l4CxWvVSWySgakgUUDbwussqOxeem9mt87BS9E5kKxFPX1DVypiOG2Mf3N9uAsrFFK4876TVg4BkQsCl6ce6tBSTV4QQu0V50rYFE+4iJuqlmWRnFxZtUSNYxcZ68AD+xSmPcfIEmSaisDzF8T6b8VhUjgRUDUFAtWy2QGUkoLA+eW4WF1BkBo5m3GotRTHz8CYBZX8jy9VntEAlMVC2upYFSog6wAVU7PeciZkKqDTGRtQI9JONtfF8UnZAmoCaQUDdcytUer5dI2WC32tIQOVNE6kL4q4dAj8RDG6GJxutxzhUDysUj1PwYO+szbipCbnkv5+/44NoBr+e7++5borkw8I1EXckxpiP/OI6hBCPYv3cFlxMxriKSvMTYYFM1iaecOExUft5mhm578U2cA9tjHljnGxt7w7FLs7VOxB3Y3JwdNdwsiDPKUGneCq62jkTAz8L3gF86z6B2a0x91FWIsFNvCZs3A++klG6gU0wsPqWWVuNek4o+3uZyDP7/u7WZDs4wpJrxCCAiMoxMFYI8TCp2w6RxDiyNDca5ieu2u09f4yw8riorNZlYhvEDQQx8XCnx8V1DXAg8enQPXwmdI+cDZ39R11UxRjSjA+lFx+JrnbuxO36Me9RYoEyEZXdamFzwstZtxTFXRgZYr8vWqBMQHlOqJ1nON8M35/rEK+JiUoKljlcmxoIhKgdpoxiLGXcJl8iKePENY+3wfLs4soXZlJQtST1XhA7y47SdHciSVS7h87Gnaadwx5DWg4LyW1zgXgUzVI547mO0kDp1s5oecqY6COf94HPgwoJIM8Qt0DZ73ULFwIKU37GpKusmCMrn+skhNhMjHUivjGKptEwP3nN02cQsFyOd8zYoi2qwxeeJGTmMOmOfk+smqZ8ILUKlip2bGazQBdPQ1c4Z3zbswsodt51mlDIXhh4sKcJmzTBXVwpZge/DwsUv98tUB5Imu1KFMGEwGTLNkfccN2EEDliXRirU+zb0W2H1YnYJwSUn3+J605Wp/rCY6JMQBU6PM0F5yFGAXXc7pP7bMRderLi54+ucM40tbSYcDIB5Sdxd/nKIUs8dsFL3HUX3WKcoUWsVTaFvDN0xvg3sG6ZQMt4THWhuckCxXUTQmSJddok1snjJt2qvCm30NxYWJq967mFEFQunliMKfCprohnqqauvS4XUWTGpxBg3tZNYDkLUU53SEIiRC5IQOVMalnB1Fpoy/K4kiiaMK8TP0SWc3ZmcD4WZlzPlJ1ZOey/O+2YHIScNamfn7O/EFJy4QmRIeWF1lpYXVnwzPaLM3f9JACCxRcmrntyRjaLyG3XeLBw5oB25hlceOlcQIA5HhCRDxJQObPZssJqgVifLPBFoQ+I6x58Tcfxra09h7zjtHPMSFbFRJQLqK4Rd0Xy9+yb+YCcFbg2/TohNK3Dy4UnRHbYSGGaiMS4a362HQJqKRVQ41c89ml5YcytUnHHnaxOjQRWKbwFLEDbuzl0+oAvfNs6hySgckRn4eXCxvlVHADaM3Lei7vDTEBlIg4S8UQhNomdMuRqyZs0nosSv2d2qRiIrSKgde7+xTA79mFYnL7jK+HYROtrQHfLnItLnYVXL9TiLLxGIO0vvnPOC0kxY/9iB62f3k/xNhXvx7Fjd/tYLc7CS632LiRtrIm7ljPadONDYdwB5+Oijf/MA/H8woLdxjMM/TmfH/LZKeebAhanPVM5LtmFqVthceZ2/J4+nu6fMSTvs/AkoHLAO4gJJfzPrAI4hLd75FwintIT1KsFARUHynj+XTyrLm/4Dp6GwQa7rMQT4Fqgg5P5nMOQ51xA3fbH5ViMOkICqv6QgIq4YPK+RH64eW9LcZPJvD2OyXB5HE8uSM66rMHY8VHUQkBFIRnjv4j14ow/rkN1IJbirccn+WHP5P6jkJ6FmNQOj4XlljGUWNi8YpOofz+ZwuYErIzzUzfCwuQNF4t+Xmod1HWtkIBqQOgY7JDA4sRE2z18NvSMnE06TParjlRI2Z34RJ64aMrO8vQw0c2A9QkRtWgrpygM0+Nj6gcJqPpDAgpiXjjKauKqo90sUxam/L6/zqLECmNGefzYZWohoKKwWAorS7NhYeJqdF0uTiWv7pw4HjIuxtx2Tc2IpjYTTV3J7uJeD0+IWcPb4yLU3pcPSZ1aWZw1ATV+zb7ndWsPc2ENT4V9//1C3gJKMVA54J2oPBh0+QqEzhVL9sRVD6bixEScZ+Hv5CKewH6vD0Ccdt/t14+BJhuLnRAZkUxOiNnsS2KJxYqE0Emsy9FSFK1FWI9wzzDxE/hN+oHFmTtJQLhNliYM5ohrsltEOGenLc9PhNXk7DR+HxnH+Tv8zXoQTzUlqbuYOJQzPu2aZFRWKW7hm/U6WjEBi5WLOvD68Txbt73OELdYv7LO28c4ms4HnuogiYuK8as6sD1LNDPlAI2XVUYrAsqEAK48ezJ5VTwNrhLXi4D7dLWGSVyIuoDJd9MKPw3MzrK4dah8iHcUTWvLqXhacOuJpx5APM2aeJo28TR5I8yPX3bLbSwfhLmxizZpX/f3ILb4WX63/ZH4+fc7XocmIJO6rKZstIO03kpJXU2bUJqIOx4nr1udXHZrECKK+lsxMczP5UWLCSZS6LT3HgxFBBRzkcgMCag8QEAV2kwARAsUjVhsnyigsECxYmq3J9RMRX2AeGLSjRMlrjKsQ0yYWZXE2rS6yZpRmksKcUxzHiDMpIxlozQ3urGbbvJamDMRNTd2KcwzUbsFiol604HATPL70er0GC6D7VpQEJQZFQSwWw6xbHHAO2J30uvJXfKkjJi64RbDJas/6tPjPO1n7X/JZ8sOLE64D9mVFy1QcQd1LKJaFAOVA4W27tA1cDJ0DpzwGAwaLtYoWaG2wwNfXTNJsEJjsGFyYKdhPaEYqPoj9xgoGypTV5qLG0SNWxBWkzdkQWLRSCd2rBOb6pznmKBxwa2vI+CYrKOQi7vs7BYLlpfGais1i4Gyuls2QYnQpCBGa4bNAe6ZsDmitWPAhU1798GytZ1TGLIUN1HoR6sY33XWCqI6to9EuO1hFETegNAZSFvQPXzOJ1cGBgIKs+wYexnEgw9yJhrmxm2Qs1U1gqqekICqP/IWUFx7j2sh/iiJbaEgWjIlGZKxkPj9TUN0fA5rRxRYfh/3EbFTxNJwP8TX7X/JTzUG+0JA2RzA7jx2aWNlb+8mg/hBGz8GY9u1kmWMaWwHsX3gPuT7Mqasu5UzSZq6h1EQeQORBu75NtUCq4lOX1XE3RYST9uF64UYie5Pu35s+SUOShY8sauYaLHVvFugSnMemI37jBV9pmXmTnTx2O8m+JiA47QgprHMMumTwwkx57urTBQQcB6tTwirxhJP+4e4S5Lg8RgfhXvPFki2OMLlF4UwdZdN/fkGo/KcxEKeOYlUCkWfr0R16ApmBg2ViZ8GysTf5o2WxquJvzLo2DGHStGFqItQrqcnINW1FEI0Plh/VlfmXQy7hZl4qFUSe+Jay14AM376wrTY5WMrsbqiOnQFs8LmdbecFGID9e33JqiaSaomAVURnrnXOrsnoEM42TX1xJ0IKF1KIcQeAGsTMXSlhWhR9IDyVXLe5RObhNswxlmRWodEyJr+q0VXMCOa7B8CisZJgGAz2+/L1ifN+pUR85iwYqKj+zXlgGHMzrqWQoi9wIPoEo479thxOV8+kovns8Xmp8QC5Ye12+JUAqp6dAUzhEZJ3A67LLCcqIFWiYlPgu9jOggTpaSDkDVPCLGXMCHFjkqPiyJfV2ne46Syxg9sdwtUXIzaCj95RewUXcGssImdRomAKrQz2UtAVYtdUXeFtrLl10pLi3YyCiH2EjFgHIsTFiiO2/HUGDkIKDbjyAKVLbqCmZC4nFJ3E5O93Ze1pErSa7rJAqV4sl3Crnu6m4e2zWaJ6FrdSUl2p1p94lbQQC72O8RDkc9rdYUDnpfDOikpsoax0/qaH3bs95PnxY7RyFU1NMTYMJkQ/PBIjm+Rwq8aOjmTNeIpCihZoHYL2nJ5O3QSiJrm7Km0tFj/8N2qbLSw30ffEWI/Q+oJPwImSUeRV34mT2vAfKVxNBM0clWLN8jk4EY/BJeVebY+Zra0sisjHhOQHiFhq5S6KuSfSY6JyGoLrl0/hKgf62ITtotSjnXRAFBz3MLKrlIEbSvnFPaEYkf/jgqJZqnPNEea16kQ+xkbNz0OamXJx1MeZ00UT8xVWKE0hmaBMpFXia/ITTi1FDtCz/C50D18NrT3HCw31GobKYLEd2n4ERIlux+PksgjT8hOcUsRvnWbED3xpU2y2VjgTDgmoowDUWfvX/SDUkk458dZrGe9U2X77LdM5L4waOuJx1CYePKNEjv8vrRlP9dtea6c2Zst3NXC58s3E/laWJ6fDKWFCa+TmPTytlsNRPVEa3O0Uu7dTORbExcmMYdg19DJ0D10OvvvzjE/VjhYmrF0zsZSEnjuZXSUS53DJELDZ1LpHjxtjf90aOseNtlkwslVfnUgIHySKcWJZmUx3u6meHgU8jMVO/pCa2pdaCPou8eeb0nesXNi83xgE9ZYclDqZT+gc90GQSbi3WK/CSjqFjHS1jWcHDkx6IH9OwHxxMBdPg7F6jaLgVwCqrHZ1wKqhZx3JA3u8DmkxxbinQPHk1ezIXoKVqyvTZuA+iDMjr7vfXAvo6Nc6hzEA9andEXu5xxheclAPAETJkIB4bQ8P+4D9xJHPNRbYRL0bLombsimm9FEn5qdPXgZscoAa7dsyRW1oxkXtQ3wuN5a2/uiO87P76q8tHaa0KYe091AcuGJfc9GmIYf52L/MgevCAHk1pejd0AuvGrRyFUlPrH7pNLvQsqzZWeJqWdWTfHcpGkXKKyg3KVXL8U+j58NZisbhB6f10aC5Atkg8eYtba7hcu34RJ8LGoIFlUbLrAqsjjIaIEghDASSzsHQXObG8mC1PuzqBoJqCphIvdVeUefTfCdmQsoViXrCCgsUJ5kbc5EiwkoN0XXSbHPw+daQUAtmcBzC1S2g0AUUB12nXERcpaTBFRN8YE3CUKlaAAWIjPiaBlFVCqmsoY+G/twLKJ6JKB2DA0wPb6lM1pGWpPjWzIAAeLm3PVVFyTExJCpFveYn7iOmbdein3OtTX7jCsEBs+7qCqf55SRkNpsgeJ6c86gqDXW5jXwCpEj2Qunh4nzlsgGCagdwUTCXBIFFC4ltnX7tuyMBBQuMEQIOUFcNOEqW1ty8ZR7H6sQDM9+ppNbpBbDuokpF3kIwIw+LL57t0C5UJUFSgghxO4iAbVD3IWBK4PjW1o3BBQTfRa46w4Btbbs1h1ijTw4GwFVdwoqOcvJ46GwksXdHh4UiRUqA9wCVYgCKubZkoASQgixe0hA7QAm82Z2JJEh28STT+b4lRPLVBYgQNaWF/107vUVhFM+mWmz40EUTLjzTOjhbsQaldWp4n51ucZ+7YsmVslLFI/MycptKp6MX3+ufXNrXCTIlSdEg6M+XC0SUDvArSHE47SlO8KK1hTtUvqkkk2j5DBJ4p5W2XW3SuLMOhdQxDoRt2WfE0vZ5lioTODaJgHMfmhzOXVEdlY/8RS49ggoWyxEwarBV4jGIu2z6rtZIQG1AzweBwuUu+06k/O8aJTZNUy3QK0shJWluUSIZJsWIB9MQK1vFlDEQ2V3qnjcPZLmhOp0AdVcIHWEBFTexGtfiBYou95xK7QQIlPS6Iw8ojR8erL/Jbc+ZYmq0Ci4AzypYLEzFNv7cttST0yRW6CWSVtAWoB6d+FF+JxYzFaXZl1ERQGV7WjA9fadjx12/Umq2aykmrmDgOIMLbvWcuEJkTVY75MwCI8bzUdBxTQkJNPEYxIt+urLO0cCagd49nHPSdRvE3lOAmpt1S04WWf2zp31dbeYecLPEgJqOXkhO7CCkLy0YAKW5KWZ7XwUTwEBZQMvmfYRUnEZK4TIjDzFEzoJAZWKKBZDNm6qL1eFBFRFWEOjAdokErfUp8e3ZCigfBVihd13JqDW3IrTOAKqHANVmguryaG/WY8Hj17/eKzL3hoEYsC8fU/OyLLviMXNNy3sVjHBSsB+PKpIFighMoUx3xafjJ/xNh8R5fMXookwCOvPjC9uwVd/3hESUNsmaXjW2Pzgx9Z4LliBIGYaYAaUTbiemHLFBMiiu/HWVpfdstMI8PlxObJ7kM+OBcoHgwwHhGgBjLsguY07w6x+9tAgwArRNyq094a2zsHQ3nMwtPsBxkd3pXBANucQsljwlasGXCEyw0b+OPavxSTJNgkkr2SPjZQungrFuDjy8yj32AK0VkhAbRfal6v3uBMpWgVofFkGMcdOtO6B2KkFKhUhDSKgTOhhMfMgcv/sxEDZwIAZKiMR1ZwIqFbv/CZg3SpCU/ZK8vc0PAgo+24IqGLXkAmYERMyh0NH7+6UYhcCyq53smLdS2JViF2HxTNjZ8YJiLfExpbmFhNQblmOfVoLop3R9KAKW+Ho6P0wPz+fPNrga9/4ZnKvkUgsGIgk/MNMyATblZ+L+YdobO09B0LX4KnQPXjaTaGu3jNof76Djc5jnWhu/EqYH78cFqZv8YL1LwRItE65mRdBRafbRWEVr1G8Vm6dc9dODFDkuY7eI6F75GzoGTprz/Eaz1d/oXylRjFxNjfBdboSlmZHXaxtPkImfV+8fulzNPfNTT7WHXXIZ/Ti9b75u8Xny4/tOyBo2kxUIG7YDRh3BNpAlBFuhSR56koprJmARkTnEZC/XVI3Ilng0/r1a7QDiI9bnhsLpfmxsDh7NyzN3LX748mrKbGdpO0q1ssjdbLp1v7nkwEbC9xqZ3XTRt3Y/aygDZFWhPMeOZey5N/hvsf8pW3MS9pHsRo/8pz9z/57tA3uYaxuiFGMY0NSd15vad1tjAvl3HrFrtBu/QurK5bPLPGFqS/wFsLi1K2waOMrB7Vv1B231F1aV0kdbhp343P51V/PgWdC36HnQ8/w2fK1sTvxxQxgLIltlzJubXkyLC9MJuNn0k7T65B810Zts9/59reSz75Bf39/GBjoTx5VhwRUijXSdKDGwoRbKHVX+PNlq1NHKKYulZ5DPjjws1lA46URswpZmr4TFmfuhKW5+7FR23PszItZvmNGcgLNM8uztAOiO5PCtUJctvl1wkLEawx+ne4COhKvo1/LnU26DxM7NNfFr5GV0vyEx17hPvSBIBkEEVkuPuzaxQmNQWFTk/d6Z5CKAjnG+SSxPkkbcOHM87gK/fsW3J2FaEqtMlkn9IzfL9ZvrH8+t5Xk9VpDncY6TpLGVjGob0tA8Tf4R78r1wn9MWlvSV1tbm8eJ4Zb3eqEvspOWd6TGVYnLmZpZ2zwWJqJmzxM5EbLAdn4eT320bR/evujXfI8/TWdhPc61KH1iRbqzuswqT/6Vbmv0afi81iVPUHupnrkfpakfYk6QQRTYpxprCuvv7S+qFN7Po671B/PJSKDsSSn3tgzcj70HnwudA+d8euX3bgZ4fNHD8F8WLY2vGxj5/LCRPR4+HdProGXjbGU9t9oSEDVCJ9EGYyZIG0lhPuEo0PiRGqd2zo7kyadmlWtl47ejBu2ddbVOOF7516Y8kE6bcx+VMqyNfIV4qKW4vPW2HcLBkWuixcb+CjNxCT5RFtMLAEDLjjjwBkHg6xgElopX6dpX1V63BUDHQMf4mnVrhfXipIMiJsnL693+2x8rjhwx0E7Dvh8L2sHTMT+/ey7lQd+RJUV+1lRGR8toBKBZnXj/ZDJ1Ipfd7/+xB9afXi90N6S56kr3m+3eUMbSkVRWVRx3/pmnJxod3HSXaMNetuMaT1SUbznsTqkn3jdJfUX+w7xN1EoIXS9r/Ea9ed9rMPrP4r0nLBpLy5WGSMYW2NdsvEl1hXjCOMu9beU1KkVe58vyqwO+R150D18NvQeeCZ0DZ62a8WchMDMbtyE1LLE91q2vkf/4z7f24UU7dhu41hqbZbSgKJfAqpG0IF9xYNASoLr6PhR/VsxIZUOzr66TUqWndzNx8ngurkxu7Cy57wzJwJq2QTDysKkC63dotjRb+JowNM5xOuRCA8XSqwoO+w6xskvXUVlKTjjAJBMWN7Zo3neRZJdL1ZOvhsQt4sHtXNN5/x9KQzwpELgsxc7+vw7kWHe46rsO5SFkltAovVjQwxG4SUq46ME1IaoLbhLLrrjhv3au7XJ+2IUTdRPrA+ej5MNJW+YTLyvruF2jxOqWyt8ocOksxwfY5XiSCasVYj8ZHcqk/TeBcsTdciipLvs7nZxlNTrY/VHv9pUf5mOE1sSLdhpyETZWpiKKeoveR4RsVKaKbtv0zElL0HRNXAydA2fCZ39x8tCk+uUKTZ28o/vFr9PzDeYjqE8pp+m35VbhFSjIQFVI5jki91xoC52DPhk6vETDOb2j9vUgpIO7s0tTJ4ZrpJo1N4pWR3FwZcB2oOw7XkacFwdLIal2XthIfHh7xbEOHX0H7XbQ4mAwmJnAyKDH6tPrhMDot3yuBq3z5NIV/Q+gflgyMrKrpddM67nyuJ02cdfWhh3czVCKiVNiBon6hGPvUAUer37Z7Y6TuNw/Dn7bjzmX/I9RWV8tIBK4w3bPN6QiaRz4Hjse14ndv39fqyTWFfJrdeV3c8d+qoNnbQ1L8n9RLjHWJrYFlnJ8/0ouEriwmcy+T17EKujGAJR8BjBroETVn8nfQHqY4DXU1J/aX3x3KZi/0t+WX7E+knG3OR2o+5wWcU6xCuwvBQt3dQfcW/EEDHu5AEhD7R5bhmXiu0sULO2qsZp30WkjaFxHKXt0oZXowckGTtLc/dt3ByzeWfJf6aRyFtA1WKkaQjo0PG0f2uwNoEipDzOidWTC6tBb8xYpnwlZYOD/VT84axgckgEGn+DGJtiJ1aeQf88TPBp4XOyittNsDZFN11cYcYy5NcPS45fK3tPHCxpatkPiqxWEW5+rexvUk/UV3v3gXIQqlvJ0pxR9lk2EydrXEIxADnd8Ra/R6xzfnd0N0QXXlxF2++pwSC/L6EfUC/Wxzismz7QkfZFFjjUi58CYO1rc73Y+2M7qwWpkGMhFd260eKKiz8dQ9K2FBdl9BW+D4uKvYxdGbsu8dogmrgesT8e2OhbWHqtT7p7j8UXFiksTzXsV7H+kphXaz+0Iz4Pnyta15Nxl/Hf7tMOqV+EfZaeh0dBzGBZx9rlx3gh5jKHz089RU8BbXOjzVo9eT+zNmtjH3Vob4w/Jh5CV0UIIYSoE1xA4ULzAPeF3CxdonokoIQQQog6gTgkYjVxn8UY2H2w4aBBkYASQggh6gQsTgin1dJ8LGwmIsAbS9Qj8Txid5GAEkIIIeoEYp5w47mIWp7z3ZuezsbjodaTd4l6QAJKCCGEqBPYBRjTYUQr1MriTFg1AUU+Kgmo+kICSgghhKgbSInxwGOfsECR7oMTKUgrgFWKGCnFRdUHElBCCCFEvWEiipx15JxamrnnOajKCS+1M68ukIASQggh6gzcdQSQkwB4aW7UkwHH3FCLoXy0igeVK7B8t5CAEkIIIeqSmCGdI1c4RWF+6nqYn7gWFqZuhsXpOy6uiJOKbj3t0qs1ElBCCCFEPeIGpgd+Ph1iaWHyRpifjAJqaeZOPJrKz6lbjuf6yRpVU3QWXkKhrSe09x6Kx3942v4BPyOtnsDvTWp/dmMsTt+2lcgVX43sFp0DJ0LX4KnQ2X/M0/37kRrNHHFTP/iZTn5+VQzELM2O+llsKRzNwJENFI6aaO+m/geSV0UerJAk0Ab+ZXdN3A9LVifUUQrHa3h7stLeezh0D50KXUOn/YiQRsTPwiOOxdpgPAPQ2qHd37M0NYWWlqIfj8IxT93DZ6wOz/pxLY0I4248T3MqjiMzd63N3vVUA7XF2r9dWz+3laNmOA6HecqPxelNjhSKhzOXKR85s/3egwjzc/84B2/e+mhyXiWuw0ZDhwnXCM4DSidSP6PJJlbOR6sn4sGPttJYXY4dmYY9ey95tfb4+VYmOhkkmwscHvpI560D/CTxpVk/TT0dFDYPBPH8sp7k/CsbjPy8q97kVZEHnt9maSbWiQncFauXzaKWM8poS5Ri12DoMBFFO2MSaET8NH8OZiWfj93GvD7Tyat7EJu043mRBZ/cORQXIUx9NiK4xvxoFYrVG2KfeKTaH7ES2z9nkBY4P7BoY1drZ3IeZDzIPT2rMwqn5HDm8oHN/DT/+6h+9MDHzZUlvjPjZvy+tONGQwKqRtD4Cm1dLpri4aTRolJP4At/sLbqHdc7M5PPLg7ErHpa2+OhoAyWsdSXV5jkc0zYPmkvL/iuFkRoCvVOPfuBpjYQpYebivxgAZDWCWd9ra4s+P0UDmqNbanF6gNh2xdabSKOk0LjQcCvZ5P270wbjLd7l+Qw4Sbqr9PrDot+vS2utosvXE08YP33turZwed8PN4N0kOQub7pdebaungqC6h4gLs/zyHb/n7GZutDH9WPTBLg5XBvh4+bZES371tzwVg9ElA1goYWTwSPjbCpGYtKnXV4qyoXUdah2crKILx54qk1LjooJjbLHbTOJjnM7ExgqeVuzW43DwR8bq9zTmT3uo+nwov8KFtSqRerk/W1kt/fIJ2Am71PtrTGVXajsvF9aYNJW7Syl0nHAl+Ysiix+osTeOPBFOljyHrSXhl7rc0yHtcNfq1tDLN5KxVXdieObza3cct7WJzYnfgzT8H75qZxk+9MhvRGQwKqRtC501Vv2gDrzZpCfGBc9Tywho0lKjby3YIOuyE0k87pHbR+IKsvExidH+EU72+sHGO9x8EmHWj8scgNrxOvj03lkcE5DvRWN9a2orhtXFHrE3Da9pLvyu2ehsnahTALFBsnTEjFOm1AqL9k4UohJirWXx0JqPKig7krXcgyJjO+xcf84zm/eRo+z/Bd03666t+Z69BoSEDVlI3GFRtb/UKgX+y/u9mo4/VqiGsV76T/e4Rypdf9d9k7JLXyxDpJ8Upp+Hr56Da4V9kb9QeNUYfxem9mp9d+L7RZCSghhBBCiArJW0A1plNaCCGEEGIXkYASQgghhKgQCSghhBBCiAqRgBJCCCGEqBAJKCGEEEKICpGAEkIIIYSoEAkoIYQQQogKkYASQgghhKgQCSghhBBCiAqRgBJCCCGEqBAJKCGEEEKICpGAEkIIIYSoEAkoIYQQQogKkYASQgghhKgQCSghhBBCiAqRgBJCCCGEqBAJKCGEEEKICpGAEkIIIYSoEAkoIYQQQogKkYASQgghhKgQCSghhBBCiAqRgBJCCCGEqBAJKCGEEEKICpGAEkIIIYSoEAkoIYQQQogKkYASQgghhKgQCSghhBBCiAqRgBJCCCGEqBAJKCGEEEKICpGAEkIIIYSoEAkoIYQQQogKkYASQgghhKgQCSghhBBCiAqRgBJCCCGEqBAJKCGEEEKICpGAEkIIIYSoEAkoIYQQQogKkYASQgghhKgQCSghhBBCiAqRgBJCCCGEqBAJKCGEEEKICpGAEkIIIYSoEAkoIYQQQogKkYASQgghhKgQCSghhBBCiAqRgBJCCCGEqBAJKCGEEEKICpGAEkIIIYSoEAkoIYQQQogKkYASQgghhKgQCSghhBBCiAqRgBJCCCGEqBAJKCGEEEKICpGAEkIIIYSoEAkoIYQQQogKkYASQgghhKgQCSghhBBCiAqRgBJCCCGEqBAJKCGEEEKICpGAEkIIIYSoEAkoIYQQQogKkYASQgghhKgQCSghhBBCiAqRgBJCCCGEqBAJKCGEEEKICpGAEkIIIYSoEAkoIYQQQogKkYASQgghhKgQCSghhBBCiAqRgBJCCCGEqBAJKCGEEEKICpGAEkIIIYSoEAkoIYQQQogKkYASQgghhKgQCSghhBBCiAqRgBJCCCGEqBAJKCGEEEKICpGAEkIIIYSoEAkoIYQQQogKkYASQgghhKgQCSghhBBCiAqRgBJCCCGEqBAJKCGEEEKICpGAEkIIIYSoEAkoIYQQQogKqUpANTUldx5iyyeFEEIIIfYMVQooiSUhhBBC1BfokwcPHiSPNshSt1QloJqbt/jxpsc/sBBCCCFErejt6UnuPcyWumWHVCmgWpJ7mzD9VCy2Jg+EEEIIIWrL8PBgcu9hWlrqREAVClsIKOPo4UPJPSGEEEKI2nLk0IHk3sO0tBSSe9VTpYDa2tJ08sSx5J4QQgghRG05cexocu9hWlvrREA9yVV37syp5J4QQgghRG05fep4cm+DlpYWL1lRZQxUcygUHldz58+eTu4JIYQQQtSWrQw5xWIxuZcNVUdTtbW1Jfc2eOb8GWWDEkIIIUTNOX7sSBjZIoi8ra3OBFR7e3tybwN8jJ//3CvJIyGEEEKI2vDZV15O7j3MVnqlGqoWUB0dW3+gz3/mU8k9IYQQQoja8NlXPpHc24AEmnUnoFpbW7f0K35uiy8ghBBCCJEXx44cDs8/ez55tEFHR0fmp6dULaCgq6szubdBZ2dH+Nr/6KvJIyGEEEKIfPmNv/yV5N7DbKVTqiUjAdWV3HuY3/jqryT3hBBCCCHy5au/+oXk3gZYnp6kU6ohEwGFGw/z2KOcPX0yfPmLn00eCSGEEELkw7/0L/5W6Ot9/Ay8np7uzN13kImAgp4nHNz3177+zyf3hBBCCCGyh7yUX//NX08ePcyT9Em1ZCag8C9ulWPh/NlT4a/85l9OHgkhhBBCZMu/+j/57TDQ35s82gBtknUCzZTMBBT09vYl9x7mr3/j625CE0IIIYTIkgvnzoS/+ld+I3n0ME/SJVmQqYDq7u7aMs8CPsl/+1//l5NHQgghhBDZ8D/9W38jufcw3d3dpkkePy0lKzIVUDAw0J/ce5gvf+Ez4etf29o/KYQQQghRKf/av/LXw3PPnEsePcyT9EhWZC6gsED1bhEFD/+GqcSXXnwueSSEEEIIsTO++pUvhX/xCa67wcGBUCgUkkf5kLmAgsHBQU9tsBX/6//5vx4OHTyQPBJCCCGEqAyMMf/Ov/m3kkcPwxFzfX35xT6l5CKgyLcwNPT4ScjACcn/3v/+39kyV4MQQgghxNM4d+ZU+Hf/V/9mKLS0JM9sEPXHUPIoX3IRUEBizYGBgeTRw5w6cSz8+//e/y4M5uyfFEIIIcTegR13/8d/92+Hvr7HUxbA8PDQEz1gWdP0wEju58LY2FiYnZ1LHj3Mrdt3w//l//qfhctXriXPCCGEEEI8zqc/+fHwv/1f/huh+wnn2vX39+ceOL6Z3AUU3Lt3LywsLCaPHmZ+YSH8P/7zb4W/+MFPkmeEEEIIITZgFz8b0Z4E2caxPtWSmggo/sTdu/fC0tJS8szj/MPf/f3wX3/rHySPhBBCCLHf4YiWv/1v/2vhq7/6xeSZxyEH5cjISPKodtREQAF/5t690bC4uLUlCj64dCX8t//d74Q33no3eUYIIYQQ+xHyR/4rf+Mb4fChJ+/cJ1nmyMhw8qi21ExApYyO3g/z8/PJo635oz/7fvjv/8E/DGPjE8kzQgghhNgPnDl1IvyNf+lfCJ//zCeTZ7amt7f3iTv+a0HNBRRMTEyE6emZ5NHWrK+vh3/2R38e/tHv/kG4c/de8qwQQggh9iLnz50O/+Ov/Ub4tS9/LnnmyZAosxa5np7GrggomJubC2Nj4+7a+yh+8tovw59970fhewo0F0IIIfYMhUKLZxT/ypc/H1564dnk2SdDdnHyPHV2diTP7B67JqBgZWUljI9PPDUuajPs2PvlG++G1998O7z+1rvh5q07yStCCCGEaATOnj4ZXvrYc+ETH3shfPzF50Jr6/aOXCFYfHBwKLS05JbCsiJ2VUClzMzMhsnJSXfbVcJSqRSmpmfC9Mycx1UtLpbCsomy9fW15B1CCCGE2A2am1tCW7EYOjvaTfx0esxSf19PKFaY6BKrEy67rq6u5Jn6oC4EFCCepqamPjI2SgghhBB7H45l6e/v8wSZ9UjdCKiU1dXVMDMz41apOvtoQgghhMiZlpaW0Nvb4xYr8kDVK3UnoFKwSBFoPjc3H0qlUvKsEEIIIfYiHR3toaurO/T0dCfP1Dd1K6A2s7y87EfBEGz+tGzmQgghhGgMcNG1t7f7jrrOzk6PdWokGkJAbYaPu7RUMlFFWfGdfLj91tYUOC6EEELUI6QrQCC1traGYrHoBfHUyDScgHoaa2vrJrAoyRNCCCGEqDlNTfGWGKZ6jmOqhj0loIQQQgghasHelIVCCCGEEDkiASWEEEIIUSESUEIIIYQQFSIBJYQQQghRIRJQQgghhBAVIgElhBBCCFEhElBCCCGEEBUiASWEEEIIUSESUEIIIYQQFSIBJYQQQghRESH8/wHUtO8WAL03owAAAABJRU5ErkJggg==;" parent="1" vertex="1">
          <mxGeometry x="740" y="220" width="103.85" height="100" as="geometry" />
        </mxCell>
        <mxCell id="fhf2vWcNJBLH6D_uzpyj-8" value="&lt;b style=&quot;font-size: 18px;&quot;&gt;&lt;font style=&quot;font-size: 18px;&quot;&gt;CRUD&lt;/font&gt;&lt;/b&gt;&lt;div style=&quot;font-size: 18px;&quot;&gt;&lt;b style=&quot;&quot;&gt;&lt;font style=&quot;font-size: 18px;&quot;&gt;照片辨識系統&lt;/font&gt;&lt;/b&gt;&lt;/div&gt;" style="text;html=1;align=center;verticalAlign=middle;resizable=0;points=[];autosize=1;strokeColor=none;fillColor=none;" parent="1" vertex="1">
          <mxGeometry x="478.5" y="80" width="130" height="60" as="geometry" />
        </mxCell>
        <mxCell id="M4vZDQExEsMoId1NsZRh-8" value="" style="rounded=1;whiteSpace=wrap;html=1;" parent="1" vertex="1">
          <mxGeometry x="-230" y="142" width="150" height="70" as="geometry" />
        </mxCell>
        <mxCell id="_m7onLMCCoK5tj30pAth-1" value="&lt;div&gt;使用者 &lt;font color=&quot;#ff0000&quot;&gt;/users&lt;/font&gt;&lt;/div&gt;&lt;div&gt;&lt;ul&gt;&lt;li&gt;登入類功能&lt;span style=&quot;white-space: pre;&quot;&gt;&#x9;&lt;/span&gt;&lt;/li&gt;&lt;ul&gt;&lt;li&gt;註冊 POST /users/register Body: name, password&lt;/li&gt;&lt;li&gt;登入 POST /users/login Body: name, password (產生token)&lt;/li&gt;&lt;li&gt;登出 POST /users/logout/{user_id} (&lt;font color=&quot;#ff0000&quot;&gt;需要token&lt;/font&gt;)&lt;/li&gt;&lt;/ul&gt;&lt;li&gt;一般功能&lt;/li&gt;&lt;ul&gt;&lt;li&gt;顯示自己的個人資料 GET /users/me (&lt;font color=&quot;#ff0000&quot;&gt;需要token&lt;/font&gt;)&lt;/li&gt;&lt;li&gt;修改自己密碼 PUT /users/password Body: name, passwd (&lt;font color=&quot;#ff0000&quot;&gt;需要 token&lt;/font&gt;)&lt;/li&gt;&lt;li&gt;註銷自己帳號 DELETE /users/{user_id} (&lt;font color=&quot;#ff0000&quot;&gt;需要token&lt;/font&gt;)&lt;/li&gt;&lt;/ul&gt;&lt;li&gt;照片功能&lt;/li&gt;&lt;ul&gt;&lt;li&gt;查看使用者的所有照片 GET /users/{user_id}/images (&lt;font color=&quot;#ff0000&quot;&gt;需要token&lt;/font&gt;)&lt;/li&gt;&lt;li&gt;查看使用者的某照片 GET /users/{user_id}/images/{image_id} (&lt;font color=&quot;#ff0000&quot;&gt;需要token&lt;/font&gt;)&lt;/li&gt;&lt;/ul&gt;&lt;/ul&gt;&lt;/div&gt;&lt;div&gt;照片 &lt;font color=&quot;#007fff&quot;&gt;/images&lt;/font&gt;&lt;/div&gt;&lt;div&gt;&lt;ul&gt;&lt;li&gt;&lt;span style=&quot;background-color: initial;&quot;&gt;上傳照片 POST /images Body: File&amp;nbsp;&lt;/span&gt;&lt;span style=&quot;background-color: initial;&quot;&gt;(&lt;/span&gt;&lt;font style=&quot;background-color: initial;&quot; color=&quot;#ff0000&quot;&gt;需要token&lt;/font&gt;&lt;span style=&quot;background-color: initial;&quot;&gt;)&lt;/span&gt;&lt;/li&gt;&lt;li&gt;&lt;span style=&quot;background-color: initial;&quot;&gt;查看所有照片 GET /images&amp;nbsp;&lt;/span&gt;&lt;span style=&quot;background-color: initial;&quot;&gt;(&lt;/span&gt;&lt;font style=&quot;background-color: initial;&quot; color=&quot;#ff0000&quot;&gt;需要token&lt;/font&gt;&lt;span style=&quot;background-color: initial;&quot;&gt;)&lt;/span&gt;&lt;/li&gt;&lt;li&gt;&lt;span style=&quot;background-color: initial;&quot;&gt;更改上傳的照片 PUT /images/{image_id}&amp;nbsp;&lt;/span&gt;&lt;span style=&quot;background-color: initial;&quot;&gt;(&lt;/span&gt;&lt;font style=&quot;background-color: initial;&quot; color=&quot;#ff0000&quot;&gt;需要token&lt;/font&gt;&lt;span style=&quot;background-color: initial;&quot;&gt;)&lt;/span&gt;&lt;/li&gt;&lt;li&gt;&lt;span style=&quot;background-color: initial;&quot;&gt;刪除照片 /images/{images_id}&lt;/span&gt;&lt;span style=&quot;background-color: initial;&quot;&gt;&amp;nbsp;&lt;/span&gt;&lt;span style=&quot;background-color: initial;&quot;&gt;(&lt;/span&gt;&lt;font style=&quot;background-color: initial;&quot; color=&quot;#ff0000&quot;&gt;需要token&lt;/font&gt;&lt;span style=&quot;background-color: initial;&quot;&gt;)&lt;/span&gt;&lt;/li&gt;&lt;/ul&gt;&lt;/div&gt;" style="text;html=1;align=left;verticalAlign=middle;resizable=0;points=[];autosize=1;strokeColor=none;fillColor=none;" parent="1" vertex="1">
          <mxGeometry x="-375" y="1020" width="490" height="310" as="geometry" />
        </mxCell>
        <mxCell id="M4vZDQExEsMoId1NsZRh-1" value="&lt;div&gt;登入頁&lt;/div&gt;&lt;div&gt;&lt;span style=&quot;text-align: left; background-color: initial;&quot;&gt;使用者&lt;/span&gt;&lt;font style=&quot;text-align: left; background-color: initial;&quot; color=&quot;#ff0000&quot;&gt;登入&lt;/font&gt;&lt;span style=&quot;text-align: left; background-color: initial;&quot;&gt;/&lt;/span&gt;&lt;font style=&quot;text-align: left; background-color: initial;&quot; color=&quot;#ff0000&quot;&gt;註冊&lt;/font&gt;&lt;/div&gt;" style="text;html=1;align=center;verticalAlign=middle;resizable=0;points=[];autosize=1;strokeColor=none;fillColor=none;" parent="1" vertex="1">
          <mxGeometry x="-210" y="160" width="110" height="40" as="geometry" />
        </mxCell>
        <mxCell id="M4vZDQExEsMoId1NsZRh-2" value="&lt;div&gt;首頁&lt;/div&gt;&lt;div style=&quot;text-align: left;&quot;&gt;&lt;span style=&quot;background-color: initial;&quot;&gt;使用者登入後進入首頁&lt;/span&gt;&lt;/div&gt;&lt;div style=&quot;text-align: left;&quot;&gt;&lt;span style=&quot;background-color: initial;&quot;&gt;會&lt;font color=&quot;#007fff&quot;&gt;顯示所有照片&lt;/font&gt;&lt;/span&gt;&lt;/div&gt;&lt;div style=&quot;text-align: left;&quot;&gt;可選擇：&lt;/div&gt;&lt;div style=&quot;text-align: left;&quot;&gt;&lt;ul&gt;&lt;li&gt;&lt;font color=&quot;#007fff&quot;&gt;上傳照片&lt;/font&gt;辨識&lt;/li&gt;&lt;li&gt;點選某照片 -&amp;gt; 進入該照片頁&lt;/li&gt;&lt;li&gt;點選個人照片集 -&amp;gt; 進入個人照片集頁面&lt;/li&gt;&lt;li&gt;點選個人資料 -&amp;gt; 進入個人資料頁&lt;/li&gt;&lt;li&gt;&lt;font color=&quot;#ff0000&quot;&gt;登出&lt;/font&gt;&lt;/li&gt;&lt;/ul&gt;&lt;/div&gt;" style="text;html=1;align=center;verticalAlign=middle;resizable=0;points=[];autosize=1;strokeColor=none;fillColor=none;" parent="1" vertex="1">
          <mxGeometry x="-280" y="217" width="270" height="170" as="geometry" />
        </mxCell>
        <mxCell id="M4vZDQExEsMoId1NsZRh-3" value="&lt;div&gt;照片頁&lt;/div&gt;&lt;div style=&quot;text-align: left;&quot;&gt;&lt;span style=&quot;background-color: initial;&quot;&gt;使用者選擇某照片後進入該照片頁&lt;/span&gt;&lt;/div&gt;&lt;div style=&quot;text-align: left;&quot;&gt;&lt;span style=&quot;background-color: initial;&quot;&gt;會&lt;font color=&quot;#ff0000&quot;&gt;顯示該照片&lt;/font&gt;、辨識結果、所有者&lt;/span&gt;&lt;/div&gt;&lt;div style=&quot;text-align: left;&quot;&gt;可選擇：&lt;/div&gt;&lt;div style=&quot;text-align: left;&quot;&gt;&lt;ul&gt;&lt;li&gt;所有者&lt;/li&gt;&lt;ul&gt;&lt;li&gt;&lt;span style=&quot;background-color: initial;&quot;&gt;&lt;font color=&quot;#007fff&quot;&gt;更改上傳的該照片&lt;/font&gt;&lt;/span&gt;&lt;/li&gt;&lt;li&gt;&lt;font color=&quot;#007fff&quot;&gt;刪除該照片&lt;/font&gt;&lt;/li&gt;&lt;/ul&gt;&lt;li&gt;訪客&lt;/li&gt;&lt;ul&gt;&lt;li&gt;點選查看該使用者的照片集&lt;/li&gt;&lt;/ul&gt;&lt;/ul&gt;&lt;/div&gt;" style="text;html=1;align=center;verticalAlign=middle;resizable=0;points=[];autosize=1;strokeColor=none;fillColor=none;" parent="1" vertex="1">
          <mxGeometry x="-275" y="385" width="250" height="170" as="geometry" />
        </mxCell>
        <mxCell id="M4vZDQExEsMoId1NsZRh-4" value="&lt;div&gt;個人照片集頁面&lt;/div&gt;&lt;div style=&quot;text-align: left;&quot;&gt;&lt;span style=&quot;background-color: initial;&quot;&gt;使用者點選個人照片集後進入&lt;/span&gt;&lt;/div&gt;&lt;div style=&quot;text-align: left;&quot;&gt;會&lt;font color=&quot;#ff0000&quot;&gt;顯示自己的所有照片&lt;/font&gt;&lt;/div&gt;&lt;div style=&quot;text-align: left;&quot;&gt;可選擇：&lt;/div&gt;&lt;div style=&quot;text-align: left;&quot;&gt;&lt;ul&gt;&lt;li&gt;&lt;font color=&quot;#007fff&quot;&gt;點選某照片&lt;/font&gt;&lt;/li&gt;&lt;/ul&gt;&lt;/div&gt;" style="text;html=1;align=center;verticalAlign=middle;resizable=0;points=[];autosize=1;strokeColor=none;fillColor=none;" parent="1" vertex="1">
          <mxGeometry x="-245" y="560" width="180" height="110" as="geometry" />
        </mxCell>
        <mxCell id="M4vZDQExEsMoId1NsZRh-5" value="&lt;div&gt;個人資料頁&lt;/div&gt;&lt;div style=&quot;text-align: left;&quot;&gt;&lt;span style=&quot;background-color: initial;&quot;&gt;使用者點選個人資料後進入&lt;/span&gt;&lt;/div&gt;&lt;div style=&quot;text-align: left;&quot;&gt;會&lt;font color=&quot;#ff0000&quot;&gt;顯示自己的個人資料&lt;/font&gt;&lt;/div&gt;&lt;div style=&quot;text-align: left;&quot;&gt;可選擇：&lt;/div&gt;&lt;div style=&quot;text-align: left;&quot;&gt;&lt;ul&gt;&lt;li&gt;&lt;font color=&quot;#ff0000&quot;&gt;修改自己密碼&lt;/font&gt;&lt;/li&gt;&lt;li&gt;&lt;font color=&quot;#ff0000&quot;&gt;註銷自己帳號&lt;/font&gt;&lt;/li&gt;&lt;/ul&gt;&lt;/div&gt;" style="text;html=1;align=center;verticalAlign=middle;resizable=0;points=[];autosize=1;strokeColor=none;fillColor=none;" parent="1" vertex="1">
          <mxGeometry x="-230" y="690" width="170" height="120" as="geometry" />
        </mxCell>
        <mxCell id="M4vZDQExEsMoId1NsZRh-6" value="&lt;font color=&quot;#ff0000&quot;&gt;紅 /users&lt;/font&gt;&lt;div&gt;&lt;font color=&quot;#007fff&quot;&gt;藍 /images&lt;/font&gt;&lt;/div&gt;" style="text;html=1;align=center;verticalAlign=middle;resizable=0;points=[];autosize=1;strokeColor=none;fillColor=none;" parent="1" vertex="1">
          <mxGeometry x="-190" y="80" width="80" height="40" as="geometry" />
        </mxCell>
        <mxCell id="M4vZDQExEsMoId1NsZRh-14" value="&lt;b&gt;&lt;font style=&quot;font-size: 18px;&quot;&gt;畫面&amp;amp;功能&lt;/font&gt;&lt;/b&gt;" style="text;html=1;align=center;verticalAlign=middle;whiteSpace=wrap;rounded=0;" parent="1" vertex="1">
          <mxGeometry x="-210" y="20" width="110" height="30" as="geometry" />
        </mxCell>
        <mxCell id="M4vZDQExEsMoId1NsZRh-15" value="&lt;b&gt;&lt;font style=&quot;font-size: 18px;&quot;&gt;API&lt;/font&gt;&lt;/b&gt;" style="text;html=1;align=center;verticalAlign=middle;whiteSpace=wrap;rounded=0;" parent="1" vertex="1">
          <mxGeometry x="-203.5" y="960" width="110" height="30" as="geometry" />
        </mxCell>
        <mxCell id="_bwXxpPGAjzVuI4yMEBe-2" value="" style="shape=image;verticalLabelPosition=bottom;labelBackgroundColor=default;verticalAlign=top;aspect=fixed;imageAspect=0;image=data:image/png,iVBORw0KGgoAAAANSUhEUgAAAOEAAADhCAMAAAAJbSJIAAAAw1BMVEX////4mB1dh6H3jwD4kwBZhJ9UgZ38z6lSgJz+8eO5ydNbhaBpkKlWgp74+vvq7/L4lQ/x9ff81Kj5oCvg6O2btMSBobWnvcvG1N5kjKX//PeJpbePq72/z9l0l63N2eH5pD/Y4ef/9+3+8OL80aBHeZd5nLL96NT4mAD5oTb7vXn4nSD7woP82bT5qU77vnL94ML5sWj958v7xYT7xY/6sVv7zZj6uHL95sf6vn/5qkD6r1T6tGD93Ln81KL6umf3gQBefYU/AAAK3ElEQVR4nO2ce3uiOhCHFQkbEbmoiHdFK7Z1e9led3s5e77/pzpkEiAg2D27aheeef/SxPrkRyYzk0lsrYYgCIIgCIIgCIIgCIIgCIIgCIIgCIIgCIIgCIIgCIIgCIIgCIIgCIIglcKZ+85nj+GYmN6aUmp41mcP5GhMCaGUtDTD6332UI6DM6aTnt+nbUKM6WcP5ig4/TWbO8czCGl7luVUbkmGc+jBi56rKGQ46/e9qf/JYzowujbjTsacrqmmaW2NGGP9kwd1UJyAjoVlWlPPm4xnSpvQoW9+7rAOiU+JK7+3BhNCSMutUPjwqDZPNZihbw1d67zg8+XDdNtGNhb6sxbR3Mr4VSvQXFh25nwa2abjKYT0K5ME+GvCI8SEBvG8+QppzyoTOMZ0zF/MaOJ1nHHocQafNKJDM6eUv/BF/AccjyqtiqRy1pByz+m4qaU3oWRYDZdqunSS2+FVxlCnZJYb4U2PtpRKeNSeoRRYY9Am/UrERZe6+Zmo2Sftgq5y4a+HBcboGy1SCYcqR8I0OlWUKtipT9ZFCUwY+fM9bbkwXW1WYKc9gyhVCBmhjqDAGL2K+NMeXRdMohMQrQqpTY8Oi/b1ukb6Jx3LcfDigs0O5lqhFTDTvlZcYpuQtlfYWRZ6xk4tIyHcDucnrmViruxZauFuWCl9YqOv99nhXCmMJWUh3CLum6QwASclDxjOmO7NW6aUzE41luPg9IVCs8DfDJX9j+CvJ1boFSRoOiX9Uu8TI4U+LahaWGH+XeqVGHoaFvCdWbilz/+ETkhh0lMKPNgCz4ctheYbY89olXsSpxqL+Hq7RYqyN1cjRplXom8YfmirZNhXihI0g7RoMC+tpTr9ts6yM2PQJwWT6AcaIdp4WlaNHp05oaMJHJ0aBRqcaaBRTZmVdTkS6vYMFvSGBTV+YDA22nRSzo2GTrS+wspqc4Xuq+T7LqVGKU8WzQklZM3ifrjd3+s0B0M6LOeNlGkQ8IHrdP+W3nHbtJw5nBmN2ht+YIa6QUt+zO8NP/iANaZBOf1NxHxSbIWmY1mWE2gl3zH6eoFEX3cDQ6HMLZW8AOfnbjLmgUHapE3pWulPy22mIXmT6FJFMfpuedPTD7GoQoqOGiuCR5WShvtfxiNK2QPFB5h6aKhDr7oLMWSgtAmp9jQ67pBU5UJYEb471Cpxul+M2RtT5WCGytJAxk4ENkXHr37RcvXeCdmslnl9d52zn/ed22znqhmyyvk2PzjYoaI3NBjDHasYQLvxi89y83CtAo3t49km3bfqfNs2VNW2w+7rp+9y13k35DzvC53JodyN21YYZJxpN0UH/aU1f3ah2nWBrV5cylN1tbDjvrptbx9GSV+DtTVyv9LUD5R7z1ogRFlnzNQa8vY9J/AJN416CjWZluZzpq+uXidmuUdhrXagXbAi0DKHmAPK23/hGsHogYtQ1W23u22EE6Z24r5rlfc1tltVzLN6HU/xXoUHYi0UZu+XjUl+ew63wjjvN8xt3N5fNLbNqO8rCFS3D5vVavV0IeReRt0nUGjRaBLT1yXMWHl2ge6wfGRTYy8S/9KMvUmHz1qs6Iq/t6M5PoHCXqwwfSFiqkUKP7xFsIJBd99zupoLEP81aelwhY/CTk+gEJYbOBuSuq47EUaqtD502lcqjHmU03UGXdeyZ33gZism/AQK2Vy1AoNpka+e9VjLbAbW+1EJ+knNzFMCqGmkIuBqAZP4k787gUIvjHrEgxmTbwtMmRfVwduAQlMHpD/0oYE9lBuwxOecL/8OArbpxktYiiKcnEChS5hCsFXJp5ismVpMeIun+ew3oJp8hXLMWuDuL5hifdHMfnWtdg/ab9KNV3xi+cdPoJBNU1uvgb+hcSsL9yQA+cIDwUs5NvZZA+SOfMj2j52FOAInq95mWkGV+g+8OYFCNtAwbYHxJgkam1OqgwmLpMaHWQ5iZ2SxXIhfL1iJCPCQ/e4NX3LZxJqHRP7p4yt0ghZo4GYa17nCmWW/Z9G1eOIso5XyOr1Z7H5Hz0LiZcZQb7us+SJrvi/Suj2+QitUyFaaxXxnK9qwsHBPJmZtSpIows009jUDFmLEjyXuuiKrPn9IbY6uUqEvhnumb/D6+AohKihz7lpa0cZ6Hs4oO3Bn90NAaiwpvvWiM8HRIRJfiZBxXkmr8QuEkdd8hY/w+jQK4SqLTiQzZXKZC+Wq+FUtWHhJzPSINOdhSBT7I7v+mkQ/rvAy64HkNOD4CudDsbpgMluGFYmB6+U+a4x+LQBmGl2jZNde5fCy+RbtAW31LUpQucIdH9s5qUKYJci5IbrzHwawRvAv3Ia5bOGMxGVfWLdy8Bh1riNTtetPS0nh189VCCsNFEJk4FslCPe9rEK+2xAxExJ2msrnlg+NaCtvPzYThc/5Cnkee3yFEA9AoRUHfR4YWC/EEoWITGYspXbwPGjmy5aX3chUz9kMFXgavg5P5UuZQuEwQBcL+nMt8jlcYXQ9RI6ZsAyDna+7+yZM1f45ihTuRIvLk8ZDUMh3gNxMXb5x4gboBERSCJUb8ThoQX1jdBZZ6rtQuBvxb6Q949EV8jDIFVptIYAm217ZMPmHIYrwZdjO3TiuxCSGLvS9npu1dU+Zl8KghRynzwWwcB9ND3ew0eafx0zWBXuugivNvFDBfCXP2hp3mQ+cS60nVVjzmNchukuS5CatMAmPsCMpKMLxsk292xSZt5rJyJuyqqMrdCZS4PahQsoXm5geV850hODQtULaXXg8xJdfqHAktKa7eUnglb85vsK+pNCJisOJptj7cCC2hGnNQH4KO8QKa19BYSPlakZvsGkUxbbTKkyqT3E9I6PQWfOsgBX8C68UjEAX5Cy8iqHey92320g/48QK/aiyGIdyKdEBePZtGlIM2WGz5auP5SzwMlVobF6D/mhtHl9h0JIT6KjMHf/SzOMRpJZ6T+dtlqQn33Irb5mWr3YUD0WCVrcXcSFj+cyLOlFyfnSFkEAnCvskbaS8Liwp7MEHmJ+RrlAuF/XHp2it3b5yUa8guvnCQ8fFGX8Gd4+8DPVP9LcnUhgPds4L3UYcynm9OFHoiGcQ7bOABzXcMjW2b/ed+5/nIvu2heI7bqd1VX25uXnb8t7k2IIrrDcSzmrLN9V+Xf3bWS5yzxV/R2ES2OCtXPzOKuRmmnoqtdoLz0VtW433iNv47KkT76ns+BRR2jHunLx1mLd9Gq3Ul416cXiFPC+TfjAgjtiSPxgIXyQXwptfVekIlA2zKxUQr87VjIr6Y5Ll5Cms/fxS2zwuHi9eDqFQoZomLakpeysdQg3WUAhO/gDSmvChpEPF8vK6LlSGM7VIRYda8/IiegJiGu3G652YxoaapsEUvoUKL++795lU4bdwoDSfzIc1Dd9Kxf1etpjPqzW7vy9vvj+8vXS73cXbj6ud4vem8+Oandd3Xy8ftuI5PN+Cxi9ZmJN939SWt8331dUBFP5vIF9Tcv9XyXLJLlYs846gaqMl3LkIOzevvGhl178ceai/Cd9e/NF/svh+zWzVXuTdMfl8ejyp+bMrWcuzC1s66f+rcGYkHex/k+Vb4xCx7qCwy1E9j5BUCvQH3P11NtofGoYG0Z5Mqnn5M7p70qIVFVgbU6icklnp/4NFEb47M4zZWK/w3V24i1lRA0UQBEEQBEEQBEEQBEEQBEEQBEEQBEEQBEEQBEEQBEEQBEEQROI/snq+oZhcvDIAAAAASUVORK5CYII=;" parent="1" vertex="1">
          <mxGeometry x="740" y="90" width="103" height="103" as="geometry" />
        </mxCell>
        <mxCell id="_bwXxpPGAjzVuI4yMEBe-4" value="&lt;b&gt;&lt;font style=&quot;font-size: 13px;&quot;&gt;儲存/取出資料&lt;/font&gt;&lt;/b&gt;" style="text;html=1;align=center;verticalAlign=middle;resizable=0;points=[];autosize=1;strokeColor=none;fillColor=none;" parent="1" vertex="1">
          <mxGeometry x="590" y="150" width="110" height="30" as="geometry" />
        </mxCell>
        <mxCell id="_bwXxpPGAjzVuI4yMEBe-5" value="&lt;span style=&quot;font-size: 13px;&quot;&gt;&lt;b&gt;辨識圖片文字&lt;/b&gt;&lt;/span&gt;" style="text;html=1;align=center;verticalAlign=middle;resizable=0;points=[];autosize=1;strokeColor=none;fillColor=none;" parent="1" vertex="1">
          <mxGeometry x="595" y="231" width="100" height="30" as="geometry" />
        </mxCell>
        <mxCell id="_bwXxpPGAjzVuI4yMEBe-8" value="&lt;span style=&quot;font-size: 13px;&quot;&gt;&lt;b&gt;個人資料/辨識圖片&lt;/b&gt;&lt;/span&gt;" style="text;html=1;align=center;verticalAlign=middle;resizable=0;points=[];autosize=1;strokeColor=none;fillColor=none;" parent="1" vertex="1">
          <mxGeometry x="358.5" y="231" width="130" height="30" as="geometry" />
        </mxCell>
        <mxCell id="nT4-UKCv3Jt41jupJgb2-5" value="user" style="shape=table;startSize=30;container=1;collapsible=1;childLayout=tableLayout;fixedRows=1;rowLines=0;fontStyle=1;align=center;resizeLast=1;html=1;" parent="1" vertex="1">
          <mxGeometry x="240" y="610" width="280" height="120" as="geometry" />
        </mxCell>
        <mxCell id="nT4-UKCv3Jt41jupJgb2-6" value="" style="shape=tableRow;horizontal=0;startSize=0;swimlaneHead=0;swimlaneBody=0;fillColor=none;collapsible=0;dropTarget=0;points=[[0,0.5],[1,0.5]];portConstraint=eastwest;top=0;left=0;right=0;bottom=1;" parent="nT4-UKCv3Jt41jupJgb2-5" vertex="1">
          <mxGeometry y="30" width="280" height="30" as="geometry" />
        </mxCell>
        <mxCell id="nT4-UKCv3Jt41jupJgb2-7" value="PK" style="shape=partialRectangle;connectable=0;fillColor=none;top=0;left=0;bottom=0;right=0;fontStyle=1;overflow=hidden;whiteSpace=wrap;html=1;" parent="nT4-UKCv3Jt41jupJgb2-6" vertex="1">
          <mxGeometry width="30" height="30" as="geometry">
            <mxRectangle width="30" height="30" as="alternateBounds" />
          </mxGeometry>
        </mxCell>
        <mxCell id="nT4-UKCv3Jt41jupJgb2-8" value="&lt;font&gt;id int (11) NOT NULL AUTO_INCREMENT&lt;/font&gt;" style="shape=partialRectangle;connectable=0;fillColor=none;top=0;left=0;bottom=0;right=0;align=left;spacingLeft=6;fontStyle=5;overflow=hidden;whiteSpace=wrap;html=1;" parent="nT4-UKCv3Jt41jupJgb2-6" vertex="1">
          <mxGeometry x="30" width="250" height="30" as="geometry">
            <mxRectangle width="250" height="30" as="alternateBounds" />
          </mxGeometry>
        </mxCell>
        <mxCell id="nT4-UKCv3Jt41jupJgb2-9" value="" style="shape=tableRow;horizontal=0;startSize=0;swimlaneHead=0;swimlaneBody=0;fillColor=none;collapsible=0;dropTarget=0;points=[[0,0.5],[1,0.5]];portConstraint=eastwest;top=0;left=0;right=0;bottom=0;" parent="nT4-UKCv3Jt41jupJgb2-5" vertex="1">
          <mxGeometry y="60" width="280" height="30" as="geometry" />
        </mxCell>
        <mxCell id="nT4-UKCv3Jt41jupJgb2-10" value="" style="shape=partialRectangle;connectable=0;fillColor=none;top=0;left=0;bottom=0;right=0;editable=1;overflow=hidden;whiteSpace=wrap;html=1;" parent="nT4-UKCv3Jt41jupJgb2-9" vertex="1">
          <mxGeometry width="30" height="30" as="geometry">
            <mxRectangle width="30" height="30" as="alternateBounds" />
          </mxGeometry>
        </mxCell>
        <mxCell id="nT4-UKCv3Jt41jupJgb2-11" value="name varchar(10) NOT NULL" style="shape=partialRectangle;connectable=0;fillColor=none;top=0;left=0;bottom=0;right=0;align=left;spacingLeft=6;overflow=hidden;whiteSpace=wrap;html=1;" parent="nT4-UKCv3Jt41jupJgb2-9" vertex="1">
          <mxGeometry x="30" width="250" height="30" as="geometry">
            <mxRectangle width="250" height="30" as="alternateBounds" />
          </mxGeometry>
        </mxCell>
        <mxCell id="nT4-UKCv3Jt41jupJgb2-12" value="" style="shape=tableRow;horizontal=0;startSize=0;swimlaneHead=0;swimlaneBody=0;fillColor=none;collapsible=0;dropTarget=0;points=[[0,0.5],[1,0.5]];portConstraint=eastwest;top=0;left=0;right=0;bottom=0;" parent="nT4-UKCv3Jt41jupJgb2-5" vertex="1">
          <mxGeometry y="90" width="280" height="30" as="geometry" />
        </mxCell>
        <mxCell id="nT4-UKCv3Jt41jupJgb2-13" value="" style="shape=partialRectangle;connectable=0;fillColor=none;top=0;left=0;bottom=0;right=0;editable=1;overflow=hidden;whiteSpace=wrap;html=1;" parent="nT4-UKCv3Jt41jupJgb2-12" vertex="1">
          <mxGeometry width="30" height="30" as="geometry">
            <mxRectangle width="30" height="30" as="alternateBounds" />
          </mxGeometry>
        </mxCell>
        <mxCell id="nT4-UKCv3Jt41jupJgb2-14" value="password varchar(255) NOT NULL" style="shape=partialRectangle;connectable=0;fillColor=none;top=0;left=0;bottom=0;right=0;align=left;spacingLeft=6;overflow=hidden;whiteSpace=wrap;html=1;" parent="nT4-UKCv3Jt41jupJgb2-12" vertex="1">
          <mxGeometry x="30" width="250" height="30" as="geometry">
            <mxRectangle width="250" height="30" as="alternateBounds" />
          </mxGeometry>
        </mxCell>
        <mxCell id="nT4-UKCv3Jt41jupJgb2-21" value="image" style="shape=table;startSize=30;container=1;collapsible=1;childLayout=tableLayout;fixedRows=1;rowLines=0;fontStyle=1;align=center;resizeLast=1;html=1;" parent="1" vertex="1">
          <mxGeometry x="600" y="610" width="280" height="180" as="geometry" />
        </mxCell>
        <mxCell id="nT4-UKCv3Jt41jupJgb2-22" value="" style="shape=tableRow;horizontal=0;startSize=0;swimlaneHead=0;swimlaneBody=0;fillColor=none;collapsible=0;dropTarget=0;points=[[0,0.5],[1,0.5]];portConstraint=eastwest;top=0;left=0;right=0;bottom=1;" parent="nT4-UKCv3Jt41jupJgb2-21" vertex="1">
          <mxGeometry y="30" width="280" height="30" as="geometry" />
        </mxCell>
        <mxCell id="nT4-UKCv3Jt41jupJgb2-23" value="PK" style="shape=partialRectangle;connectable=0;fillColor=none;top=0;left=0;bottom=0;right=0;fontStyle=1;overflow=hidden;whiteSpace=wrap;html=1;" parent="nT4-UKCv3Jt41jupJgb2-22" vertex="1">
          <mxGeometry width="30" height="30" as="geometry">
            <mxRectangle width="30" height="30" as="alternateBounds" />
          </mxGeometry>
        </mxCell>
        <mxCell id="nT4-UKCv3Jt41jupJgb2-24" value="&lt;font&gt;id int (11) NOT NULL AUTO_INCREMENT&lt;/font&gt;" style="shape=partialRectangle;connectable=0;fillColor=none;top=0;left=0;bottom=0;right=0;align=left;spacingLeft=6;fontStyle=5;overflow=hidden;whiteSpace=wrap;html=1;" parent="nT4-UKCv3Jt41jupJgb2-22" vertex="1">
          <mxGeometry x="30" width="250" height="30" as="geometry">
            <mxRectangle width="250" height="30" as="alternateBounds" />
          </mxGeometry>
        </mxCell>
        <mxCell id="nT4-UKCv3Jt41jupJgb2-25" value="" style="shape=tableRow;horizontal=0;startSize=0;swimlaneHead=0;swimlaneBody=0;fillColor=none;collapsible=0;dropTarget=0;points=[[0,0.5],[1,0.5]];portConstraint=eastwest;top=0;left=0;right=0;bottom=0;" parent="nT4-UKCv3Jt41jupJgb2-21" vertex="1">
          <mxGeometry y="60" width="280" height="30" as="geometry" />
        </mxCell>
        <mxCell id="nT4-UKCv3Jt41jupJgb2-26" value="" style="shape=partialRectangle;connectable=0;fillColor=none;top=0;left=0;bottom=0;right=0;editable=1;overflow=hidden;whiteSpace=wrap;html=1;" parent="nT4-UKCv3Jt41jupJgb2-25" vertex="1">
          <mxGeometry width="30" height="30" as="geometry">
            <mxRectangle width="30" height="30" as="alternateBounds" />
          </mxGeometry>
        </mxCell>
        <mxCell id="nT4-UKCv3Jt41jupJgb2-27" value="file_name varchar(50) NOT NULL" style="shape=partialRectangle;connectable=0;fillColor=none;top=0;left=0;bottom=0;right=0;align=left;spacingLeft=6;overflow=hidden;whiteSpace=wrap;html=1;" parent="nT4-UKCv3Jt41jupJgb2-25" vertex="1">
          <mxGeometry x="30" width="250" height="30" as="geometry">
            <mxRectangle width="250" height="30" as="alternateBounds" />
          </mxGeometry>
        </mxCell>
        <mxCell id="nT4-UKCv3Jt41jupJgb2-28" value="" style="shape=tableRow;horizontal=0;startSize=0;swimlaneHead=0;swimlaneBody=0;fillColor=none;collapsible=0;dropTarget=0;points=[[0,0.5],[1,0.5]];portConstraint=eastwest;top=0;left=0;right=0;bottom=0;" parent="nT4-UKCv3Jt41jupJgb2-21" vertex="1">
          <mxGeometry y="90" width="280" height="30" as="geometry" />
        </mxCell>
        <mxCell id="nT4-UKCv3Jt41jupJgb2-29" value="" style="shape=partialRectangle;connectable=0;fillColor=none;top=0;left=0;bottom=0;right=0;editable=1;overflow=hidden;whiteSpace=wrap;html=1;" parent="nT4-UKCv3Jt41jupJgb2-28" vertex="1">
          <mxGeometry width="30" height="30" as="geometry">
            <mxRectangle width="30" height="30" as="alternateBounds" />
          </mxGeometry>
        </mxCell>
        <mxCell id="nT4-UKCv3Jt41jupJgb2-30" value="file_path varchar(100) NOT NULL" style="shape=partialRectangle;connectable=0;fillColor=none;top=0;left=0;bottom=0;right=0;align=left;spacingLeft=6;overflow=hidden;whiteSpace=wrap;html=1;" parent="nT4-UKCv3Jt41jupJgb2-28" vertex="1">
          <mxGeometry x="30" width="250" height="30" as="geometry">
            <mxRectangle width="250" height="30" as="alternateBounds" />
          </mxGeometry>
        </mxCell>
        <mxCell id="nT4-UKCv3Jt41jupJgb2-31" style="shape=tableRow;horizontal=0;startSize=0;swimlaneHead=0;swimlaneBody=0;fillColor=none;collapsible=0;dropTarget=0;points=[[0,0.5],[1,0.5]];portConstraint=eastwest;top=0;left=0;right=0;bottom=0;" parent="nT4-UKCv3Jt41jupJgb2-21" vertex="1">
          <mxGeometry y="120" width="280" height="30" as="geometry" />
        </mxCell>
        <mxCell id="nT4-UKCv3Jt41jupJgb2-32" style="shape=partialRectangle;connectable=0;fillColor=none;top=0;left=0;bottom=0;right=0;editable=1;overflow=hidden;whiteSpace=wrap;html=1;" parent="nT4-UKCv3Jt41jupJgb2-31" vertex="1">
          <mxGeometry width="30" height="30" as="geometry">
            <mxRectangle width="30" height="30" as="alternateBounds" />
          </mxGeometry>
        </mxCell>
        <mxCell id="nT4-UKCv3Jt41jupJgb2-33" value="file_text varchar(100) NOT NULL" style="shape=partialRectangle;connectable=0;fillColor=none;top=0;left=0;bottom=0;right=0;align=left;spacingLeft=6;overflow=hidden;whiteSpace=wrap;html=1;" parent="nT4-UKCv3Jt41jupJgb2-31" vertex="1">
          <mxGeometry x="30" width="250" height="30" as="geometry">
            <mxRectangle width="250" height="30" as="alternateBounds" />
          </mxGeometry>
        </mxCell>
        <mxCell id="nT4-UKCv3Jt41jupJgb2-34" style="shape=tableRow;horizontal=0;startSize=0;swimlaneHead=0;swimlaneBody=0;fillColor=none;collapsible=0;dropTarget=0;points=[[0,0.5],[1,0.5]];portConstraint=eastwest;top=0;left=0;right=0;bottom=0;" parent="nT4-UKCv3Jt41jupJgb2-21" vertex="1">
          <mxGeometry y="150" width="280" height="30" as="geometry" />
        </mxCell>
        <mxCell id="nT4-UKCv3Jt41jupJgb2-35" value="&lt;b&gt;FK&lt;/b&gt;" style="shape=partialRectangle;connectable=0;fillColor=none;top=0;left=0;bottom=0;right=0;editable=1;overflow=hidden;whiteSpace=wrap;html=1;" parent="nT4-UKCv3Jt41jupJgb2-34" vertex="1">
          <mxGeometry width="30" height="30" as="geometry">
            <mxRectangle width="30" height="30" as="alternateBounds" />
          </mxGeometry>
        </mxCell>
        <mxCell id="nT4-UKCv3Jt41jupJgb2-36" value="user_id int(11)" style="shape=partialRectangle;connectable=0;fillColor=none;top=0;left=0;bottom=0;right=0;align=left;spacingLeft=6;overflow=hidden;whiteSpace=wrap;html=1;" parent="nT4-UKCv3Jt41jupJgb2-34" vertex="1">
          <mxGeometry x="30" width="250" height="30" as="geometry">
            <mxRectangle width="250" height="30" as="alternateBounds" />
          </mxGeometry>
        </mxCell>
        <mxCell id="nT4-UKCv3Jt41jupJgb2-42" value="" style="edgeStyle=orthogonalEdgeStyle;fontSize=12;html=1;endArrow=ERoneToMany;startArrow=ERzeroToMany;rounded=0;exitX=0;exitY=0.5;exitDx=0;exitDy=0;entryX=1;entryY=0.5;entryDx=0;entryDy=0;curved=1;" parent="1" source="nT4-UKCv3Jt41jupJgb2-34" target="nT4-UKCv3Jt41jupJgb2-6" edge="1">
          <mxGeometry width="100" height="100" relative="1" as="geometry">
            <mxPoint x="510" y="850" as="sourcePoint" />
            <mxPoint x="610" y="750" as="targetPoint" />
          </mxGeometry>
        </mxCell>
        <mxCell id="oA4RB69K3NZiua0QcsP2-3" style="edgeStyle=orthogonalEdgeStyle;rounded=0;orthogonalLoop=1;jettySize=auto;html=1;entryX=0;entryY=0.5;entryDx=0;entryDy=0;" edge="1" parent="1" source="oA4RB69K3NZiua0QcsP2-1" target="oA4RB69K3NZiua0QcsP2-2">
          <mxGeometry relative="1" as="geometry" />
        </mxCell>
        <mxCell id="oA4RB69K3NZiua0QcsP2-1" value="User" style="shape=umlActor;verticalLabelPosition=bottom;verticalAlign=top;html=1;outlineConnect=0;" vertex="1" parent="1">
          <mxGeometry x="197.51" y="1060" width="30" height="60" as="geometry" />
        </mxCell>
        <mxCell id="oA4RB69K3NZiua0QcsP2-5" value="" style="edgeStyle=orthogonalEdgeStyle;rounded=0;orthogonalLoop=1;jettySize=auto;html=1;" edge="1" parent="1" source="oA4RB69K3NZiua0QcsP2-2" target="oA4RB69K3NZiua0QcsP2-4">
          <mxGeometry relative="1" as="geometry" />
        </mxCell>
        <mxCell id="oA4RB69K3NZiua0QcsP2-6" value="Text" style="edgeLabel;html=1;align=center;verticalAlign=middle;resizable=0;points=[];" vertex="1" connectable="0" parent="oA4RB69K3NZiua0QcsP2-5">
          <mxGeometry x="0.0196" relative="1" as="geometry">
            <mxPoint as="offset" />
          </mxGeometry>
        </mxCell>
        <mxCell id="oA4RB69K3NZiua0QcsP2-7" value="Text" style="edgeLabel;html=1;align=center;verticalAlign=middle;resizable=0;points=[];" vertex="1" connectable="0" parent="oA4RB69K3NZiua0QcsP2-5">
          <mxGeometry x="0.0429" relative="1" as="geometry">
            <mxPoint as="offset" />
          </mxGeometry>
        </mxCell>
        <mxCell id="oA4RB69K3NZiua0QcsP2-8" value="成功" style="edgeLabel;html=1;align=center;verticalAlign=middle;resizable=0;points=[];" vertex="1" connectable="0" parent="oA4RB69K3NZiua0QcsP2-5">
          <mxGeometry x="0.1131" y="-2" relative="1" as="geometry">
            <mxPoint x="-5" y="-1" as="offset" />
          </mxGeometry>
        </mxCell>
        <mxCell id="oA4RB69K3NZiua0QcsP2-2" value="登入介面" style="rounded=1;whiteSpace=wrap;html=1;" vertex="1" parent="1">
          <mxGeometry x="306.01" y="1060" width="120" height="60" as="geometry" />
        </mxCell>
        <mxCell id="oA4RB69K3NZiua0QcsP2-24" style="edgeStyle=orthogonalEdgeStyle;rounded=0;orthogonalLoop=1;jettySize=auto;html=1;entryX=0;entryY=0.5;entryDx=0;entryDy=0;" edge="1" parent="1" source="oA4RB69K3NZiua0QcsP2-4" target="oA4RB69K3NZiua0QcsP2-11">
          <mxGeometry relative="1" as="geometry" />
        </mxCell>
        <mxCell id="oA4RB69K3NZiua0QcsP2-25" style="edgeStyle=orthogonalEdgeStyle;rounded=0;orthogonalLoop=1;jettySize=auto;html=1;entryX=0;entryY=0.5;entryDx=0;entryDy=0;" edge="1" parent="1" source="oA4RB69K3NZiua0QcsP2-4" target="oA4RB69K3NZiua0QcsP2-10">
          <mxGeometry relative="1" as="geometry" />
        </mxCell>
        <mxCell id="oA4RB69K3NZiua0QcsP2-26" style="edgeStyle=orthogonalEdgeStyle;rounded=0;orthogonalLoop=1;jettySize=auto;html=1;entryX=0;entryY=0.5;entryDx=0;entryDy=0;" edge="1" parent="1" source="oA4RB69K3NZiua0QcsP2-4" target="oA4RB69K3NZiua0QcsP2-9">
          <mxGeometry relative="1" as="geometry" />
        </mxCell>
        <mxCell id="oA4RB69K3NZiua0QcsP2-27" style="edgeStyle=orthogonalEdgeStyle;rounded=0;orthogonalLoop=1;jettySize=auto;html=1;entryX=0;entryY=0.5;entryDx=0;entryDy=0;" edge="1" parent="1" source="oA4RB69K3NZiua0QcsP2-4" target="oA4RB69K3NZiua0QcsP2-12">
          <mxGeometry relative="1" as="geometry" />
        </mxCell>
        <mxCell id="oA4RB69K3NZiua0QcsP2-28" value="顯示所有照片" style="edgeLabel;html=1;align=center;verticalAlign=middle;resizable=0;points=[];" vertex="1" connectable="0" parent="oA4RB69K3NZiua0QcsP2-27">
          <mxGeometry x="-0.7512" y="1" relative="1" as="geometry">
            <mxPoint x="3" y="1" as="offset" />
          </mxGeometry>
        </mxCell>
        <mxCell id="oA4RB69K3NZiua0QcsP2-4" value="首頁" style="rounded=1;whiteSpace=wrap;html=1;" vertex="1" parent="1">
          <mxGeometry x="507.51" y="1060" width="120" height="60" as="geometry" />
        </mxCell>
        <mxCell id="oA4RB69K3NZiua0QcsP2-9" value="上傳照片" style="rounded=1;whiteSpace=wrap;html=1;" vertex="1" parent="1">
          <mxGeometry x="810" y="915" width="120" height="60" as="geometry" />
        </mxCell>
        <mxCell id="oA4RB69K3NZiua0QcsP2-10" value="照片詳細頁面" style="rounded=1;whiteSpace=wrap;html=1;" vertex="1" parent="1">
          <mxGeometry x="810" y="1005" width="120" height="60" as="geometry" />
        </mxCell>
        <mxCell id="oA4RB69K3NZiua0QcsP2-23" value="" style="edgeStyle=orthogonalEdgeStyle;rounded=0;orthogonalLoop=1;jettySize=auto;html=1;" edge="1" parent="1" source="oA4RB69K3NZiua0QcsP2-11" target="oA4RB69K3NZiua0QcsP2-22">
          <mxGeometry relative="1" as="geometry" />
        </mxCell>
        <mxCell id="oA4RB69K3NZiua0QcsP2-11" value="個人照片集" style="rounded=1;whiteSpace=wrap;html=1;" vertex="1" parent="1">
          <mxGeometry x="810" y="1105" width="120" height="60" as="geometry" />
        </mxCell>
        <mxCell id="oA4RB69K3NZiua0QcsP2-12" value="個人資料頁" style="rounded=1;whiteSpace=wrap;html=1;" vertex="1" parent="1">
          <mxGeometry x="810" y="1205" width="120" height="60" as="geometry" />
        </mxCell>
        <mxCell id="oA4RB69K3NZiua0QcsP2-22" value="管理個人照片" style="rounded=1;whiteSpace=wrap;html=1;" vertex="1" parent="1">
          <mxGeometry x="990" y="1105" width="120" height="60" as="geometry" />
        </mxCell>
      </root>
    </mxGraphModel>
  </diagram>
</mxfile>
